Khula-Semibold.ufo
<glyph name="exclam" format="1">
  <advance width="607"/>
  <unicode hex="0021"/>
  <outline>
    <contour>
      <point x="384" y="400" type="line"/>
      <point x="227" y="400" type="line"/>
      <point x="180" y="1316" type="line"/>
      <point x="430" y="1316" type="line"/>
    </contour>
    <contour>
      <point x="170" y="112" type="curve" smooth="yes"/>
      <point x="170" y="201"/>
      <point x="218" y="248"/>
      <point x="305" y="248" type="curve" smooth="yes"/>
      <point x="390" y="248"/>
      <point x="437" y="197"/>
      <point x="437" y="112" type="curve" smooth="yes"/>
      <point x="437" y="28"/>
      <point x="389" y="-26"/>
      <point x="305" y="-26" type="curve" smooth="yes"/>
      <point x="220" y="-26"/>
      <point x="170" y="24"/>
    </contour>
  </outline>
</glyph>
<glyph name="quotedbl" format="1">
  <advance width="904"/>
  <unicode hex="0022"/>
  <outline>
    <contour>
      <point x="378" y="1316" type="line"/>
      <point x="342" y="841" type="line"/>
      <point x="207" y="841" type="line"/>
      <point x="170" y="1316" type="line"/>
    </contour>
    <contour>
      <point x="734" y="1316" type="line"/>
      <point x="697" y="841" type="line"/>
      <point x="562" y="841" type="line"/>
      <point x="525" y="1316" type="line"/>
    </contour>
  </outline>
</glyph>
<glyph name="numbersign" format="1">
  <advance width="1191"/>
  <unicode hex="0023"/>
  <outline>
    <contour>
      <point x="890" y="783" type="line"/>
      <point x="841" y="527" type="line"/>
      <point x="1084" y="527" type="line"/>
      <point x="1084" y="376" type="line"/>
      <point x="811" y="376" type="line"/>
      <point x="739" y="0" type="line"/>
      <point x="579" y="0" type="line"/>
      <point x="651" y="376" type="line"/>
      <point x="427" y="376" type="line"/>
      <point x="355" y="0" type="line"/>
      <point x="199" y="0" type="line"/>
      <point x="267" y="376" type="line"/>
      <point x="42" y="376" type="line"/>
      <point x="42" y="527" type="line"/>
      <point x="297" y="527" type="line"/>
      <point x="348" y="783" type="line"/>
      <point x="111" y="783" type="line"/>
      <point x="111" y="934" type="line"/>
      <point x="374" y="934" type="line"/>
      <point x="446" y="1314" type="line"/>
      <point x="608" y="1314" type="line"/>
      <point x="536" y="934" type="line"/>
      <point x="763" y="934" type="line"/>
      <point x="835" y="1314" type="line"/>
      <point x="992" y="1314" type="line"/>
      <point x="920" y="934" type="line"/>
      <point x="1147" y="934" type="line"/>
      <point x="1147" y="783" type="line"/>
    </contour>
    <contour>
      <point x="455" y="527" type="line"/>
      <point x="680" y="527" type="line"/>
      <point x="732" y="783" type="line"/>
      <point x="507" y="783" type="line"/>
    </contour>
  </outline>
</glyph>
<glyph name="parenleft" format="1">
  <advance width="670"/>
  <unicode hex="0028"/>
  <outline>
    <contour>
      <point x="95" y="605" type="curve" smooth="yes"/>
      <point x="95" y="922"/>
      <point x="190" y="1207"/>
      <point x="366" y="1416" type="curve"/>
      <point x="550" y="1416" type="line"/>
      <point x="467" y="1303"/>
      <point x="403" y="1177"/>
      <point x="358" y="1036" type="curve" smooth="yes"/>
      <point x="314" y="896"/>
      <point x="292" y="753"/>
      <point x="292" y="607" type="curve" smooth="yes"/>
      <point x="292" y="460"/>
      <point x="314" y="318"/>
      <point x="358" y="181" type="curve" smooth="yes"/>
      <point x="403" y="44"/>
      <point x="466" y="-81"/>
      <point x="548" y="-192" type="curve"/>
      <point x="366" y="-192" type="line"/>
      <point x="189" y="12"/>
      <point x="95" y="292"/>
    </contour>
  </outline>
</glyph>
<glyph name="asterisk.deva" format="1">
  <advance width="1113"/>
  <unicode hex="002A"/>
  <outline>
    <contour>
      <point x="658" y="1400" type="line"/>
      <point x="621" y="1057" type="line"/>
      <point x="967" y="1154" type="line"/>
      <point x="993" y="958" type="line"/>
      <point x="669" y="932" type="line"/>
      <point x="881" y="652" type="line"/>
      <point x="702" y="556" type="line"/>
      <point x="552" y="860" type="line"/>
      <point x="418" y="556" type="line"/>
      <point x="234" y="652" type="line"/>
      <point x="442" y="932" type="line"/>
      <point x="120" y="958" type="line"/>
      <point x="151" y="1154" type="line"/>
      <point x="489" y="1057" type="line"/>
      <point x="453" y="1400" type="line"/>
    </contour>
  </outline>
</glyph>
<glyph name="plus" format="1">
  <advance width="1052"/>
  <unicode hex="002B"/>
  <outline>
    <contour>
      <point x="445" y="570" type="line"/>
      <point x="86" y="570" type="line"/>
      <point x="86" y="730" type="line"/>
      <point x="445" y="730" type="line"/>
      <point x="445" y="1097" type="line"/>
      <point x="607" y="1097" type="line"/>
      <point x="607" y="730" type="line"/>
      <point x="966" y="730" type="line"/>
      <point x="966" y="570" type="line"/>
      <point x="607" y="570" type="line"/>
      <point x="607" y="204" type="line"/>
      <point x="445" y="204" type="line"/>
    </contour>
  </outline>
</glyph>
<glyph name="comma" format="1">
  <advance width="492"/>
  <unicode hex="002C"/>
  <outline>
    <contour>
      <point x="371" y="193" type="line"/>
      <point x="342" y="82"/>
      <point x="289" y="-62"/>
      <point x="212" y="-238" type="curve"/>
      <point x="57" y="-238" type="line"/>
      <point x="98" y="-76"/>
      <point x="129" y="75"/>
      <point x="149" y="214" type="curve"/>
      <point x="357" y="214" type="line"/>
    </contour>
  </outline>
</glyph>
<glyph name="hyphen" format="1">
  <advance width="672"/>
  <unicode hex="002D"/>
  <outline>
    <contour>
      <point x="105" y="504" type="line"/>
      <point x="105" y="684" type="line"/>
      <point x="567" y="684" type="line"/>
      <point x="567" y="504" type="line"/>
    </contour>
  </outline>
</glyph>
<glyph name="period" format="1">
  <advance width="507"/>
  <unicode hex="002E"/>
  <outline>
    <contour>
      <point x="120" y="112" type="curve" smooth="yes"/>
      <point x="120" y="200"/>
      <point x="166" y="248"/>
      <point x="253" y="248" type="curve" smooth="yes"/>
      <point x="341" y="248"/>
      <point x="387" y="196"/>
      <point x="387" y="112" type="curve" smooth="yes"/>
      <point x="387" y="28"/>
      <point x="340" y="-26"/>
      <point x="253" y="-26" type="curve" smooth="yes"/>
      <point x="166" y="-26"/>
      <point x="120" y="27"/>
    </contour>
  </outline>
</glyph>
<glyph name="four" format="1">
  <advance width="1052"/>
  <unicode hex="0034"/>
  <outline>
    <contour>
      <point x="1020" y="287" type="line"/>
      <point x="842" y="287" type="line"/>
      <point x="842" y="0" type="line"/>
      <point x="636" y="0" type="line"/>
      <point x="636" y="287" type="line"/>
      <point x="35" y="287" type="line"/>
      <point x="35" y="450" type="line"/>
      <point x="636" y="1319" type="line"/>
      <point x="842" y="1319" type="line"/>
      <point x="842" y="463" type="line"/>
      <point x="1020" y="463" type="line"/>
    </contour>
    <contour>
      <point x="636" y="463" type="line"/>
      <point x="636" y="793" type="line" smooth="yes"/>
      <point x="636" y="910"/>
      <point x="639" y="1007"/>
      <point x="645" y="1082" type="curve"/>
      <point x="638" y="1082" type="line"/>
      <point x="621" y="1042"/>
      <point x="595" y="994"/>
      <point x="559" y="938" type="curve"/>
      <point x="232" y="463" type="line"/>
    </contour>
  </outline>
</glyph>
<glyph name="six.deva" format="1">
  <advance width="1052"/>
  <unicode hex="0036"/>
  <outline>
    <contour>
      <point x="85" y="561" type="curve" smooth="yes"/>
      <point x="85" y="1076"/>
      <point x="295" y="1333"/>
      <point x="714" y="1333" type="curve" smooth="yes"/>
      <point x="780" y="1333"/>
      <point x="836" y="1328"/>
      <point x="881" y="1318" type="curve"/>
      <point x="881" y="1141" type="line"/>
      <point x="836" y="1154"/>
      <point x="783" y="1161"/>
      <point x="723" y="1161" type="curve" smooth="yes"/>
      <point x="440" y="1161"/>
      <point x="302" y="1017"/>
      <point x="290" y="684" type="curve"/>
      <point x="301" y="684" type="line"/>
      <point x="357" y="781"/>
      <point x="462" y="837"/>
      <point x="599" y="837" type="curve" smooth="yes"/>
      <point x="718" y="837"/>
      <point x="811" y="800"/>
      <point x="878" y="727" type="curve" smooth="yes"/>
      <point x="945" y="654"/>
      <point x="978" y="554"/>
      <point x="978" y="429" type="curve" smooth="yes"/>
      <point x="978" y="291"/>
      <point x="939" y="182"/>
      <point x="862" y="102" type="curve" smooth="yes"/>
      <point x="785" y="22"/>
      <point x="680" y="-18"/>
      <point x="547" y="-18" type="curve" smooth="yes"/>
      <point x="263" y="-18"/>
      <point x="85" y="194"/>
    </contour>
    <contour>
      <point x="544" y="157" type="curve" smooth="yes"/>
      <point x="688" y="157"/>
      <point x="770" y="254"/>
      <point x="770" y="427" type="curve" smooth="yes"/>
      <point x="770" y="579"/>
      <point x="697" y="670"/>
      <point x="549" y="670" type="curve"/>
      <point x="413" y="675"/>
      <point x="295" y="564"/>
      <point x="299" y="457" type="curve"/>
      <point x="299" y="372"/>
      <point x="322" y="301"/>
      <point x="367" y="243" type="curve"/>
      <point x="413" y="186"/>
      <point x="472" y="157"/>
    </contour>
  </outline>
</glyph>
<glyph name="colon.deva" format="1">
  <advance width="667"/>
  <unicode hex="003A"/>
  <outline>
    <contour>
      <point x="200" y="112" type="curve" smooth="yes"/>
      <point x="200" y="200"/>
      <point x="246" y="248"/>
      <point x="333" y="248" type="curve" smooth="yes"/>
      <point x="421" y="248"/>
      <point x="467" y="196"/>
      <point x="467" y="112" type="curve" smooth="yes"/>
      <point x="467" y="28"/>
      <point x="420" y="-26"/>
      <point x="333" y="-26" type="curve" smooth="yes"/>
      <point x="246" y="-26"/>
      <point x="200" y="27"/>
    </contour>
    <contour>
      <point x="200" y="881" type="curve" smooth="yes"/>
      <point x="200" y="972"/>
      <point x="244" y="1017"/>
      <point x="333" y="1017" type="curve" smooth="yes"/>
      <point x="422" y="1017"/>
      <point x="467" y="966"/>
      <point x="467" y="881" type="curve" smooth="yes"/>
      <point x="467" y="796"/>
      <point x="420" y="742"/>
      <point x="333" y="742" type="curve" smooth="yes"/>
      <point x="246" y="742"/>
      <point x="200" y="794"/>
    </contour>
  </outline>
</glyph>
<glyph name="colon" format="1">
  <advance width="507"/>
  <unicode hex="003A"/>
  <outline>
    <contour>
      <point x="120" y="112" type="curve" smooth="yes"/>
      <point x="120" y="200"/>
      <point x="166" y="248"/>
      <point x="253" y="248" type="curve" smooth="yes"/>
      <point x="341" y="248"/>
      <point x="387" y="196"/>
      <point x="387" y="112" type="curve" smooth="yes"/>
      <point x="387" y="28"/>
      <point x="340" y="-26"/>
      <point x="253" y="-26" type="curve" smooth="yes"/>
      <point x="166" y="-26"/>
      <point x="120" y="27"/>
    </contour>
    <contour>
      <point x="120" y="881" type="curve" smooth="yes"/>
      <point x="120" y="972"/>
      <point x="164" y="1017"/>
      <point x="253" y="1017" type="curve" smooth="yes"/>
      <point x="342" y="1017"/>
      <point x="387" y="966"/>
      <point x="387" y="881" type="curve" smooth="yes"/>
      <point x="387" y="796"/>
      <point x="340" y="742"/>
      <point x="253" y="742" type="curve" smooth="yes"/>
      <point x="166" y="742"/>
      <point x="120" y="794"/>
    </contour>
  </outline>
</glyph>
<glyph name="less" format="1">
  <advance width="1052"/>
  <unicode hex="003C"/>
  <outline>
    <contour>
      <point x="966" y="199" type="line"/>
      <point x="86" y="586" type="line"/>
      <point x="86" y="695" type="line"/>
      <point x="966" y="1134" type="line"/>
      <point x="966" y="958" type="line"/>
      <point x="306" y="649" type="line"/>
      <point x="966" y="376" type="line"/>
    </contour>
  </outline>
</glyph>
<glyph name="greater" format="1">
  <advance width="1052"/>
  <unicode hex="003E"/>
  <outline>
    <contour>
      <point x="86" y="376" type="line"/>
      <point x="746" y="649" type="line"/>
      <point x="86" y="958" type="line"/>
      <point x="86" y="1134" type="line"/>
      <point x="966" y="695" type="line"/>
      <point x="966" y="586" type="line"/>
      <point x="86" y="199" type="line"/>
    </contour>
  </outline>
</glyph>
<glyph name="question.deva" format="1">
  <advance width="1145"/>
  <unicode hex="003F"/>
  <outline>
    <contour>
      <point x="441" y="400" type="line"/>
      <point x="441" y="457" type="line" smooth="yes"/>
      <point x="441" y="523"/>
      <point x="453" y="578"/>
      <point x="477" y="622" type="curve" smooth="yes"/>
      <point x="501" y="666"/>
      <point x="543" y="711"/>
      <point x="603" y="758" type="curve" smooth="yes"/>
      <point x="674" y="814"/>
      <point x="720" y="858"/>
      <point x="741" y="889" type="curve" smooth="yes"/>
      <point x="762" y="920"/>
      <point x="772" y="958"/>
      <point x="772" y="1001" type="curve" smooth="yes"/>
      <point x="772" y="1101"/>
      <point x="702" y="1157"/>
      <point x="577" y="1157" type="curve" smooth="yes"/>
      <point x="462" y="1157"/>
      <point x="368" y="1120"/>
      <point x="276" y="1075" type="curve"/>
      <point x="200" y="1233" type="line"/>
      <point x="322" y="1301"/>
      <point x="453" y="1335"/>
      <point x="592" y="1335" type="curve" smooth="yes"/>
      <point x="709" y="1335"/>
      <point x="802" y="1306"/>
      <point x="871" y="1248" type="curve" smooth="yes"/>
      <point x="940" y="1191"/>
      <point x="975" y="1111"/>
      <point x="975" y="1010" type="curve" smooth="yes"/>
      <point x="975" y="965"/>
      <point x="968" y="924"/>
      <point x="955" y="889" type="curve" smooth="yes"/>
      <point x="942" y="854"/>
      <point x="923" y="821"/>
      <point x="896" y="789" type="curve" smooth="yes"/>
      <point x="869" y="758"/>
      <point x="823" y="716"/>
      <point x="757" y="665" type="curve" smooth="yes"/>
      <point x="702" y="621"/>
      <point x="664" y="585"/>
      <point x="645" y="556" type="curve" smooth="yes"/>
      <point x="626" y="527"/>
      <point x="617" y="489"/>
      <point x="617" y="440" type="curve" smooth="yes"/>
      <point x="617" y="400" type="line"/>
    </contour>
    <contour>
      <point x="404" y="112" type="curve" smooth="yes"/>
      <point x="404" y="203"/>
      <point x="448" y="248"/>
      <point x="536" y="248" type="curve" smooth="yes"/>
      <point x="623" y="248"/>
      <point x="669" y="199"/>
      <point x="669" y="112" type="curve" smooth="yes"/>
      <point x="669" y="28"/>
      <point x="621" y="-26"/>
      <point x="536" y="-26" type="curve" smooth="yes"/>
      <point x="451" y="-26"/>
      <point x="404" y="25"/>
    </contour>
  </outline>
</glyph>
<glyph name="question" format="1">
  <advance width="987"/>
  <unicode hex="003F"/>
  <outline>
    <contour>
      <point x="367" y="400" type="line"/>
      <point x="367" y="457" type="line" smooth="yes"/>
      <point x="367" y="523"/>
      <point x="379" y="578"/>
      <point x="403" y="622" type="curve" smooth="yes"/>
      <point x="427" y="666"/>
      <point x="469" y="711"/>
      <point x="529" y="758" type="curve" smooth="yes"/>
      <point x="600" y="814"/>
      <point x="646" y="858"/>
      <point x="667" y="889" type="curve" smooth="yes"/>
      <point x="688" y="920"/>
      <point x="698" y="958"/>
      <point x="698" y="1001" type="curve" smooth="yes"/>
      <point x="698" y="1101"/>
      <point x="628" y="1157"/>
      <point x="503" y="1157" type="curve" smooth="yes"/>
      <point x="388" y="1157"/>
      <point x="294" y="1120"/>
      <point x="202" y="1075" type="curve"/>
      <point x="126" y="1233" type="line"/>
      <point x="248" y="1301"/>
      <point x="379" y="1335"/>
      <point x="518" y="1335" type="curve" smooth="yes"/>
      <point x="635" y="1335"/>
      <point x="728" y="1306"/>
      <point x="797" y="1248" type="curve" smooth="yes"/>
      <point x="866" y="1191"/>
      <point x="901" y="1111"/>
      <point x="901" y="1010" type="curve" smooth="yes"/>
      <point x="901" y="965"/>
      <point x="894" y="924"/>
      <point x="881" y="889" type="curve" smooth="yes"/>
      <point x="868" y="854"/>
      <point x="849" y="821"/>
      <point x="822" y="789" type="curve" smooth="yes"/>
      <point x="795" y="758"/>
      <point x="749" y="716"/>
      <point x="683" y="665" type="curve" smooth="yes"/>
      <point x="628" y="621"/>
      <point x="590" y="585"/>
      <point x="571" y="556" type="curve" smooth="yes"/>
      <point x="552" y="527"/>
      <point x="543" y="489"/>
      <point x="543" y="440" type="curve" smooth="yes"/>
      <point x="543" y="400" type="line"/>
    </contour>
    <contour>
      <point x="330" y="112" type="curve" smooth="yes"/>
      <point x="330" y="203"/>
      <point x="374" y="248"/>
      <point x="462" y="248" type="curve" smooth="yes"/>
      <point x="549" y="248"/>
      <point x="595" y="199"/>
      <point x="595" y="112" type="curve" smooth="yes"/>
      <point x="595" y="28"/>
      <point x="547" y="-26"/>
      <point x="462" y="-26" type="curve" smooth="yes"/>
      <point x="377" y="-26"/>
      <point x="330" y="25"/>
    </contour>
  </outline>
</glyph>
<glyph name="bracketleft" format="1">
  <advance width="608"/>
  <unicode hex="005B"/>
  <outline>
    <contour>
      <point x="562" y="-192" type="line"/>
      <point x="139" y="-192" type="line"/>
      <point x="139" y="1416" type="line"/>
      <point x="562" y="1416" type="line"/>
      <point x="562" y="1257" type="line"/>
      <point x="332" y="1257" type="line"/>
      <point x="332" y="-32" type="line"/>
      <point x="562" y="-32" type="line"/>
    </contour>
  </outline>
</glyph>
<glyph name="backslash" format="1">
  <advance width="719"/>
  <unicode hex="005C"/>
  <outline>
    <contour>
      <point x="214" y="1316" type="line"/>
      <point x="704" y="0" type="line"/>
      <point x="505" y="0" type="line"/>
      <point x="14" y="1316" type="line"/>
    </contour>
  </outline>
</glyph>
<glyph name="bracketright" format="1">
  <advance width="608"/>
  <unicode hex="005D"/>
  <outline>
    <contour>
      <point x="46" y="-32" type="line"/>
      <point x="276" y="-32" type="line"/>
      <point x="276" y="1257" type="line"/>
      <point x="46" y="1257" type="line"/>
      <point x="46" y="1416" type="line"/>
      <point x="468" y="1416" type="line"/>
      <point x="468" y="-192" type="line"/>
      <point x="46" y="-192" type="line"/>
    </contour>
  </outline>
</glyph>
<glyph name="underscore" format="1">
  <advance width="791"/>
  <unicode hex="005F"/>
  <outline>
    <contour>
      <point x="795" y="-287" type="line"/>
      <point x="-4" y="-287" type="line"/>
      <point x="-4" y="-166" type="line"/>
      <point x="795" y="-166" type="line"/>
    </contour>
  </outline>
</glyph>
<glyph name="braceleft" format="1">
  <advance width="712"/>
  <unicode hex="007B"/>
  <outline>
    <contour>
      <point x="280" y="258" type="line" smooth="yes"/>
      <point x="280" y="370"/>
      <point x="200" y="426"/>
      <point x="40" y="426" type="curve"/>
      <point x="40" y="598" type="line"/>
      <point x="203" y="598"/>
      <point x="280" y="651"/>
      <point x="280" y="763" type="curve" smooth="yes"/>
      <point x="280" y="1043" type="line" smooth="yes"/>
      <point x="280" y="1230"/>
      <point x="410" y="1316"/>
      <point x="670" y="1316" type="curve"/>
      <point x="670" y="1152" type="line"/>
      <point x="534" y="1145"/>
      <point x="475" y="1098"/>
      <point x="475" y="999" type="curve" smooth="yes"/>
      <point x="475" y="732" type="line" smooth="yes"/>
      <point x="475" y="613"/>
      <point x="406" y="541"/>
      <point x="269" y="517" type="curve"/>
      <point x="269" y="507" type="line"/>
      <point x="406" y="485"/>
      <point x="475" y="414"/>
      <point x="475" y="293" type="curve" smooth="yes"/>
      <point x="475" y="24" type="line" smooth="yes"/>
      <point x="475" y="-75"/>
      <point x="533" y="-124"/>
      <point x="670" y="-127" type="curve"/>
      <point x="670" y="-292" type="line"/>
      <point x="532" y="-291"/>
      <point x="432" y="-267"/>
      <point x="371" y="-221" type="curve" smooth="yes"/>
      <point x="310" y="-175"/>
      <point x="280" y="-101"/>
      <point x="280" y="2" type="curve" smooth="yes"/>
    </contour>
  </outline>
</glyph>
<glyph name="bar" format="1">
  <advance width="1015"/>
  <unicode hex="007C"/>
  <outline>
    <contour>
      <point x="426" y="1397" type="line"/>
      <point x="588" y="1397" type="line"/>
      <point x="588" y="-433" type="line"/>
      <point x="426" y="-433" type="line"/>
    </contour>
  </outline>
</glyph>
<glyph name="braceright" format="1">
  <advance width="684"/>
  <unicode hex="007D"/>
  <outline>
    <contour>
      <point x="417" y="-18" type="line" smooth="yes"/>
      <point x="417" y="-205"/>
      <point x="304" y="-289"/>
      <point x="40" y="-292" type="curve"/>
      <point x="40" y="-127" type="line"/>
      <point x="155" y="-126"/>
      <point x="221" y="-87"/>
      <point x="221" y="24" type="curve" smooth="yes"/>
      <point x="221" y="260" type="line" smooth="yes"/>
      <point x="221" y="405"/>
      <point x="280" y="482"/>
      <point x="427" y="507" type="curve"/>
      <point x="427" y="517" type="line"/>
      <point x="290" y="541"/>
      <point x="221" y="613"/>
      <point x="221" y="732" type="curve" smooth="yes"/>
      <point x="221" y="999" type="line" smooth="yes"/>
      <point x="221" y="1098"/>
      <point x="172" y="1145"/>
      <point x="40" y="1152" type="curve"/>
      <point x="40" y="1316" type="line"/>
      <point x="174" y="1316"/>
      <point x="270" y="1293"/>
      <point x="329" y="1247" type="curve" smooth="yes"/>
      <point x="388" y="1201"/>
      <point x="417" y="1126"/>
      <point x="417" y="1021" type="curve" smooth="yes"/>
      <point x="417" y="763" type="line" smooth="yes"/>
      <point x="417" y="643"/>
      <point x="494" y="598"/>
      <point x="643" y="598" type="curve"/>
      <point x="643" y="426" type="line"/>
      <point x="496" y="426"/>
      <point x="417" y="379"/>
      <point x="417" y="258" type="curve" smooth="yes"/>
    </contour>
  </outline>
</glyph>
<glyph name="copyright" format="1">
  <advance width="1534"/>
  <unicode hex="00A9"/>
  <outline>
    <contour>
      <point x="804" y="931" type="curve" smooth="yes"/>
      <point x="671" y="931"/>
      <point x="596" y="829"/>
      <point x="596" y="658" type="curve" smooth="yes"/>
      <point x="596" y="482"/>
      <point x="656" y="383"/>
      <point x="804" y="383" type="curve" smooth="yes"/>
      <point x="837" y="383"/>
      <point x="872" y="387"/>
      <point x="910" y="396" type="curve" smooth="yes"/>
      <point x="948" y="405"/>
      <point x="981" y="416"/>
      <point x="1008" y="429" type="curve"/>
      <point x="1008" y="287" type="line"/>
      <point x="939" y="256"/>
      <point x="868" y="241"/>
      <point x="796" y="241" type="curve" smooth="yes"/>
      <point x="560" y="241"/>
      <point x="424" y="391"/>
      <point x="424" y="658" type="curve" smooth="yes"/>
      <point x="424" y="786"/>
      <point x="457" y="887"/>
      <point x="523" y="961" type="curve" smooth="yes"/>
      <point x="589" y="1036"/>
      <point x="681" y="1073"/>
      <point x="798" y="1073" type="curve" smooth="yes"/>
      <point x="881" y="1073"/>
      <point x="963" y="1052"/>
      <point x="1045" y="1010" type="curve"/>
      <point x="986" y="881" type="line"/>
      <point x="923" y="914"/>
      <point x="862" y="931"/>
    </contour>
    <contour>
      <point x="90" y="658" type="curve" smooth="yes"/>
      <point x="90" y="778"/>
      <point x="120" y="890"/>
      <point x="180" y="995" type="curve" smooth="yes"/>
      <point x="240" y="1100"/>
      <point x="322" y="1183"/>
      <point x="427" y="1244" type="curve" smooth="yes"/>
      <point x="532" y="1305"/>
      <point x="646" y="1335"/>
      <point x="767" y="1335" type="curve" smooth="yes"/>
      <point x="887" y="1335"/>
      <point x="999" y="1305"/>
      <point x="1104" y="1245" type="curve" smooth="yes"/>
      <point x="1209" y="1185"/>
      <point x="1292" y="1102"/>
      <point x="1353" y="997" type="curve" smooth="yes"/>
      <point x="1414" y="892"/>
      <point x="1444" y="779"/>
      <point x="1444" y="658" type="curve" smooth="yes"/>
      <point x="1444" y="540"/>
      <point x="1415" y="429"/>
      <point x="1356" y="325" type="curve" smooth="yes"/>
      <point x="1298" y="221"/>
      <point x="1216" y="138"/>
      <point x="1111" y="75" type="curve" smooth="yes"/>
      <point x="1006" y="13"/>
      <point x="892" y="-18"/>
      <point x="767" y="-18" type="curve" smooth="yes"/>
      <point x="642" y="-18"/>
      <point x="527" y="13"/>
      <point x="422" y="75" type="curve" smooth="yes"/>
      <point x="317" y="137"/>
      <point x="236" y="220"/>
      <point x="177" y="324" type="curve" smooth="yes"/>
      <point x="119" y="428"/>
      <point x="90" y="539"/>
    </contour>
    <contour>
      <point x="201" y="658" type="curve" smooth="yes"/>
      <point x="201" y="556"/>
      <point x="226" y="461"/>
      <point x="277" y="374" type="curve" smooth="yes"/>
      <point x="328" y="287"/>
      <point x="397" y="218"/>
      <point x="484" y="167" type="curve"/>
      <point x="572" y="117"/>
      <point x="666" y="92"/>
      <point x="767" y="92" type="curve" smooth="yes"/>
      <point x="869" y="92"/>
      <point x="964" y="118"/>
      <point x="1051" y="169" type="curve" smooth="yes"/>
      <point x="1139" y="220"/>
      <point x="1208" y="289"/>
      <point x="1258" y="376" type="curve" smooth="yes"/>
      <point x="1308" y="463"/>
      <point x="1333" y="557"/>
      <point x="1333" y="658" type="curve" smooth="yes"/>
      <point x="1333" y="759"/>
      <point x="1308" y="853"/>
      <point x="1257" y="941" type="curve" smooth="yes"/>
      <point x="1206" y="1029"/>
      <point x="1137" y="1098"/>
      <point x="1049" y="1148" type="curve" smooth="yes"/>
      <point x="961" y="1199"/>
      <point x="867" y="1224"/>
      <point x="767" y="1224" type="curve" smooth="yes"/>
      <point x="666" y="1224"/>
      <point x="572" y="1199"/>
      <point x="485" y="1149" type="curve" smooth="yes"/>
      <point x="398" y="1100"/>
      <point x="329" y="1031"/>
      <point x="278" y="943" type="curve" smooth="yes"/>
      <point x="227" y="856"/>
      <point x="201" y="761"/>
    </contour>
  </outline>
</glyph>
<glyph name="multiply" format="1">
  <advance width="1052"/>
  <unicode hex="00D7"/>
  <outline>
    <contour>
      <point x="411" y="651" type="line"/>
      <point x="118" y="944" type="line"/>
      <point x="230" y="1058" type="line"/>
      <point x="526" y="765" type="line"/>
      <point x="822" y="1058" type="line"/>
      <point x="934" y="948" type="line"/>
      <point x="638" y="651" type="line"/>
      <point x="931" y="355" type="line"/>
      <point x="820" y="243" type="line"/>
      <point x="524" y="536" type="line"/>
      <point x="232" y="243" type="line"/>
      <point x="120" y="355" type="line"/>
    </contour>
  </outline>
</glyph>
<glyph name="invertedcandrabindu" format="1">
  <advance width="0"/>
  <unicode hex="0900"/>
  <outline>
    <component base="candrabindudeva" xScale="-1.0" yScale="-1.0" xOffset="-714" yOffset="3191"/>
    <contour>
      <point x="-434" y="1283" type="move" name="_top"/>
    </contour>
  </outline>
</glyph>
<glyph name="candrabindudeva" format="1">
  <advance width="0"/>
  <unicode hex="0901"/>
  <outline>
    <contour>
      <point x="-334" y="1874" type="curve" smooth="yes"/>
      <point x="-266" y="1874"/>
      <point x="-234" y="1830"/>
      <point x="-234" y="1775" type="curve" smooth="yes"/>
      <point x="-234" y="1721"/>
      <point x="-266" y="1676"/>
      <point x="-334" y="1676" type="curve" smooth="yes"/>
      <point x="-400" y="1676"/>
      <point x="-433" y="1720"/>
      <point x="-433" y="1775" type="curve" smooth="yes"/>
      <point x="-433" y="1830"/>
      <point x="-400" y="1874"/>
    </contour>
    <component base="ecandravowelsigndeva"/>
    <contour>
      <point x="-434" y="1283" type="move" name="_top"/>
    </contour>
  </outline>
</glyph>
<glyph name="ideva" format="1">
  <advance width="1052"/>
  <unicode hex="0907"/>
  <outline>
    <contour>
      <point x="517" y="132" type="line"/>
      <point x="788" y="-159" type="line"/>
      <point x="656" y="-250" type="line"/>
      <point x="338" y="98" type="line"/>
      <point x="433" y="28" type="line"/>
      <point x="202" y="28"/>
      <point x="120" y="110"/>
      <point x="120" y="184" type="curve" smooth="yes"/>
      <point x="120" y="248"/>
      <point x="174" y="305"/>
      <point x="252" y="305" type="curve" smooth="yes"/>
      <point x="329" y="305"/>
      <point x="400" y="267"/>
      <point x="502" y="156" type="curve"/>
    </contour>
    <contour>
      <point x="643" y="1167" type="line"/>
      <point x="850" y="1167" type="line"/>
      <point x="850" y="801" type="line"/>
      <point x="420" y="801" type="line"/>
      <point x="325" y="801"/>
      <point x="280" y="751"/>
      <point x="280" y="691" type="curve" smooth="yes"/>
      <point x="280" y="630"/>
      <point x="327" y="580"/>
      <point x="410" y="550" type="curve"/>
      <point x="317" y="555" type="line"/>
      <point x="402" y="597"/>
      <point x="500" y="629"/>
      <point x="619" y="629" type="curve" smooth="yes"/>
      <point x="824" y="629"/>
      <point x="947" y="515"/>
      <point x="947" y="360" type="curve" smooth="yes"/>
      <point x="947" y="187"/>
      <point x="776" y="32"/>
      <point x="466" y="32" type="curve"/>
      <point x="421" y="190" type="line"/>
      <point x="655" y="190"/>
      <point x="759" y="279"/>
      <point x="759" y="361" type="curve" smooth="yes"/>
      <point x="759" y="427"/>
      <point x="706" y="469"/>
      <point x="605" y="469" type="curve" smooth="yes"/>
      <point x="532" y="469"/>
      <point x="442" y="435"/>
      <point x="373" y="396" type="curve"/>
      <point x="361" y="396" type="line"/>
      <point x="173" y="484"/>
      <point x="93" y="590"/>
      <point x="93" y="718" type="curve" smooth="yes"/>
      <point x="93" y="841"/>
      <point x="180" y="950"/>
      <point x="398" y="950" type="curve" smooth="yes"/>
      <point x="695" y="950" type="line"/>
      <point x="643" y="897" type="line"/>
    </contour>
    <contour>
      <point x="1082" y="1136" type="line"/>
      <point x="-30" y="1136" type="line"/>
      <point x="-30" y="1283" type="line"/>
      <point x="1082" y="1283" type="line"/>
    </contour>
  </outline>
</glyph>
<glyph name="uudeva" format="1">
  <advance width="1567"/>
  <unicode hex="090A"/>
  <outline>
    <contour>
      <point x="855" y="438" type="curve"/>
      <point x="760" y="631" type="line"/>
      <point x="848" y="692"/>
      <point x="974" y="750"/>
      <point x="1097" y="750" type="curve" smooth="yes"/>
      <point x="1326" y="750"/>
      <point x="1467" y="611"/>
      <point x="1467" y="408" type="curve" smooth="yes"/>
      <point x="1467" y="281"/>
      <point x="1417" y="155"/>
      <point x="1339" y="50" type="curve"/>
      <point x="1160" y="121" type="line"/>
      <point x="1240" y="231"/>
      <point x="1286" y="334"/>
      <point x="1286" y="429" type="curve" smooth="yes"/>
      <point x="1286" y="520"/>
      <point x="1228" y="582"/>
      <point x="1125" y="582" type="curve" smooth="yes"/>
      <point x="1029" y="582"/>
      <point x="933" y="526"/>
    </contour>
    <contour>
      <point x="1081" y="1136" type="line"/>
      <point x="1077" y="1283" type="line"/>
      <point x="1597" y="1283" type="line"/>
      <point x="1597" y="1136" type="line"/>
    </contour>
    <component base="udeva"/>
    <contour>
      <point x="569" y="1283" type="move" name="top"/>
    </contour>
  </outline>
</glyph>
<glyph name="rvocalicdeva" format="1">
  <advance width="1624"/>
  <unicode hex="090B"/>
  <outline>
    <contour>
      <point x="1076" y="1136" type="line"/>
      <point x="1076" y="1283" type="line"/>
      <point x="1654" y="1283" type="line"/>
      <point x="1654" y="1136" type="line"/>
    </contour>
    <contour>
      <point x="870" y="690" type="line"/>
      <point x="923" y="672"/>
      <point x="976" y="662"/>
      <point x="1033" y="662" type="curve" smooth="yes"/>
      <point x="1123" y="662"/>
      <point x="1203" y="689"/>
      <point x="1281" y="748" type="curve"/>
      <point x="1205" y="668" type="line"/>
      <point x="1171" y="713"/>
      <point x="1158" y="752"/>
      <point x="1158" y="787" type="curve" smooth="yes"/>
      <point x="1158" y="829"/>
      <point x="1194" y="870"/>
      <point x="1281" y="869" type="curve" smooth="yes"/>
      <point x="1400" y="869"/>
      <point x="1495" y="826"/>
      <point x="1495" y="750" type="curve" smooth="yes"/>
      <point x="1495" y="643"/>
      <point x="1298" y="489"/>
      <point x="1041" y="489" type="curve" smooth="yes"/>
      <point x="963" y="489"/>
      <point x="889" y="503"/>
      <point x="805" y="525" type="curve"/>
    </contour>
    <contour>
      <point x="1235" y="612" type="curve"/>
      <point x="1380" y="695" type="line"/>
      <point x="1473" y="575"/>
      <point x="1538" y="440"/>
      <point x="1538" y="331" type="curve" smooth="yes"/>
      <point x="1538" y="180"/>
      <point x="1442" y="69"/>
      <point x="1240" y="35" type="curve"/>
      <point x="1147" y="173" type="line"/>
      <point x="1303" y="210"/>
      <point x="1357" y="270"/>
      <point x="1357" y="365" type="curve" smooth="yes"/>
      <point x="1357" y="432"/>
      <point x="1310" y="521"/>
    </contour>
    <component base="taradeva"/>
    <contour>
      <point x="833" y="1261" type="move" name="mark0"/>
    </contour>
  </outline>
</glyph>
<glyph name="gadeva" format="1">
  <advance width="1337"/>
  <unicode hex="0917"/>
  <outline>
    <contour>
      <point x="505" y="1172" type="line"/>
      <point x="505" y="451" type="line"/>
      <point x="505" y="390"/>
      <point x="481" y="356"/>
      <point x="422" y="356" type="curve" smooth="yes"/>
      <point x="298" y="356"/>
      <point x="116" y="535"/>
      <point x="116" y="625" type="curve" smooth="yes"/>
      <point x="116" y="667"/>
      <point x="139" y="696"/>
      <point x="200" y="696" type="curve" smooth="yes"/>
      <point x="334" y="696" type="line"/>
      <point x="298" y="660" type="line"/>
      <point x="298" y="1172" type="line"/>
    </contour>
    <contour>
      <point x="906" y="1169" type="line"/>
      <point x="1112" y="1169" type="line"/>
      <point x="1112" y="0" type="line"/>
      <point x="906" y="0" type="line"/>
    </contour>
    <contour>
      <point x="1367" y="1136" type="line"/>
      <point x="-30" y="1136" type="line"/>
      <point x="-30" y="1283" type="line"/>
      <point x="1367" y="1283" type="line"/>
    </contour>
    <contour>
      <point x="906" y="1283" type="move" name="top"/>
    </contour>
  </outline>
</glyph>
<glyph name="ghadeva" format="1">
  <advance width="1408"/>
  <unicode hex="0918"/>
  <outline>
    <contour>
      <point x="769" y="699" type="line"/>
      <point x="752" y="699" type="line"/>
      <point x="557" y="699"/>
      <point x="482" y="605"/>
      <point x="482" y="510" type="curve" smooth="yes"/>
      <point x="482" y="419"/>
      <point x="556" y="353"/>
      <point x="668" y="353" type="curve" smooth="yes"/>
      <point x="807" y="353"/>
      <point x="940" y="422"/>
      <point x="1023" y="550" type="curve"/>
      <point x="1023" y="291" type="line"/>
      <point x="944" y="221"/>
      <point x="839" y="174"/>
      <point x="691" y="174" type="curve" smooth="yes"/>
      <point x="444" y="174"/>
      <point x="291" y="338"/>
      <point x="291" y="530" type="curve" smooth="yes"/>
      <point x="291" y="697"/>
      <point x="410" y="865"/>
      <point x="700" y="865" type="curve" smooth="yes"/>
      <point x="738" y="865" type="line"/>
    </contour>
    <contour>
      <point x="400" y="711" type="line"/>
      <point x="197" y="771"/>
      <point x="101" y="903"/>
      <point x="101" y="1052" type="curve" smooth="yes"/>
      <point x="101" y="1115"/>
      <point x="116" y="1177"/>
      <point x="154" y="1231" type="curve"/>
      <point x="360" y="1187" type="line"/>
      <point x="320" y="1140"/>
      <point x="307" y="1089"/>
      <point x="307" y="1034" type="curve" smooth="yes"/>
      <point x="307" y="948"/>
      <point x="380" y="856"/>
      <point x="560" y="831" type="curve"/>
    </contour>
    <contour>
      <point x="-30" y="1136" type="line"/>
      <point x="-30" y="1283" type="line"/>
      <point x="1438" y="1283" type="line"/>
      <point x="1438" y="1136" type="line"/>
    </contour>
    <contour>
      <point x="977" y="1169" type="line"/>
      <point x="1184" y="1169" type="line"/>
      <point x="1184" y="0" type="line"/>
      <point x="977" y="0" type="line"/>
    </contour>
    <contour>
      <point x="977" y="1283" type="move" name="top"/>
    </contour>
  </outline>
</glyph>
<glyph name="ngadeva" format="1">
  <advance width="1353"/>
  <unicode hex="0919"/>
  <outline>
    <contour>
      <point x="1118" y="1136" type="line"/>
      <point x="1118" y="1283" type="line"/>
      <point x="1383" y="1283" type="line"/>
      <point x="1383" y="1136" type="line"/>
    </contour>
    <contour>
      <point x="1191" y="813" type="curve" smooth="yes"/>
      <point x="1279" y="813"/>
      <point x="1313" y="759"/>
      <point x="1313" y="695" type="curve" smooth="yes"/>
      <point x="1313" y="632"/>
      <point x="1275" y="578"/>
      <point x="1191" y="578" type="curve" smooth="yes"/>
      <point x="1103" y="578"/>
      <point x="1069" y="632"/>
      <point x="1069" y="695" type="curve" smooth="yes"/>
      <point x="1069" y="758"/>
      <point x="1104" y="813"/>
    </contour>
    <component base="ddadeva"/>
    <contour>
      <point x="524" y="33" type="move" name="btm"/>
    </contour>
    <contour>
      <point x="739" y="1283" type="move" name="top"/>
    </contour>
  </outline>
</glyph>
<glyph name="chadeva" format="1">
  <advance width="1513"/>
  <unicode hex="091B"/>
  <outline>
    <contour>
      <point x="651" y="783" type="curve"/>
      <point x="704" y="618" type="line"/>
      <point x="702" y="618"/>
      <point x="699" y="618"/>
      <point x="698" y="618" type="curve" smooth="yes"/>
      <point x="480" y="611"/>
      <point x="414" y="510"/>
      <point x="414" y="409" type="curve" smooth="yes"/>
      <point x="414" y="297"/>
      <point x="512" y="208"/>
      <point x="689" y="208" type="curve" smooth="yes"/>
      <point x="980" y="208"/>
      <point x="1243" y="444"/>
      <point x="1243" y="670" type="curve" smooth="yes"/>
      <point x="1243" y="774"/>
      <point x="1183" y="830"/>
      <point x="1108" y="830" type="curve" smooth="yes"/>
      <point x="1038" y="830"/>
      <point x="985" y="776"/>
      <point x="985" y="698" type="curve" smooth="yes"/>
      <point x="985" y="598"/>
      <point x="1057" y="501"/>
      <point x="1245" y="386" type="curve"/>
      <point x="1139" y="272" type="line"/>
      <point x="911" y="412"/>
      <point x="808" y="568"/>
      <point x="808" y="724" type="curve" smooth="yes"/>
      <point x="808" y="869"/>
      <point x="920" y="990"/>
      <point x="1097" y="990" type="curve" smooth="yes"/>
      <point x="1284" y="990"/>
      <point x="1416" y="869"/>
      <point x="1416" y="653" type="curve" smooth="yes"/>
      <point x="1416" y="375"/>
      <point x="1112" y="37"/>
      <point x="695" y="37" type="curve" smooth="yes"/>
      <point x="366" y="37"/>
      <point x="206" y="227"/>
      <point x="206" y="436" type="curve" smooth="yes"/>
      <point x="206" y="613"/>
      <point x="345" y="777"/>
      <point x="646" y="783" type="curve" smooth="yes"/>
      <point x="648" y="783"/>
      <point x="649" y="783"/>
    </contour>
    <contour>
      <point x="544" y="747" type="curve"/>
      <point x="395" y="631" type="line"/>
      <point x="187" y="697"/>
      <point x="103" y="816"/>
      <point x="103" y="967" type="curve" smooth="yes"/>
      <point x="103" y="1095"/>
      <point x="213" y="1240"/>
      <point x="455" y="1265" type="curve"/>
      <point x="547" y="1156" type="line"/>
      <point x="376" y="1133"/>
      <point x="309" y="1025"/>
      <point x="309" y="944" type="curve" smooth="yes"/>
      <point x="309" y="851"/>
      <point x="378" y="773"/>
    </contour>
    <contour>
      <point x="1543" y="1136" type="line"/>
      <point x="-30" y="1136" type="line"/>
      <point x="-30" y="1283" type="line"/>
      <point x="1543" y="1283" type="line"/>
    </contour>
    <contour>
      <point x="1082" y="1189" type="line"/>
      <point x="1288" y="1189" type="line"/>
      <point x="1288" y="921" type="line"/>
      <point x="1082" y="921" type="line"/>
    </contour>
    <contour>
      <point x="603" y="60" type="move" name="btm"/>
    </contour>
    <contour>
      <point x="986" y="1283" type="move" name="top"/>
    </contour>
  </outline>
</glyph>
<glyph name="nyadeva" format="1">
  <advance width="1716"/>
  <unicode hex="091E"/>
  <outline>
    <contour>
      <point x="856" y="672" type="line"/>
      <point x="928" y="656"/>
      <point x="994" y="647"/>
      <point x="1063" y="647" type="curve" smooth="yes"/>
      <point x="1162" y="647"/>
      <point x="1279" y="676"/>
      <point x="1348" y="716" type="curve"/>
      <point x="1348" y="512" type="line"/>
      <point x="1295" y="488"/>
      <point x="1199" y="470"/>
      <point x="1102" y="470" type="curve" smooth="yes"/>
      <point x="1018" y="470"/>
      <point x="916" y="485"/>
      <point x="856" y="502" type="curve"/>
    </contour>
    <contour>
      <point x="-30" y="1136" type="line"/>
      <point x="-30" y="1283" type="line"/>
      <point x="1746" y="1283" type="line"/>
      <point x="1746" y="1136" type="line"/>
    </contour>
    <contour>
      <point x="1285" y="1169" type="line"/>
      <point x="1491" y="1169" type="line"/>
      <point x="1491" y="0" type="line"/>
      <point x="1285" y="0" type="line"/>
    </contour>
    <contour>
      <point x="952" y="539" type="curve" smooth="yes"/>
      <point x="952" y="310"/>
      <point x="802" y="167"/>
      <point x="586" y="167" type="curve" smooth="yes"/>
      <point x="398" y="167"/>
      <point x="231" y="246"/>
      <point x="39" y="438" type="curve"/>
      <point x="115" y="592" type="line"/>
      <point x="294" y="408"/>
      <point x="419" y="350"/>
      <point x="542" y="350" type="curve" smooth="yes"/>
      <point x="684" y="350"/>
      <point x="769" y="436"/>
      <point x="768" y="558" type="curve" smooth="yes"/>
      <point x="768" y="676"/>
      <point x="672" y="762"/>
      <point x="547" y="762" type="curve" smooth="yes"/>
      <point x="464" y="762"/>
      <point x="387" y="728"/>
      <point x="324" y="677" type="curve"/>
      <point x="239" y="832" type="line"/>
      <point x="313" y="888"/>
      <point x="426" y="938"/>
      <point x="540" y="938" type="curve" smooth="yes"/>
      <point x="772" y="938"/>
      <point x="952" y="775"/>
    </contour>
    <contour>
      <point x="1285" y="1283" type="move" name="top"/>
    </contour>
  </outline>
</glyph>
<glyph name="ttadeva" format="1">
  <advance width="1162"/>
  <unicode hex="091F"/>
  <outline>
    <contour>
      <point x="726" y="1174" type="line"/>
      <point x="932" y="1174" type="line"/>
      <point x="932" y="737" type="line"/>
      <point x="634" y="737" type="line"/>
      <point x="407" y="737"/>
      <point x="321" y="623"/>
      <point x="321" y="483" type="curve" smooth="yes"/>
      <point x="321" y="334"/>
      <point x="442" y="231"/>
      <point x="640" y="231" type="curve" smooth="yes"/>
      <point x="757" y="231"/>
      <point x="852" y="251"/>
      <point x="980" y="300" type="curve"/>
      <point x="1023" y="121" type="line"/>
      <point x="902" y="75"/>
      <point x="804" y="56"/>
      <point x="665" y="56" type="curve" smooth="yes"/>
      <point x="323" y="56"/>
      <point x="117" y="260"/>
      <point x="117" y="511" type="curve" smooth="yes"/>
      <point x="117" y="738"/>
      <point x="270" y="896"/>
      <point x="569" y="896" type="curve" smooth="yes"/>
      <point x="765" y="896" type="line"/>
      <point x="726" y="857" type="line"/>
    </contour>
    <contour>
      <point x="1192" y="1136" type="line"/>
      <point x="-30" y="1136" type="line"/>
      <point x="-30" y="1283" type="line"/>
      <point x="1192" y="1283" type="line"/>
    </contour>
    <contour>
      <point x="547" y="65" type="move" name="btm"/>
    </contour>
    <contour>
      <point x="711" y="1283" type="move" name="top"/>
    </contour>
  </outline>
</glyph>
<glyph name="tthadeva" format="1">
  <advance width="1280"/>
  <unicode hex="0920"/>
  <outline>
    <contour>
      <point x="995" y="490" type="curve" smooth="yes"/>
      <point x="995" y="581"/>
      <point x="953" y="671"/>
      <point x="872" y="738" type="curve"/>
      <point x="643" y="738" type="line"/>
      <point x="402" y="738"/>
      <point x="306" y="630"/>
      <point x="306" y="487" type="curve" smooth="yes"/>
      <point x="306" y="337"/>
      <point x="432" y="216"/>
      <point x="641" y="216" type="curve" smooth="yes"/>
      <point x="878" y="216"/>
      <point x="995" y="337"/>
    </contour>
    <contour>
      <point x="1310" y="1136" type="line"/>
      <point x="-30" y="1136" type="line"/>
      <point x="-30" y="1283" type="line"/>
      <point x="1310" y="1283" type="line"/>
    </contour>
    <contour>
      <point x="839" y="1167" type="line"/>
      <point x="1045" y="1167" type="line"/>
      <point x="1045" y="769" type="line"/>
      <point x="982" y="865" type="line"/>
      <point x="1087" y="782"/>
      <point x="1181" y="631"/>
      <point x="1182" y="468" type="curve" smooth="yes"/>
      <point x="1184" y="240"/>
      <point x="1013" y="40"/>
      <point x="668" y="40" type="curve" smooth="yes"/>
      <point x="318" y="40"/>
      <point x="108" y="254"/>
      <point x="108" y="515" type="curve" smooth="yes"/>
      <point x="108" y="742"/>
      <point x="280" y="896"/>
      <point x="565" y="896" type="curve" smooth="yes"/>
      <point x="888" y="896" type="line"/>
      <point x="839" y="853" type="line"/>
    </contour>
    <contour>
      <point x="547" y="65" type="move" name="btm"/>
    </contour>
    <contour>
      <point x="789" y="1283" type="move" name="top"/>
    </contour>
  </outline>
</glyph>
<glyph name="ddhadeva" format="1">
  <advance width="1201"/>
  <unicode hex="0922"/>
  <outline>
    <contour>
      <point x="1231" y="1136" type="line"/>
      <point x="-30" y="1136" type="line"/>
      <point x="-30" y="1283" type="line"/>
      <point x="1231" y="1283" type="line"/>
    </contour>
    <contour>
      <point x="750" y="1166" type="line"/>
      <point x="957" y="1166" type="line"/>
      <point x="957" y="741" type="line"/>
      <point x="636" y="741" type="line"/>
      <point x="384" y="741"/>
      <point x="296" y="621"/>
      <point x="296" y="475" type="curve" smooth="yes"/>
      <point x="296" y="314"/>
      <point x="466" y="165"/>
      <point x="704" y="165" type="curve" smooth="yes"/>
      <point x="885" y="165"/>
      <point x="970" y="234"/>
      <point x="970" y="308" type="curve" smooth="yes"/>
      <point x="970" y="367"/>
      <point x="924" y="410"/>
      <point x="835" y="410" type="curve" smooth="yes"/>
      <point x="738" y="410"/>
      <point x="677" y="343"/>
      <point x="677" y="268" type="curve" smooth="yes"/>
      <point x="677" y="209"/>
      <point x="697" y="159"/>
      <point x="728" y="118" type="curve"/>
      <point x="566" y="102" type="line"/>
      <point x="525" y="159"/>
      <point x="505" y="221"/>
      <point x="505" y="297" type="curve" smooth="yes"/>
      <point x="505" y="433"/>
      <point x="612" y="551"/>
      <point x="812" y="551" type="curve" smooth="yes"/>
      <point x="1016" y="551"/>
      <point x="1136" y="435"/>
      <point x="1136" y="299" type="curve" smooth="yes"/>
      <point x="1136" y="147"/>
      <point x="1004" y="27"/>
      <point x="725" y="27" type="curve" smooth="yes"/>
      <point x="359" y="27"/>
      <point x="105" y="255"/>
      <point x="105" y="509" type="curve" smooth="yes"/>
      <point x="105" y="722"/>
      <point x="244" y="896"/>
      <point x="566" y="896" type="curve" smooth="yes"/>
      <point x="791" y="896" type="line"/>
      <point x="750" y="862" type="line"/>
    </contour>
    <contour>
      <point x="563" y="60" type="move" name="btm"/>
    </contour>
    <contour>
      <point x="739" y="1283" type="move" name="top"/>
    </contour>
  </outline>
</glyph>
<glyph name="tadeva" format="1">
  <advance width="1233"/>
  <unicode hex="0924"/>
  <outline>
    <contour>
      <point x="857" y="896" type="line"/>
      <point x="857" y="721" type="line"/>
      <point x="584" y="721" type="line"/>
      <point x="398" y="721"/>
      <point x="316" y="623"/>
      <point x="316" y="489" type="curve" smooth="yes"/>
      <point x="316" y="364"/>
      <point x="378" y="218"/>
      <point x="502" y="41" type="curve"/>
      <point x="328" y="-17" type="line"/>
      <point x="195" y="171"/>
      <point x="117" y="377"/>
      <point x="118" y="539" type="curve" smooth="yes"/>
      <point x="120" y="740"/>
      <point x="249" y="896"/>
      <point x="537" y="896" type="curve" smooth="yes"/>
    </contour>
    <contour>
      <point x="-30" y="1136" type="line"/>
      <point x="-30" y="1283" type="line"/>
      <point x="1263" y="1283" type="line"/>
      <point x="1263" y="1136" type="line"/>
    </contour>
    <contour>
      <point x="802" y="1169" type="line"/>
      <point x="1008" y="1169" type="line"/>
      <point x="1008" y="0" type="line"/>
      <point x="802" y="0" type="line"/>
    </contour>
    <contour>
      <point x="802" y="1283" type="move" name="top"/>
    </contour>
  </outline>
</glyph>
<glyph name="thadeva" format="1">
  <advance width="1375"/>
  <unicode hex="0925"/>
  <outline>
    <contour>
      <point x="704" y="967" type="curve" smooth="yes"/>
      <point x="704" y="764"/>
      <point x="546" y="631"/>
      <point x="325" y="566" type="curve"/>
      <point x="332" y="655" type="line"/>
      <point x="409" y="531"/>
      <point x="531" y="463"/>
      <point x="650" y="463" type="curve" smooth="yes"/>
      <point x="787" y="463"/>
      <point x="916" y="528"/>
      <point x="998" y="675" type="curve"/>
      <point x="998" y="397" type="line"/>
      <point x="917" y="324"/>
      <point x="827" y="290"/>
      <point x="697" y="290" type="curve" smooth="yes"/>
      <point x="484" y="290"/>
      <point x="258" y="425"/>
      <point x="132" y="664" type="curve"/>
      <point x="132" y="672" type="line"/>
      <point x="386" y="738"/>
      <point x="527" y="836"/>
      <point x="527" y="987" type="curve" smooth="yes"/>
      <point x="527" y="1092"/>
      <point x="456" y="1165"/>
      <point x="366" y="1165" type="curve" smooth="yes"/>
      <point x="291" y="1165"/>
      <point x="254" y="1116"/>
      <point x="254" y="1050" type="curve" smooth="yes"/>
      <point x="254" y="972"/>
      <point x="333" y="897"/>
      <point x="518" y="872" type="curve"/>
      <point x="448" y="759" type="line"/>
      <point x="191" y="795"/>
      <point x="71" y="932"/>
      <point x="71" y="1081" type="curve" smooth="yes"/>
      <point x="71" y="1206"/>
      <point x="163" y="1320"/>
      <point x="340" y="1320" type="curve" smooth="yes"/>
      <point x="557" y="1320"/>
      <point x="704" y="1167"/>
    </contour>
    <contour>
      <point x="944" y="1169" type="line"/>
      <point x="1150" y="1169" type="line"/>
      <point x="1150" y="0" type="line"/>
      <point x="944" y="0" type="line"/>
    </contour>
    <contour>
      <point x="1405" y="1136" type="line"/>
      <point x="843" y="1136" type="line"/>
      <point x="843" y="1283" type="line"/>
      <point x="1405" y="1283" type="line"/>
    </contour>
    <contour>
      <point x="944" y="1283" type="move" name="top"/>
    </contour>
  </outline>
</glyph>
<glyph name="dhadeva" format="1">
  <advance width="1403"/>
  <unicode hex="0927"/>
  <outline>
    <contour>
      <point x="764" y="687" type="line"/>
      <point x="746" y="687" type="line"/>
      <point x="556" y="687"/>
      <point x="477" y="602"/>
      <point x="477" y="509" type="curve" smooth="yes"/>
      <point x="477" y="419"/>
      <point x="552" y="353"/>
      <point x="664" y="353" type="curve" smooth="yes"/>
      <point x="809" y="353"/>
      <point x="939" y="428"/>
      <point x="1018" y="550" type="curve"/>
      <point x="1018" y="291" type="line"/>
      <point x="937" y="220"/>
      <point x="829" y="174"/>
      <point x="687" y="174" type="curve" smooth="yes"/>
      <point x="439" y="174"/>
      <point x="286" y="337"/>
      <point x="286" y="531" type="curve" smooth="yes"/>
      <point x="286" y="696"/>
      <point x="413" y="853"/>
      <point x="696" y="853" type="curve" smooth="yes"/>
      <point x="733" y="853" type="line"/>
    </contour>
    <contour>
      <point x="972" y="1168" type="line"/>
      <point x="1179" y="1168" type="line"/>
      <point x="1179" y="0" type="line"/>
      <point x="972" y="0" type="line"/>
    </contour>
    <contour>
      <point x="1433" y="1136" type="line"/>
      <point x="829" y="1136" type="line"/>
      <point x="829" y="1283" type="line"/>
      <point x="1433" y="1283" type="line"/>
    </contour>
    <contour>
      <point x="382" y="692" type="line"/>
      <point x="263" y="717"/>
      <point x="166" y="764"/>
      <point x="100" y="830" type="curve" smooth="yes"/>
      <point x="34" y="896"/>
      <point x="-3" y="981"/>
      <point x="-3" y="1077" type="curve" smooth="yes"/>
      <point x="-3" y="1234"/>
      <point x="109" y="1361"/>
      <point x="299" y="1361" type="curve" smooth="yes"/>
      <point x="490" y="1361"/>
      <point x="594" y="1244"/>
      <point x="594" y="1103" type="curve" smooth="yes"/>
      <point x="594" y="955"/>
      <point x="451" y="833"/>
      <point x="249" y="833" type="curve"/>
      <point x="173" y="954" type="line"/>
      <point x="347" y="954"/>
      <point x="428" y="1026"/>
      <point x="428" y="1113" type="curve" smooth="yes"/>
      <point x="428" y="1170"/>
      <point x="390" y="1211"/>
      <point x="320" y="1211" type="curve" smooth="yes"/>
      <point x="234" y="1211"/>
      <point x="172" y="1140"/>
      <point x="172" y="1059" type="curve" smooth="yes"/>
      <point x="172" y="1011"/>
      <point x="190" y="967"/>
      <point x="227" y="930" type="curve" smooth="yes"/>
      <point x="287" y="870"/>
      <point x="397" y="828"/>
      <point x="569" y="815" type="curve"/>
    </contour>
    <contour>
      <point x="972" y="1283" type="move" name="top"/>
    </contour>
  </outline>
</glyph>
<glyph name="bhadeva" format="1">
  <advance width="1451"/>
  <unicode hex="092D"/>
  <outline>
    <contour>
      <point x="1019" y="1169" type="line"/>
      <point x="1226" y="1169" type="line"/>
      <point x="1226" y="0" type="line"/>
      <point x="1019" y="0" type="line"/>
    </contour>
    <contour>
      <point x="1481" y="1136" type="line"/>
      <point x="877" y="1136" type="line"/>
      <point x="877" y="1283" type="line"/>
      <point x="1481" y="1283" type="line"/>
    </contour>
    <contour>
      <point x="461" y="668" type="line"/>
      <point x="429" y="638" type="line"/>
      <point x="429" y="1017" type="line"/>
      <point x="429" y="1122"/>
      <point x="366" y="1192"/>
      <point x="282" y="1192" type="curve" smooth="yes"/>
      <point x="204" y="1192"/>
      <point x="168" y="1134"/>
      <point x="168" y="1083" type="curve" smooth="yes"/>
      <point x="168" y="996"/>
      <point x="243" y="930"/>
      <point x="458" y="929" type="curve"/>
      <point x="444" y="775" type="line"/>
      <point x="132" y="784"/>
      <point x="-16" y="921"/>
      <point x="-16" y="1106" type="curve" smooth="yes"/>
      <point x="-16" y="1228"/>
      <point x="71" y="1355"/>
      <point x="265" y="1355" type="curve" smooth="yes"/>
      <point x="488" y="1355"/>
      <point x="627" y="1203"/>
      <point x="627" y="992" type="curve" smooth="yes"/>
      <point x="627" y="634" type="line"/>
      <point x="594" y="668" type="line"/>
      <point x="1063" y="668" type="line"/>
      <point x="1063" y="494" type="line"/>
      <point x="588" y="494" type="line"/>
      <point x="627" y="528" type="line"/>
      <point x="627" y="395" type="line"/>
      <point x="627" y="340"/>
      <point x="606" y="307"/>
      <point x="554" y="307" type="curve" smooth="yes"/>
      <point x="505" y="307"/>
      <point x="433" y="343"/>
      <point x="375" y="401" type="curve" smooth="yes"/>
      <point x="314" y="461"/>
      <point x="270" y="537"/>
      <point x="270" y="592" type="curve" smooth="yes"/>
      <point x="270" y="637"/>
      <point x="297" y="668"/>
      <point x="355" y="668" type="curve" smooth="yes"/>
    </contour>
    <contour>
      <point x="1019" y="1283" type="move" name="top"/>
    </contour>
  </outline>
</glyph>
<glyph name="rradeva" format="1">
  <advance width="905"/>
  <unicode hex="0931"/>
  <outline>
    <component base="radeva"/>
    <component base="nuktadeva" xOffset="986" yOffset="315"/>
    <contour>
      <point x="418" y="11" type="move" name="btm"/>
    </contour>
    <contour>
      <point x="521" y="1283" type="move" name="top"/>
    </contour>
  </outline>
</glyph>
<glyph name="lladeva" format="1">
  <advance width="1598"/>
  <unicode hex="0933"/>
  <outline>
    <contour>
      <point x="1628" y="1136" type="line"/>
      <point x="-30" y="1136" type="line"/>
      <point x="-30" y="1283" type="line"/>
      <point x="1628" y="1283" type="line"/>
    </contour>
    <contour>
      <point x="700" y="545" type="curve" smooth="yes"/>
      <point x="793" y="762"/>
      <point x="902" y="903"/>
      <point x="1136" y="903" type="curve" smooth="yes"/>
      <point x="1383" y="903"/>
      <point x="1509" y="706"/>
      <point x="1509" y="494" type="curve" smooth="yes"/>
      <point x="1509" y="271"/>
      <point x="1358" y="112"/>
      <point x="1145" y="112" type="curve" smooth="yes"/>
      <point x="978" y="112"/>
      <point x="831" y="178"/>
      <point x="675" y="306" type="curve"/>
      <point x="754" y="441" type="line"/>
      <point x="871" y="333"/>
      <point x="1001" y="276"/>
      <point x="1109" y="276" type="curve" smooth="yes"/>
      <point x="1238" y="276"/>
      <point x="1326" y="371"/>
      <point x="1326" y="520" type="curve" smooth="yes"/>
      <point x="1326" y="642"/>
      <point x="1245" y="727"/>
      <point x="1150" y="727" type="curve" smooth="yes"/>
      <point x="1044" y="727"/>
      <point x="955" y="640"/>
      <point x="892" y="487" type="curve" smooth="yes"/>
      <point x="800" y="264"/>
      <point x="669" y="107"/>
      <point x="461" y="107" type="curve" smooth="yes"/>
      <point x="240" y="107"/>
      <point x="72" y="263"/>
      <point x="72" y="509" type="curve" smooth="yes"/>
      <point x="72" y="728"/>
      <point x="222" y="897"/>
      <point x="442" y="897" type="curve" smooth="yes"/>
      <point x="603" y="897"/>
      <point x="743" y="836"/>
      <point x="891" y="714" type="curve"/>
      <point x="827" y="578" type="line"/>
      <point x="695" y="682"/>
      <point x="580" y="729"/>
      <point x="477" y="729" type="curve" smooth="yes"/>
      <point x="352" y="729"/>
      <point x="261" y="634"/>
      <point x="261" y="482" type="curve" smooth="yes"/>
      <point x="261" y="350"/>
      <point x="344" y="275"/>
      <point x="432" y="275" type="curve" smooth="yes"/>
      <point x="535" y="275"/>
      <point x="623" y="364"/>
    </contour>
    <contour>
      <point x="1373" y="809" type="line"/>
      <point x="1166" y="812" type="line"/>
      <point x="1166" y="1160" type="line"/>
      <point x="1373" y="1160" type="line"/>
    </contour>
    <contour>
      <point x="1035" y="18" type="move" name="btm"/>
    </contour>
    <contour>
      <point x="1114" y="1283" type="move" name="top"/>
    </contour>
  </outline>
</glyph>
<glyph name="shadeva" format="1">
  <advance width="1561"/>
  <unicode hex="0936"/>
  <outline>
    <contour>
      <point x="489" y="469" type="line"/>
      <point x="831" y="94" type="line"/>
      <point x="704" y="-19" type="line"/>
      <point x="339" y="377" type="line"/>
    </contour>
    <contour>
      <point x="243" y="308" type="curve" smooth="yes"/>
      <point x="153" y="308"/>
      <point x="118" y="369"/>
      <point x="118" y="444" type="curve" smooth="yes"/>
      <point x="118" y="543"/>
      <point x="199" y="644"/>
      <point x="281" y="644" type="curve" smooth="yes"/>
      <point x="345" y="644"/>
      <point x="389" y="613"/>
      <point x="467" y="519" type="curve"/>
      <point x="349" y="511" type="line"/>
      <point x="552" y="552"/>
      <point x="713" y="701"/>
      <point x="713" y="906" type="curve" smooth="yes"/>
      <point x="713" y="1058"/>
      <point x="589" y="1166"/>
      <point x="464" y="1166" type="curve" smooth="yes"/>
      <point x="375" y="1166"/>
      <point x="333" y="1113"/>
      <point x="335" y="1055" type="curve" smooth="yes"/>
      <point x="337" y="967"/>
      <point x="443" y="869"/>
      <point x="751" y="871" type="curve"/>
      <point x="706" y="728" type="line"/>
      <point x="334" y="728"/>
      <point x="148" y="887"/>
      <point x="148" y="1080" type="curve" smooth="yes"/>
      <point x="148" y="1207"/>
      <point x="248" y="1333"/>
      <point x="442" y="1333" type="curve" smooth="yes"/>
      <point x="687" y="1333"/>
      <point x="887" y="1156"/>
      <point x="887" y="891" type="curve" smooth="yes"/>
      <point x="887" y="559"/>
      <point x="547" y="308"/>
    </contour>
    <contour>
      <point x="1129" y="1169" type="line"/>
      <point x="1336" y="1169" type="line"/>
      <point x="1336" y="0" type="line"/>
      <point x="1129" y="0" type="line"/>
    </contour>
    <contour>
      <point x="1591" y="1136" type="line"/>
      <point x="950" y="1136" type="line"/>
      <point x="950" y="1283" type="line"/>
      <point x="1591" y="1283" type="line"/>
    </contour>
    <contour>
      <point x="1129" y="1283" type="move" name="top"/>
    </contour>
  </outline>
</glyph>
<glyph name="hadeva" format="1">
  <advance width="1198"/>
  <unicode hex="0939"/>
  <outline>
    <contour>
      <point x="768" y="1162" type="line"/>
      <point x="974" y="1162" type="line"/>
      <point x="974" y="785" type="line"/>
      <point x="441" y="785" type="line"/>
      <point x="333" y="785"/>
      <point x="291" y="735"/>
      <point x="291" y="673" type="curve" smooth="yes"/>
      <point x="291" y="610"/>
      <point x="349" y="554"/>
      <point x="455" y="524" type="curve"/>
      <point x="329" y="404" type="line"/>
      <point x="183" y="474"/>
      <point x="89" y="579"/>
      <point x="89" y="706" type="curve" smooth="yes"/>
      <point x="89" y="826"/>
      <point x="180" y="936"/>
      <point x="383" y="936" type="curve" smooth="yes"/>
      <point x="807" y="936" type="line"/>
      <point x="768" y="891" type="line"/>
    </contour>
    <contour>
      <point x="642" y="594" type="curve" smooth="yes"/>
      <point x="906" y="594"/>
      <point x="1062" y="448"/>
      <point x="1062" y="279" type="curve" smooth="yes"/>
      <point x="1062" y="203"/>
      <point x="1043" y="136"/>
      <point x="1008" y="80" type="curve"/>
      <point x="834" y="119" type="line"/>
      <point x="861" y="164"/>
      <point x="875" y="214"/>
      <point x="875" y="269" type="curve" smooth="yes"/>
      <point x="875" y="350"/>
      <point x="805" y="427"/>
      <point x="659" y="427" type="curve" smooth="yes"/>
      <point x="501" y="427"/>
      <point x="406" y="311"/>
      <point x="406" y="203" type="curve" smooth="yes"/>
      <point x="406" y="41"/>
      <point x="536" y="-80"/>
      <point x="970" y="-129" type="curve"/>
      <point x="916" y="-282" type="line"/>
      <point x="426" y="-234"/>
      <point x="203" y="-42"/>
      <point x="203" y="223" type="curve" smooth="yes"/>
      <point x="203" y="424"/>
      <point x="365" y="594"/>
    </contour>
    <contour>
      <point x="1228" y="1136" type="line"/>
      <point x="-30" y="1136" type="line"/>
      <point x="-30" y="1283" type="line"/>
      <point x="1228" y="1283" type="line"/>
    </contour>
    <contour>
      <point x="766" y="1283" type="move" name="top"/>
    </contour>
  </outline>
</glyph>
<glyph name="uvowelsigndeva" format="1">
  <advance width="0"/>
  <unicode hex="0941"/>
  <outline>
    <contour>
      <point x="-647" y="-86" type="line"/>
      <point x="-573" y="-21"/>
      <point x="-470" y="29"/>
      <point x="-337" y="29" type="curve" smooth="yes"/>
      <point x="-136" y="29"/>
      <point x="-1" y="-104"/>
      <point x="-1" y="-282" type="curve" smooth="yes"/>
      <point x="-1" y="-465"/>
      <point x="-140" y="-585"/>
      <point x="-357" y="-585" type="curve" smooth="yes"/>
      <point x="-550" y="-585"/>
      <point x="-769" y="-499"/>
      <point x="-959" y="-350" type="curve"/>
      <point x="-892" y="-200" type="line"/>
      <point x="-701" y="-351"/>
      <point x="-527" y="-420"/>
      <point x="-397" y="-420" type="curve" smooth="yes"/>
      <point x="-256" y="-420"/>
      <point x="-184" y="-356"/>
      <point x="-184" y="-268" type="curve" smooth="yes"/>
      <point x="-184" y="-192"/>
      <point x="-243" y="-135"/>
      <point x="-339" y="-135" type="curve" smooth="yes"/>
      <point x="-416" y="-135"/>
      <point x="-490" y="-171"/>
      <point x="-563" y="-231" type="curve"/>
    </contour>
    <contour>
      <point x="-433" y="0" type="move" name="_btm"/>
    </contour>
  </outline>
</glyph>
<glyph name="uuvowelsigndeva" format="1">
  <advance width="0"/>
  <unicode hex="0942"/>
  <outline>
    <contour>
      <point x="-108" y="-526" type="line"/>
      <point x="-196" y="-558"/>
      <point x="-249" y="-566"/>
      <point x="-339" y="-566" type="curve" smooth="yes"/>
      <point x="-529" y="-566"/>
      <point x="-693" y="-442"/>
      <point x="-693" y="-254" type="curve" smooth="yes"/>
      <point x="-693" y="-111"/>
      <point x="-566" y="23"/>
      <point x="-356" y="23" type="curve" smooth="yes"/>
      <point x="-130" y="23"/>
      <point x="60" y="-98"/>
      <point x="287" y="-378" type="curve"/>
      <point x="183" y="-497" type="line"/>
      <point x="-44" y="-227"/>
      <point x="-194" y="-149"/>
      <point x="-335" y="-149" type="curve" smooth="yes"/>
      <point x="-449" y="-149"/>
      <point x="-508" y="-208"/>
      <point x="-508" y="-285" type="curve" smooth="yes"/>
      <point x="-508" y="-357"/>
      <point x="-450" y="-417"/>
      <point x="-344" y="-417" type="curve" smooth="yes"/>
      <point x="-283" y="-417"/>
      <point x="-236" y="-410"/>
      <point x="-161" y="-382" type="curve"/>
    </contour>
    <contour>
      <point x="-433.0" y="0.0" type="move" name="_btm"/>
    </contour>
  </outline>
</glyph>
<glyph name="rvocalicvowelsigndeva" format="1">
  <advance width="0"/>
  <unicode hex="0943"/>
  <outline>
    <contour>
      <point x="-119" y="-468" type="line"/>
      <point x="-188" y="-496"/>
      <point x="-264" y="-511"/>
      <point x="-361" y="-511" type="curve" smooth="yes"/>
      <point x="-544" y="-511"/>
      <point x="-694" y="-407"/>
      <point x="-694" y="-232" type="curve" smooth="yes"/>
      <point x="-694" y="-89"/>
      <point x="-578" y="28"/>
      <point x="-359" y="28" type="curve" smooth="yes"/>
      <point x="-313" y="28"/>
      <point x="-271" y="27"/>
      <point x="-225" y="23" type="curve"/>
      <point x="-225" y="-107" type="line"/>
      <point x="-253" y="-107"/>
      <point x="-295" y="-107"/>
      <point x="-326" y="-107" type="curve" smooth="yes"/>
      <point x="-461" y="-107"/>
      <point x="-522" y="-172"/>
      <point x="-522" y="-252" type="curve" smooth="yes"/>
      <point x="-522" y="-323"/>
      <point x="-460" y="-372"/>
      <point x="-363" y="-372" type="curve" smooth="yes"/>
      <point x="-285" y="-372"/>
      <point x="-225" y="-355"/>
      <point x="-147" y="-322" type="curve"/>
    </contour>
    <contour>
      <point x="-433" y="0" type="move" name="_btm"/>
    </contour>
  </outline>
</glyph>
<glyph name="rrvocalicvowelsigndeva" format="1">
  <advance width="0"/>
  <unicode hex="0944"/>
  <outline>
    <contour>
      <point x="-75" y="-680" type="line"/>
      <point x="-131" y="-704"/>
      <point x="-197" y="-721"/>
      <point x="-280" y="-721" type="curve" smooth="yes"/>
      <point x="-464" y="-721"/>
      <point x="-551" y="-617"/>
      <point x="-551" y="-515" type="curve" smooth="yes"/>
      <point x="-551" y="-391"/>
      <point x="-451" y="-309"/>
      <point x="-262" y="-308" type="curve"/>
      <point x="-237" y="-406" type="line"/>
      <point x="-335" y="-410"/>
      <point x="-392" y="-456"/>
      <point x="-392" y="-511" type="curve" smooth="yes"/>
      <point x="-392" y="-560"/>
      <point x="-351" y="-598"/>
      <point x="-267" y="-598" type="curve" smooth="yes"/>
      <point x="-216" y="-598"/>
      <point x="-166" y="-585"/>
      <point x="-100" y="-557" type="curve"/>
    </contour>
    <contour>
      <point x="-149" y="-398" type="line"/>
      <point x="-227" y="-422"/>
      <point x="-286" y="-430"/>
      <point x="-357" y="-430" type="curve" smooth="yes"/>
      <point x="-550" y="-430"/>
      <point x="-666" y="-320"/>
      <point x="-666" y="-192" type="curve" smooth="yes"/>
      <point x="-666" y="-71"/>
      <point x="-564" y="29"/>
      <point x="-350" y="29" type="curve" smooth="yes"/>
      <point x="-299" y="29"/>
      <point x="-253" y="25"/>
      <point x="-225" y="21" type="curve"/>
      <point x="-225" y="-100" type="line"/>
      <point x="-253" y="-100"/>
      <point x="-293" y="-100"/>
      <point x="-324" y="-100" type="curve" smooth="yes"/>
      <point x="-442" y="-100"/>
      <point x="-488" y="-150"/>
      <point x="-488" y="-204" type="curve" smooth="yes"/>
      <point x="-488" y="-258"/>
      <point x="-441" y="-298"/>
      <point x="-355" y="-298" type="curve" smooth="yes"/>
      <point x="-303" y="-298"/>
      <point x="-248" y="-290"/>
      <point x="-176" y="-268" type="curve"/>
    </contour>
    <contour>
      <point x="-433" y="0" type="move" name="_btm"/>
    </contour>
  </outline>
</glyph>
<glyph name="omdeva" format="1">
  <advance width="1990"/>
  <unicode hex="0950"/>
  <outline>
    <contour>
      <point x="702" y="994" type="curve" smooth="yes"/>
      <point x="702" y="1074"/>
      <point x="647" y="1131"/>
      <point x="532" y="1131" type="curve" smooth="yes"/>
      <point x="441" y="1131"/>
      <point x="348" y="1100"/>
      <point x="253" y="1045" type="curve"/>
      <point x="199" y="1206" type="line"/>
      <point x="298" y="1259"/>
      <point x="410" y="1291"/>
      <point x="535" y="1291" type="curve" smooth="yes"/>
      <point x="775" y="1291"/>
      <point x="891" y="1158"/>
      <point x="891" y="979" type="curve" smooth="yes"/>
      <point x="891" y="782"/>
      <point x="713" y="652"/>
      <point x="379" y="639" type="curve" smooth="yes"/>
      <point x="364" y="639" type="line"/>
      <point x="327" y="798" type="line"/>
      <point x="336" y="798" type="line"/>
      <point x="609" y="808"/>
      <point x="702" y="892"/>
    </contour>
    <contour>
      <point x="681" y="795" type="line"/>
      <point x="840" y="723"/>
      <point x="938" y="604"/>
      <point x="938" y="444" type="curve" smooth="yes"/>
      <point x="938" y="269"/>
      <point x="802" y="128"/>
      <point x="581" y="128" type="curve" smooth="yes"/>
      <point x="425" y="128"/>
      <point x="297" y="181"/>
      <point x="143" y="282" type="curve"/>
      <point x="188" y="440" type="line"/>
      <point x="324" y="339"/>
      <point x="420" y="300"/>
      <point x="531" y="300" type="curve" smooth="yes"/>
      <point x="664" y="300"/>
      <point x="746" y="380"/>
      <point x="746" y="483" type="curve" smooth="yes"/>
      <point x="746" y="574"/>
      <point x="684" y="658"/>
      <point x="564" y="702" type="curve"/>
    </contour>
    <contour>
      <point x="1576" y="955" type="curve" smooth="yes"/>
      <point x="1484" y="955"/>
      <point x="1408" y="881"/>
      <point x="1338" y="727" type="curve" smooth="yes"/>
      <point x="1244" y="516"/>
      <point x="1152" y="389"/>
      <point x="993" y="389" type="curve" smooth="yes"/>
      <point x="928" y="389"/>
      <point x="875" y="398"/>
      <point x="835" y="409" type="curve"/>
      <point x="820" y="572" type="line"/>
      <point x="857" y="559"/>
      <point x="900" y="544"/>
      <point x="938" y="546" type="curve" smooth="yes"/>
      <point x="1018" y="549"/>
      <point x="1079" y="628"/>
      <point x="1145" y="785" type="curve" smooth="yes"/>
      <point x="1227" y="977"/>
      <point x="1342" y="1133"/>
      <point x="1552" y="1133" type="curve" smooth="yes"/>
      <point x="1790" y="1133"/>
      <point x="1936" y="960"/>
      <point x="1936" y="730" type="curve" smooth="yes"/>
      <point x="1936" y="513"/>
      <point x="1783" y="353"/>
      <point x="1569" y="353" type="curve" smooth="yes"/>
      <point x="1417" y="353"/>
      <point x="1276" y="427"/>
      <point x="1124" y="559" type="curve"/>
      <point x="1202" y="685" type="line"/>
      <point x="1324" y="578"/>
      <point x="1430" y="519"/>
      <point x="1527" y="519" type="curve" smooth="yes"/>
      <point x="1653" y="519"/>
      <point x="1752" y="616"/>
      <point x="1752" y="759" type="curve" smooth="yes"/>
      <point x="1752" y="878"/>
      <point x="1675" y="955"/>
    </contour>
    <component base="candrabindudeva" xOffset="1479" yOffset="-145"/>
  </outline>
</glyph>
<glyph name="uuevowelsigndevaKSH" format="1">
  <advance width="0"/>
  <unicode hex="0957"/>
  <outline>
    <component base="uevowelsigndevaKSH" yScale="0.911255236939" yOffset="-7"/>
    <component base="uevowelsigndevaKSH" xScale="1.05291689066" yScale="0.880834267741" xOffset="21" yOffset="-292"/>
    <contour>
      <point x="-433" y="0" type="move" name="_btm"/>
    </contour>
  </outline>
</glyph>
<glyph name="rhadeva" format="1">
  <advance width="1201"/>
  <unicode hex="095D"/>
  <outline>
    <component base="ddhadeva"/>
    <component base="nuktadeva" xOffset="1500" yOffset="100"/>
    <contour>
      <point x="546" y="-416" type="move" name="btm"/>
    </contour>
    <contour>
      <point x="725" y="1283" type="move" name="top"/>
    </contour>
  </outline>
</glyph>
<glyph name="yyadeva" format="1">
  <advance width="1308"/>
  <unicode hex="095F"/>
  <outline>
    <component base="yadeva"/>
    <component base="nuktadeva" xOffset="1072" yOffset="370"/>
    <contour>
      <point x="876" y="1283" type="move" name="top"/>
    </contour>
  </outline>
</glyph>
<glyph name="rrvocalicdeva" format="1">
  <advance width="1699"/>
  <unicode hex="0960"/>
  <outline>
    <contour>
      <point x="1124" y="1136" type="line"/>
      <point x="1124" y="1283" type="line"/>
      <point x="1736" y="1283" type="line"/>
      <point x="1736" y="1136" type="line"/>
    </contour>
    <contour>
      <point x="870" y="690" type="line"/>
      <point x="920" y="673"/>
      <point x="973" y="662"/>
      <point x="1033" y="662" type="curve" smooth="yes"/>
      <point x="1123" y="662"/>
      <point x="1203" y="689"/>
      <point x="1281" y="748" type="curve"/>
      <point x="1205" y="668" type="line"/>
      <point x="1171" y="713"/>
      <point x="1158" y="751"/>
      <point x="1158" y="787" type="curve" smooth="yes"/>
      <point x="1158" y="830"/>
      <point x="1195" y="870"/>
      <point x="1281" y="869" type="curve" smooth="yes"/>
      <point x="1399" y="869"/>
      <point x="1495" y="826"/>
      <point x="1495" y="750" type="curve" smooth="yes"/>
      <point x="1495" y="643"/>
      <point x="1298" y="489"/>
      <point x="1041" y="489" type="curve" smooth="yes"/>
      <point x="963" y="489"/>
      <point x="892" y="503"/>
      <point x="805" y="525" type="curve"/>
    </contour>
    <contour>
      <point x="1377" y="180" type="curve" smooth="yes"/>
      <point x="1377" y="121"/>
      <point x="1420" y="89"/>
      <point x="1501" y="89" type="curve" smooth="yes"/>
      <point x="1549" y="89"/>
      <point x="1595" y="102"/>
      <point x="1658" y="129" type="curve"/>
      <point x="1686" y="-19" type="line"/>
      <point x="1614" y="-46"/>
      <point x="1560" y="-58"/>
      <point x="1494" y="-58" type="curve" smooth="yes"/>
      <point x="1314" y="-58"/>
      <point x="1182" y="54"/>
      <point x="1182" y="189" type="curve" smooth="yes"/>
      <point x="1182" y="314"/>
      <point x="1266" y="413"/>
      <point x="1461" y="473" type="curve"/>
      <point x="1376" y="403" type="line"/>
      <point x="1239" y="617" type="line"/>
      <point x="1385" y="703" type="line"/>
      <point x="1574" y="412" type="line"/>
      <point x="1557" y="344" type="line"/>
      <point x="1414" y="308"/>
      <point x="1377" y="245"/>
    </contour>
    <component base="taradeva"/>
  </outline>
</glyph>
<glyph name="lvocalicvowelsigndeva" format="1">
  <advance width="-2"/>
  <unicode hex="0962"/>
  <outline>
    <contour>
      <point x="-276" y="-64" type="curve"/>
      <point x="-364" y="-148" type="line"/>
      <point x="-412" y="-75"/>
      <point x="-468" y="-39"/>
      <point x="-526" y="-39" type="curve" smooth="yes"/>
      <point x="-587" y="-39"/>
      <point x="-626" y="-84"/>
      <point x="-626" y="-137" type="curve" smooth="yes"/>
      <point x="-626" y="-195"/>
      <point x="-599" y="-250"/>
      <point x="-490" y="-336" type="curve"/>
      <point x="-591" y="-405" type="line"/>
      <point x="-715" y="-307"/>
      <point x="-763" y="-211"/>
      <point x="-763" y="-114" type="curve" smooth="yes"/>
      <point x="-763" y="-5"/>
      <point x="-684" y="88"/>
      <point x="-546" y="88" type="curve" smooth="yes"/>
      <point x="-433" y="88"/>
      <point x="-350" y="33"/>
    </contour>
    <contour>
      <point x="-79" y="-235" type="curve"/>
      <point x="-139" y="-282" type="line"/>
      <point x="-94" y="-231"/>
      <point x="-74" y="-189"/>
      <point x="-74" y="-137" type="curve" smooth="yes"/>
      <point x="-74" y="-93"/>
      <point x="-104" y="-53"/>
      <point x="-160" y="-53" type="curve" smooth="yes"/>
      <point x="-236" y="-53"/>
      <point x="-294" y="-129"/>
      <point x="-323" y="-245" type="curve"/>
      <point x="-444" y="-204" type="line"/>
      <point x="-410" y="-44"/>
      <point x="-313" y="74"/>
      <point x="-165" y="74" type="curve" smooth="yes"/>
      <point x="-33" y="74"/>
      <point x="47" y="-21"/>
      <point x="47" y="-132" type="curve" smooth="yes"/>
      <point x="47" y="-200"/>
      <point x="23" y="-270"/>
      <point x="-12" y="-323" type="curve"/>
      <point x="-98" y="-323"/>
      <point x="-138" y="-349"/>
      <point x="-138" y="-383" type="curve" smooth="yes"/>
      <point x="-138" y="-415"/>
      <point x="-116" y="-437"/>
      <point x="-63" y="-437" type="curve" smooth="yes"/>
      <point x="-29" y="-437"/>
      <point x="-1" y="-429"/>
      <point x="43" y="-409" type="curve"/>
      <point x="57" y="-504" type="line"/>
      <point x="13" y="-523"/>
      <point x="-22" y="-529"/>
      <point x="-68" y="-529" type="curve" smooth="yes"/>
      <point x="-184" y="-529"/>
      <point x="-255" y="-462"/>
      <point x="-255" y="-382" type="curve" smooth="yes"/>
      <point x="-255" y="-307"/>
      <point x="-196" y="-245"/>
    </contour>
    <contour>
      <point x="-433" y="0" type="move" name="_btm"/>
    </contour>
  </outline>
</glyph>
<glyph name="dandadeva" format="1">
  <advance width="664"/>
  <unicode hex="0964"/>
  <outline>
    <contour>
      <point x="340" y="-140" type="line"/>
      <point x="340" y="1383" type="line"/>
      <point x="539" y="1383" type="line"/>
      <point x="539" y="-140" type="line"/>
    </contour>
  </outline>
</glyph>
<glyph name="sixdeva" format="1">
  <advance width="1021"/>
  <unicode hex="096C"/>
  <outline>
    <contour>
      <point x="741" y="183" type="line"/>
      <point x="900" y="241" type="line"/>
      <point x="1053" y="-85" type="line"/>
      <point x="893" y="-149" type="line"/>
    </contour>
    <contour>
      <point x="398" y="423" type="curve" smooth="yes"/>
      <point x="398" y="331"/>
      <point x="485" y="250"/>
      <point x="623" y="250" type="curve" smooth="yes"/>
      <point x="692" y="250"/>
      <point x="754" y="266"/>
      <point x="843" y="300" type="curve"/>
      <point x="720" y="213" type="line"/>
      <point x="693" y="261"/>
      <point x="679" y="303"/>
      <point x="679" y="340" type="curve" smooth="yes"/>
      <point x="679" y="385"/>
      <point x="713" y="423"/>
      <point x="804" y="423" type="curve" smooth="yes"/>
      <point x="932" y="423"/>
      <point x="1033" y="368"/>
      <point x="1033" y="295" type="curve" smooth="yes"/>
      <point x="1033" y="210"/>
      <point x="908" y="86"/>
      <point x="652" y="86" type="curve" smooth="yes"/>
      <point x="372" y="86"/>
      <point x="203" y="249"/>
      <point x="203" y="461" type="curve" smooth="yes"/>
      <point x="203" y="644"/>
      <point x="366" y="831"/>
      <point x="741" y="841" type="curve" smooth="yes"/>
      <point x="800" y="668" type="line"/>
      <point x="503" y="668"/>
      <point x="398" y="546"/>
    </contour>
    <contour>
      <point x="344" y="609" type="line"/>
      <point x="197" y="681"/>
      <point x="99" y="806"/>
      <point x="99" y="958" type="curve" smooth="yes"/>
      <point x="99" y="1123"/>
      <point x="240" y="1286"/>
      <point x="639" y="1286" type="curve"/>
      <point x="685" y="1115" type="line"/>
      <point x="386" y="1115"/>
      <point x="299" y="1020"/>
      <point x="299" y="918" type="curve" smooth="yes"/>
      <point x="299" y="833"/>
      <point x="363" y="770"/>
      <point x="480" y="720" type="curve"/>
    </contour>
  </outline>
</glyph>
<glyph name="awdevaKSH" format="1">
  <advance width="2217"/>
  <unicode hex="0975"/>
  <outline>
    <contour>
      <point x="1823" y="1227" type="line"/>
      <point x="1823" y="1512" type="line"/>
      <point x="1823" y="1577"/>
      <point x="1794" y="1616"/>
      <point x="1717" y="1616" type="curve" smooth="yes"/>
      <point x="1654" y="1616"/>
      <point x="1602" y="1581"/>
      <point x="1500" y="1581" type="curve" smooth="yes"/>
      <point x="1391" y="1581"/>
      <point x="1310" y="1629"/>
      <point x="1237" y="1713" type="curve"/>
      <point x="1305" y="1822" type="line"/>
      <point x="1381" y="1750"/>
      <point x="1437" y="1725"/>
      <point x="1494" y="1725" type="curve" smooth="yes"/>
      <point x="1577" y="1725"/>
      <point x="1651" y="1767"/>
      <point x="1766" y="1767" type="curve" smooth="yes"/>
      <point x="1900" y="1767"/>
      <point x="1986" y="1682"/>
      <point x="1986" y="1535" type="curve" smooth="yes"/>
      <point x="1986" y="1227" type="line"/>
    </contour>
    <contour>
      <point x="1735" y="1194" type="line"/>
      <point x="1674" y="1302" type="line"/>
      <point x="1635" y="1369"/>
      <point x="1594" y="1402"/>
      <point x="1518" y="1402" type="curve" smooth="yes"/>
      <point x="1445" y="1402"/>
      <point x="1372" y="1368"/>
      <point x="1266" y="1368" type="curve" smooth="yes"/>
      <point x="1150" y="1368"/>
      <point x="1052" y="1419"/>
      <point x="969" y="1509" type="curve"/>
      <point x="1040" y="1614" type="line"/>
      <point x="1123" y="1537"/>
      <point x="1190" y="1510"/>
      <point x="1260" y="1510" type="curve" smooth="yes"/>
      <point x="1357" y="1510"/>
      <point x="1442" y="1554"/>
      <point x="1541" y="1554" type="curve" smooth="yes"/>
      <point x="1689" y="1554"/>
      <point x="1757" y="1499"/>
      <point x="1832" y="1342" type="curve" smooth="yes"/>
      <point x="1911" y="1194" type="line"/>
    </contour>
    <component base="aadeva"/>
  </outline>
</glyph>
<glyph name="ddadevaMAW" format="1">
  <advance width="1131"/>
  <unicode hex="0978"/>
  <outline>
    <contour>
      <point x="-30" y="1136" type="line"/>
      <point x="-30" y="1283" type="line"/>
      <point x="1161" y="1283" type="line"/>
      <point x="1161" y="1136" type="line"/>
    </contour>
    <contour>
      <point x="413" y="734" type="line"/>
      <point x="484" y="759"/>
      <point x="564" y="776"/>
      <point x="662" y="776" type="curve" smooth="yes"/>
      <point x="887" y="776"/>
      <point x="1026" y="639"/>
      <point x="1026" y="442" type="curve" smooth="yes"/>
      <point x="1026" y="314"/>
      <point x="968" y="181"/>
      <point x="895" y="85" type="curve"/>
      <point x="721" y="151" type="line"/>
      <point x="793" y="251"/>
      <point x="842" y="357"/>
      <point x="842" y="447" type="curve" smooth="yes"/>
      <point x="842" y="537"/>
      <point x="782" y="602"/>
      <point x="681" y="602" type="curve" smooth="yes"/>
      <point x="584" y="602"/>
      <point x="499" y="568"/>
      <point x="402" y="499" type="curve"/>
      <point x="441" y="560" type="line"/>
      <point x="441" y="417" type="line"/>
      <point x="441" y="362"/>
      <point x="414" y="330"/>
      <point x="367" y="330" type="curve" smooth="yes"/>
      <point x="318" y="330"/>
      <point x="231" y="367"/>
      <point x="153" y="445" type="curve" smooth="yes"/>
      <point x="110" y="488"/>
      <point x="79" y="540"/>
      <point x="79" y="579" type="curve" smooth="yes"/>
      <point x="79" y="620"/>
      <point x="104" y="646"/>
      <point x="164" y="664" type="curve" smooth="yes"/>
      <point x="267" y="695" type="line"/>
      <point x="235" y="664" type="line"/>
      <point x="235" y="1175" type="line"/>
      <point x="441" y="1175" type="line"/>
      <point x="441" y="666" type="line"/>
    </contour>
    <contour>
      <point x="465" y="31" type="move" name="btm"/>
    </contour>
    <contour>
      <point x="230" y="1283" type="move" name="top"/>
    </contour>
  </outline>
</glyph>
<glyph name="emdash" format="1">
  <advance width="1925"/>
  <unicode hex="2014"/>
  <outline>
    <contour>
      <point x="115" y="509" type="line"/>
      <point x="115" y="680" type="line"/>
      <point x="1810" y="680" type="line"/>
      <point x="1810" y="509" type="line"/>
    </contour>
  </outline>
</glyph>
<glyph name="quoteleft" format="1">
  <advance width="592"/>
  <unicode hex="2018"/>
  <outline>
    <contour>
      <point x="131" y="865" type="line"/>
      <point x="120" y="885" type="line"/>
      <point x="132" y="934"/>
      <point x="153" y="1001"/>
      <point x="184" y="1086" type="curve" smooth="yes"/>
      <point x="215" y="1171"/>
      <point x="246" y="1247"/>
      <point x="279" y="1316" type="curve"/>
      <point x="432" y="1316" type="line"/>
      <point x="393" y="1162"/>
      <point x="363" y="1012"/>
      <point x="341" y="865" type="curve"/>
    </contour>
  </outline>
</glyph>
<glyph name="quoteright.deva" format="1">
  <advance width="763"/>
  <unicode hex="2019"/>
  <outline>
    <contour>
      <point x="526" y="1316" type="line"/>
      <point x="540" y="1296" type="line"/>
      <point x="508" y="1171"/>
      <point x="455" y="1027"/>
      <point x="381" y="865" type="curve"/>
      <point x="228" y="865" type="line"/>
      <point x="270" y="1038"/>
      <point x="300" y="1189"/>
      <point x="318" y="1316" type="curve"/>
    </contour>
  </outline>
</glyph>
<glyph name="quoteright" format="1">
  <advance width="355"/>
  <unicode hex="2019"/>
  <outline>
    <contour>
      <point x="320" y="1316" type="line"/>
      <point x="334" y="1296" type="line"/>
      <point x="302" y="1171"/>
      <point x="249" y="1027"/>
      <point x="175" y="865" type="curve"/>
      <point x="22" y="865" type="line"/>
      <point x="64" y="1038"/>
      <point x="94" y="1189"/>
      <point x="112" y="1316" type="curve"/>
    </contour>
  </outline>
</glyph>
<glyph name="quotedblleft.deva" format="1">
  <advance width="1102"/>
  <unicode hex="201C"/>
  <outline>
    <contour>
      <point x="515" y="885" type="line"/>
      <point x="547" y="1006"/>
      <point x="600" y="1150"/>
      <point x="675" y="1316" type="curve"/>
      <point x="828" y="1316" type="line"/>
      <point x="787" y="1138"/>
      <point x="757" y="988"/>
      <point x="738" y="865" type="curve"/>
      <point x="528" y="865" type="line"/>
    </contour>
    <contour>
      <point x="141" y="885" type="line"/>
      <point x="153" y="934"/>
      <point x="174" y="1001"/>
      <point x="205" y="1086" type="curve" smooth="yes"/>
      <point x="236" y="1171"/>
      <point x="267" y="1247"/>
      <point x="300" y="1316" type="curve"/>
      <point x="453" y="1316" type="line"/>
      <point x="414" y="1162"/>
      <point x="384" y="1012"/>
      <point x="362" y="865" type="curve"/>
      <point x="152" y="865" type="line"/>
    </contour>
  </outline>
</glyph>
<glyph name="quotedblleft" format="1">
  <advance width="947"/>
  <unicode hex="201C"/>
  <outline>
    <contour>
      <point x="504" y="885" type="line"/>
      <point x="536" y="1006"/>
      <point x="589" y="1150"/>
      <point x="664" y="1316" type="curve"/>
      <point x="817" y="1316" type="line"/>
      <point x="776" y="1138"/>
      <point x="746" y="988"/>
      <point x="727" y="865" type="curve"/>
      <point x="517" y="865" type="line"/>
    </contour>
    <contour>
      <point x="130" y="885" type="line"/>
      <point x="142" y="934"/>
      <point x="163" y="1001"/>
      <point x="194" y="1086" type="curve" smooth="yes"/>
      <point x="225" y="1171"/>
      <point x="256" y="1247"/>
      <point x="289" y="1316" type="curve"/>
      <point x="442" y="1316" type="line"/>
      <point x="403" y="1162"/>
      <point x="373" y="1012"/>
      <point x="351" y="865" type="curve"/>
      <point x="141" y="865" type="line"/>
    </contour>
  </outline>
</glyph>
<glyph name="quotedblright" format="1">
  <advance width="947"/>
  <unicode hex="201D"/>
  <outline>
    <contour>
      <point x="442" y="1296" type="line"/>
      <point x="410" y="1171"/>
      <point x="357" y="1027"/>
      <point x="283" y="865" type="curve"/>
      <point x="130" y="865" type="line"/>
      <point x="172" y="1038"/>
      <point x="202" y="1189"/>
      <point x="220" y="1316" type="curve"/>
      <point x="428" y="1316" type="line"/>
    </contour>
    <contour>
      <point x="817" y="1296" type="line"/>
      <point x="785" y="1171"/>
      <point x="732" y="1027"/>
      <point x="659" y="865" type="curve"/>
      <point x="504" y="865" type="line"/>
      <point x="545" y="1028"/>
      <point x="576" y="1178"/>
      <point x="597" y="1316" type="curve"/>
      <point x="805" y="1316" type="line"/>
    </contour>
  </outline>
</glyph>
<glyph name="bullet" format="1">
  <advance width="693"/>
  <unicode hex="2022"/>
  <outline>
    <contour>
      <point x="118" y="673" type="curve" smooth="yes"/>
      <point x="118" y="838"/>
      <point x="201" y="927"/>
      <point x="346" y="927" type="curve" smooth="yes"/>
      <point x="491" y="927"/>
      <point x="575" y="837"/>
      <point x="575" y="673" type="curve" smooth="yes"/>
      <point x="575" y="512"/>
      <point x="490" y="418"/>
      <point x="346" y="418" type="curve" smooth="yes"/>
      <point x="202" y="418"/>
      <point x="118" y="508"/>
    </contour>
  </outline>
</glyph>
<glyph name="uni20B9.deva" format="1">
  <advance width="1172"/>
  <unicode hex="20B9"/>
  <outline>
    <contour>
      <point x="141" y="774" type="line"/>
      <point x="141" y="919" type="line"/>
      <point x="1013" y="919" type="line"/>
      <point x="1013" y="774" type="line"/>
    </contour>
    <contour>
      <point x="141" y="1139" type="line"/>
      <point x="141" y="1283" type="line"/>
      <point x="1013" y="1283" type="line"/>
      <point x="1013" y="1139" type="line"/>
    </contour>
    <contour>
      <point x="204" y="479" type="line"/>
      <point x="207" y="563" type="line"/>
      <point x="487" y="579"/>
      <point x="621" y="689"/>
      <point x="621" y="869" type="curve" smooth="yes"/>
      <point x="621" y="1019"/>
      <point x="495" y="1139"/>
      <point x="327" y="1139" type="curve" smooth="yes"/>
      <point x="307" y="1139" type="line"/>
      <point x="308" y="1265" type="line"/>
      <point x="363" y="1265" type="line"/>
      <point x="621" y="1265"/>
      <point x="817" y="1085"/>
      <point x="817" y="860" type="curve" smooth="yes"/>
      <point x="817" y="636"/>
      <point x="656" y="483"/>
      <point x="410" y="434" type="curve"/>
      <point x="413" y="499" type="line"/>
      <point x="818" y="11" type="line"/>
      <point x="819" y="0" type="line"/>
      <point x="602" y="0" type="line"/>
    </contour>
  </outline>
</glyph>
<glyph name="caprehalfdeva" format="1">
  <advance width="939"/>
  <outline>
    <contour>
      <point x="72" y="727" type="line"/>
      <point x="72" y="896" type="line"/>
      <point x="790" y="896" type="line"/>
      <point x="790" y="727" type="line"/>
    </contour>
    <contour>
      <point x="1127" y="614" type="curve"/>
      <point x="1235" y="467" type="line"/>
      <point x="1091" y="284"/>
      <point x="934" y="183"/>
      <point x="720" y="183" type="curve" smooth="yes"/>
      <point x="463" y="183"/>
      <point x="304" y="342"/>
      <point x="304" y="540" type="curve" smooth="yes"/>
      <point x="304" y="716"/>
      <point x="434" y="872"/>
      <point x="696" y="872" type="curve"/>
      <point x="741" y="729" type="line"/>
      <point x="575" y="729"/>
      <point x="494" y="637"/>
      <point x="494" y="526" type="curve" smooth="yes"/>
      <point x="494" y="426"/>
      <point x="576" y="355"/>
      <point x="700" y="355" type="curve" smooth="yes"/>
      <point x="858" y="355"/>
      <point x="1007" y="442"/>
    </contour>
    <contour>
      <point x="-30" y="1136" type="line"/>
      <point x="-30" y="1283" type="line"/>
      <point x="969" y="1283" type="line"/>
      <point x="969" y="1136" type="line"/>
    </contour>
  </outline>
</glyph>
<glyph name="dabhadeva" format="1">
  <advance width="1349"/>
  <outline>
    <contour>
      <point x="368" y="93" type="curve"/>
      <point x="437" y="-18" type="line"/>
      <point x="372" y="-86"/>
      <point x="293" y="-134"/>
      <point x="200" y="-134" type="curve" smooth="yes"/>
      <point x="58" y="-134"/>
      <point x="-46" y="-35"/>
      <point x="-46" y="87" type="curve" smooth="yes"/>
      <point x="-46" y="197"/>
      <point x="41" y="295"/>
      <point x="191" y="295" type="curve" smooth="yes"/>
      <point x="317" y="295"/>
      <point x="405" y="236"/>
      <point x="478" y="139" type="curve" smooth="yes"/>
      <point x="636" y="-70" type="line"/>
      <point x="586" y="-64" type="line"/>
      <point x="1003" y="225" type="line"/>
      <point x="1099" y="99" type="line"/>
      <point x="680" y="-197" type="line"/>
      <point x="694" y="-149" type="line"/>
      <point x="757" y="-238" type="line"/>
      <point x="773" y="-260"/>
      <point x="781" y="-275"/>
      <point x="781" y="-296" type="curve" smooth="yes"/>
      <point x="781" y="-331"/>
      <point x="743" y="-366"/>
      <point x="642" y="-366" type="curve" smooth="yes"/>
      <point x="497" y="-366"/>
      <point x="379" y="-312"/>
      <point x="379" y="-252" type="curve" smooth="yes"/>
      <point x="379" y="-226"/>
      <point x="393" y="-204"/>
      <point x="419" y="-183" type="curve" smooth="yes"/>
      <point x="501" y="-120" type="line"/>
      <point x="501" y="-169" type="line"/>
      <point x="337" y="64" type="line"/>
      <point x="289" y="133"/>
      <point x="246" y="157"/>
      <point x="197" y="157" type="curve" smooth="yes"/>
      <point x="138" y="157"/>
      <point x="103" y="120"/>
      <point x="103" y="73" type="curve" smooth="yes"/>
      <point x="103" y="25"/>
      <point x="137" y="-7"/>
      <point x="192" y="-7" type="curve" smooth="yes"/>
      <point x="250" y="-7"/>
      <point x="307" y="20"/>
    </contour>
    <contour>
      <point x="-30" y="1136" type="line"/>
      <point x="-30" y="1283" type="line"/>
      <point x="1379" y="1283" type="line"/>
      <point x="1379" y="1136" type="line"/>
    </contour>
    <contour>
      <point x="907" y="193" type="line"/>
      <point x="1068" y="250" type="line"/>
      <point x="1293" y="-193" type="line"/>
      <point x="1136" y="-259" type="line"/>
    </contour>
    <contour>
      <point x="857" y="106" type="curve" smooth="yes"/>
      <point x="532" y="106"/>
      <point x="313" y="281"/>
      <point x="313" y="538" type="curve" smooth="yes"/>
      <point x="313" y="731"/>
      <point x="450" y="899"/>
      <point x="755" y="899" type="curve" smooth="yes"/>
      <point x="967" y="899" type="line"/>
      <point x="915" y="848" type="line"/>
      <point x="915" y="1177" type="line"/>
      <point x="1121" y="1177" type="line"/>
      <point x="1121" y="743" type="line"/>
      <point x="822" y="743" type="line"/>
      <point x="594" y="743"/>
      <point x="508" y="636"/>
      <point x="508" y="507" type="curve" smooth="yes"/>
      <point x="508" y="369"/>
      <point x="638" y="265"/>
      <point x="817" y="265" type="curve" smooth="yes"/>
      <point x="892" y="265"/>
      <point x="937" y="274"/>
      <point x="1024" y="305" type="curve"/>
      <point x="884" y="228" type="line"/>
      <point x="854" y="278"/>
      <point x="837" y="317"/>
      <point x="839" y="361" type="curve" smooth="yes"/>
      <point x="841" y="410"/>
      <point x="881" y="454"/>
      <point x="976" y="454" type="curve" smooth="yes"/>
      <point x="1113" y="454"/>
      <point x="1238" y="389"/>
      <point x="1238" y="312" type="curve" smooth="yes"/>
      <point x="1238" y="228"/>
      <point x="1120" y="106"/>
    </contour>
    <contour>
      <point x="801" y="-334" type="move" name="btm"/>
    </contour>
    <contour>
      <point x="887" y="1283" type="move" name="top"/>
    </contour>
  </outline>
</glyph>
<glyph name="dadhadeva" format="1">
  <advance width="1486"/>
  <outline>
    <contour>
      <point x="572" y="94" type="line"/>
      <point x="518" y="60"/>
      <point x="464" y="42"/>
      <point x="358" y="42" type="curve" smooth="yes"/>
      <point x="145" y="42"/>
      <point x="-9" y="174"/>
      <point x="-9" y="358" type="curve" smooth="yes"/>
      <point x="-9" y="494"/>
      <point x="77" y="597"/>
      <point x="206" y="597" type="curve" smooth="yes"/>
      <point x="344" y="597"/>
      <point x="426" y="508"/>
      <point x="426" y="383" type="curve" smooth="yes"/>
      <point x="426" y="278"/>
      <point x="356" y="184"/>
      <point x="253" y="145" type="curve"/>
      <point x="154" y="212" type="line"/>
      <point x="242" y="253"/>
      <point x="289" y="320"/>
      <point x="289" y="386" type="curve" smooth="yes"/>
      <point x="289" y="430"/>
      <point x="265" y="458"/>
      <point x="221" y="458" type="curve" smooth="yes"/>
      <point x="177" y="458"/>
      <point x="145" y="415"/>
      <point x="145" y="349" type="curve" smooth="yes"/>
      <point x="145" y="256"/>
      <point x="239" y="184"/>
      <point x="369" y="184" type="curve" smooth="yes"/>
      <point x="467" y="184"/>
      <point x="529" y="203"/>
      <point x="608" y="253" type="curve"/>
    </contour>
    <contour>
      <point x="792" y="187" type="line"/>
      <point x="668" y="132"/>
      <point x="631" y="48"/>
      <point x="631" y="-13" type="curve" smooth="yes"/>
      <point x="631" y="-88"/>
      <point x="680" y="-138"/>
      <point x="769" y="-138" type="curve" smooth="yes"/>
      <point x="913" y="-138"/>
      <point x="1042" y="-2"/>
      <point x="1059" y="209" type="curve"/>
      <point x="1181" y="-19" type="line"/>
      <point x="1100" y="-185"/>
      <point x="955" y="-293"/>
      <point x="775" y="-293" type="curve" smooth="yes"/>
      <point x="583" y="-293"/>
      <point x="465" y="-167"/>
      <point x="465" y="-15" type="curve" smooth="yes"/>
      <point x="465" y="87"/>
      <point x="503" y="206"/>
      <point x="669" y="301" type="curve"/>
    </contour>
    <contour>
      <point x="-30" y="1136" type="line"/>
      <point x="-30" y="1283" type="line"/>
      <point x="1516" y="1283" type="line"/>
      <point x="1516" y="1136" type="line"/>
    </contour>
    <contour>
      <point x="1044" y="193" type="line"/>
      <point x="1205" y="250" type="line"/>
      <point x="1429" y="-192" type="line"/>
      <point x="1271" y="-258" type="line"/>
    </contour>
    <contour>
      <point x="994" y="106" type="curve" smooth="yes"/>
      <point x="668" y="106"/>
      <point x="449" y="281"/>
      <point x="449" y="538" type="curve" smooth="yes"/>
      <point x="449" y="731"/>
      <point x="586" y="899"/>
      <point x="891" y="899" type="curve" smooth="yes"/>
      <point x="1104" y="899" type="line"/>
      <point x="1051" y="848" type="line"/>
      <point x="1051" y="1177" type="line"/>
      <point x="1258" y="1177" type="line"/>
      <point x="1258" y="743" type="line"/>
      <point x="958" y="743" type="line"/>
      <point x="731" y="743"/>
      <point x="644" y="636"/>
      <point x="644" y="507" type="curve" smooth="yes"/>
      <point x="644" y="369"/>
      <point x="775" y="265"/>
      <point x="953" y="265" type="curve" smooth="yes"/>
      <point x="1028" y="265"/>
      <point x="1073" y="274"/>
      <point x="1161" y="305" type="curve"/>
      <point x="1021" y="228" type="line"/>
      <point x="991" y="278"/>
      <point x="974" y="317"/>
      <point x="976" y="361" type="curve" smooth="yes"/>
      <point x="978" y="410"/>
      <point x="1018" y="454"/>
      <point x="1112" y="454" type="curve" smooth="yes"/>
      <point x="1250" y="454"/>
      <point x="1374" y="389"/>
      <point x="1374" y="312" type="curve" smooth="yes"/>
      <point x="1374" y="228"/>
      <point x="1256" y="106"/>
    </contour>
    <contour>
      <point x="983" y="-334" type="move" name="btm"/>
    </contour>
    <contour>
      <point x="1019" y="1283" type="move" name="top"/>
    </contour>
  </outline>
</glyph>
<glyph name="damadeva" format="1">
  <advance width="1574"/>
  <outline>
    <contour>
      <point x="1145" y="1169" type="line"/>
      <point x="1352" y="1169" type="line"/>
      <point x="1352" y="-1" type="line"/>
      <point x="1145" y="-1" type="line"/>
    </contour>
    <contour>
      <point x="1198" y="418" type="line"/>
      <point x="1198" y="244" type="line"/>
      <point x="823" y="244" type="line"/>
      <point x="862" y="279" type="line"/>
      <point x="862" y="139" type="line"/>
      <point x="862" y="83"/>
      <point x="839" y="51"/>
      <point x="791" y="51" type="curve" smooth="yes"/>
      <point x="752" y="51"/>
      <point x="694" y="81"/>
      <point x="642" y="134" type="curve" smooth="yes"/>
      <point x="578" y="198"/>
      <point x="531" y="279"/>
      <point x="531" y="331" type="curve" smooth="yes"/>
      <point x="531" y="387"/>
      <point x="568" y="418"/>
      <point x="629" y="418" type="curve" smooth="yes"/>
    </contour>
    <contour>
      <point x="1604" y="1136" type="line"/>
      <point x="-30" y="1136" type="line"/>
      <point x="-30" y="1283" type="line"/>
      <point x="1604" y="1283" type="line"/>
    </contour>
    <contour>
      <point x="606" y="1167" type="line"/>
      <point x="812" y="1167" type="line"/>
      <point x="812" y="803" type="line"/>
      <point x="443" y="803" type="line"/>
      <point x="332" y="803"/>
      <point x="295" y="765"/>
      <point x="295" y="709" type="curve" smooth="yes"/>
      <point x="295" y="653"/>
      <point x="346" y="618"/>
      <point x="429" y="618" type="curve" smooth="yes"/>
      <point x="575" y="618" type="line"/>
      <point x="776" y="618"/>
      <point x="870" y="503"/>
      <point x="871" y="375" type="curve" smooth="yes"/>
      <point x="872" y="289" type="line"/>
      <point x="668" y="287" type="line"/>
      <point x="668" y="364" type="line"/>
      <point x="668" y="420"/>
      <point x="624" y="455"/>
      <point x="543" y="455" type="curve" smooth="yes"/>
      <point x="436" y="455" type="line"/>
      <point x="221" y="455"/>
      <point x="90" y="584"/>
      <point x="90" y="724" type="curve" smooth="yes"/>
      <point x="90" y="859"/>
      <point x="175" y="957"/>
      <point x="387" y="957" type="curve" smooth="yes"/>
      <point x="658" y="957" type="line"/>
      <point x="606" y="906" type="line"/>
    </contour>
    <contour>
      <point x="1145" y="1" type="move" name="btm"/>
    </contour>
    <contour>
      <point x="1145" y="1283" type="move" name="top"/>
    </contour>
  </outline>
</glyph>
<glyph name="dayadeva" format="1">
  <advance width="1491"/>
  <outline>
    <contour>
      <point x="518" y="1181" type="line"/>
      <point x="724" y="1181" type="line"/>
      <point x="724" y="883" type="line"/>
      <point x="518" y="883" type="line"/>
    </contour>
    <contour>
      <point x="447" y="416" type="line"/>
      <point x="191" y="450"/>
      <point x="50" y="578"/>
      <point x="50" y="734" type="curve" smooth="yes"/>
      <point x="50" y="857"/>
      <point x="140" y="959"/>
      <point x="351" y="959" type="curve" smooth="yes"/>
      <point x="724" y="959" type="line"/>
      <point x="724" y="812" type="line"/>
      <point x="407" y="812" type="line"/>
      <point x="290" y="812"/>
      <point x="249" y="766"/>
      <point x="249" y="706" type="curve" smooth="yes"/>
      <point x="249" y="630"/>
      <point x="342" y="568"/>
      <point x="564" y="556" type="curve"/>
    </contour>
    <contour>
      <point x="1059" y="1168" type="line"/>
      <point x="1266" y="1168" type="line"/>
      <point x="1266" y="-1" type="line"/>
      <point x="1059" y="-1" type="line"/>
    </contour>
    <contour>
      <point x="1521" y="1136" type="line"/>
      <point x="-30" y="1136" type="line"/>
      <point x="-30" y="1283" type="line"/>
      <point x="1521" y="1283" type="line"/>
    </contour>
    <contour>
      <point x="820" y="489" type="line"/>
      <point x="804" y="489" type="line"/>
      <point x="605" y="489"/>
      <point x="540" y="418"/>
      <point x="540" y="346" type="curve" smooth="yes"/>
      <point x="540" y="278"/>
      <point x="608" y="225"/>
      <point x="717" y="225" type="curve" smooth="yes"/>
      <point x="855" y="225"/>
      <point x="1018" y="300"/>
      <point x="1104" y="446" type="curve"/>
      <point x="1104" y="183" type="line"/>
      <point x="1024" y="112"/>
      <point x="882" y="56"/>
      <point x="727" y="56" type="curve" smooth="yes"/>
      <point x="486" y="56"/>
      <point x="337" y="198"/>
      <point x="337" y="366" type="curve" smooth="yes"/>
      <point x="337" y="510"/>
      <point x="449" y="641"/>
      <point x="748" y="641" type="curve" smooth="yes"/>
      <point x="777" y="641" type="line"/>
    </contour>
    <contour>
      <point x="1059" y="-1" type="move" name="btm"/>
    </contour>
    <contour>
      <point x="1059" y="1283" type="move" name="top"/>
    </contour>
  </outline>
</glyph>
<glyph name="ddaddhadeva" format="1">
  <advance width="1187"/>
  <outline>
    <contour>
      <point x="645" y="264" type="line"/>
      <point x="849" y="264" type="line"/>
      <point x="849" y="-45" type="line"/>
      <point x="571" y="-45" type="line"/>
      <point x="333" y="-45"/>
      <point x="264" y="-131"/>
      <point x="264" y="-239" type="curve" smooth="yes"/>
      <point x="264" y="-361"/>
      <point x="404" y="-457"/>
      <point x="633" y="-457" type="curve" smooth="yes"/>
      <point x="817" y="-457"/>
      <point x="879" y="-407"/>
      <point x="879" y="-354" type="curve" smooth="yes"/>
      <point x="879" y="-309"/>
      <point x="840" y="-273"/>
      <point x="758" y="-273" type="curve" smooth="yes"/>
      <point x="668" y="-273"/>
      <point x="608" y="-330"/>
      <point x="608" y="-393" type="curve" smooth="yes"/>
      <point x="608" y="-443"/>
      <point x="625" y="-482"/>
      <point x="657" y="-520" type="curve"/>
      <point x="499" y="-533" type="line"/>
      <point x="467" y="-480"/>
      <point x="451" y="-433"/>
      <point x="451" y="-366" type="curve" smooth="yes"/>
      <point x="451" y="-266"/>
      <point x="546" y="-152"/>
      <point x="750" y="-152" type="curve" smooth="yes"/>
      <point x="949" y="-152"/>
      <point x="1030" y="-250"/>
      <point x="1030" y="-358" type="curve" smooth="yes"/>
      <point x="1030" y="-475"/>
      <point x="899" y="-583"/>
      <point x="643" y="-583" type="curve" smooth="yes"/>
      <point x="276" y="-583"/>
      <point x="78" y="-409"/>
      <point x="78" y="-208" type="curve" smooth="yes"/>
      <point x="78" y="-49"/>
      <point x="198" y="101"/>
      <point x="514" y="101" type="curve" smooth="yes"/>
      <point x="686" y="101" type="line"/>
      <point x="645" y="61" type="line"/>
    </contour>
    <contour>
      <point x="740" y="1167" type="line"/>
      <point x="947" y="1167" type="line"/>
      <point x="947" y="836" type="line"/>
      <point x="496" y="836" type="line"/>
      <point x="380" y="836"/>
      <point x="339" y="795"/>
      <point x="339" y="744" type="curve" smooth="yes"/>
      <point x="339" y="692"/>
      <point x="377" y="652"/>
      <point x="463" y="628" type="curve"/>
      <point x="376" y="636" type="line"/>
      <point x="472" y="682"/>
      <point x="577" y="708"/>
      <point x="699" y="708" type="curve" smooth="yes"/>
      <point x="927" y="708"/>
      <point x="1056" y="602"/>
      <point x="1056" y="454" type="curve" smooth="yes"/>
      <point x="1056" y="307"/>
      <point x="925" y="190"/>
      <point x="641" y="190" type="curve" smooth="yes"/>
      <point x="464" y="190"/>
      <point x="293" y="230"/>
      <point x="101" y="331" type="curve"/>
      <point x="139" y="483" type="line"/>
      <point x="318" y="379"/>
      <point x="482" y="339"/>
      <point x="620" y="339" type="curve" smooth="yes"/>
      <point x="800" y="339"/>
      <point x="869" y="394"/>
      <point x="869" y="456" type="curve" smooth="yes"/>
      <point x="869" y="516"/>
      <point x="812" y="563"/>
      <point x="688" y="563" type="curve" smooth="yes"/>
      <point x="594" y="563"/>
      <point x="499" y="533"/>
      <point x="426" y="494" type="curve"/>
      <point x="414" y="494" type="line"/>
      <point x="243" y="562"/>
      <point x="156" y="665"/>
      <point x="156" y="773" type="curve" smooth="yes"/>
      <point x="156" y="873"/>
      <point x="239" y="977"/>
      <point x="460" y="977" type="curve" smooth="yes"/>
      <point x="792" y="977" type="line"/>
      <point x="740" y="923" type="line"/>
    </contour>
    <contour>
      <point x="1217" y="1136" type="line"/>
      <point x="-30" y="1136" type="line"/>
      <point x="-30" y="1283" type="line"/>
      <point x="1217" y="1283" type="line"/>
    </contour>
    <contour>
      <point x="515" y="-576" type="move" name="btm"/>
    </contour>
    <contour>
      <point x="726" y="1283" type="move" name="top"/>
    </contour>
  </outline>
</glyph>
<glyph name="ddhaddhadeva" format="1">
  <advance width="1178"/>
  <outline>
    <contour>
      <point x="1208" y="1136" type="line"/>
      <point x="-30" y="1136" type="line"/>
      <point x="-30" y="1283" type="line"/>
      <point x="1208" y="1283" type="line"/>
    </contour>
    <contour>
      <point x="727" y="1166" type="line"/>
      <point x="934" y="1166" type="line"/>
      <point x="934" y="815" type="line"/>
      <point x="629" y="815" type="line"/>
      <point x="377" y="815"/>
      <point x="291" y="720"/>
      <point x="291" y="592" type="curve" smooth="yes"/>
      <point x="291" y="454"/>
      <point x="449" y="347"/>
      <point x="678" y="347" type="curve" smooth="yes"/>
      <point x="858" y="347"/>
      <point x="939" y="403"/>
      <point x="939" y="462" type="curve" smooth="yes"/>
      <point x="939" y="515"/>
      <point x="892" y="547"/>
      <point x="812" y="547" type="curve" smooth="yes"/>
      <point x="721" y="547"/>
      <point x="662" y="498"/>
      <point x="662" y="424" type="curve" smooth="yes"/>
      <point x="662" y="375"/>
      <point x="683" y="335"/>
      <point x="710" y="297" type="curve"/>
      <point x="551" y="280" type="line"/>
      <point x="512" y="333"/>
      <point x="495" y="387"/>
      <point x="495" y="451" type="curve" smooth="yes"/>
      <point x="495" y="572"/>
      <point x="599" y="682"/>
      <point x="803" y="682" type="curve" smooth="yes"/>
      <point x="999" y="682"/>
      <point x="1107" y="579"/>
      <point x="1107" y="454" type="curve" smooth="yes"/>
      <point x="1107" y="321"/>
      <point x="961" y="215"/>
      <point x="690" y="215" type="curve" smooth="yes"/>
      <point x="303" y="215"/>
      <point x="100" y="407"/>
      <point x="100" y="631" type="curve" smooth="yes"/>
      <point x="100" y="810"/>
      <point x="244" y="967"/>
      <point x="559" y="967" type="curve" smooth="yes"/>
      <point x="769" y="967" type="line"/>
      <point x="727" y="933" type="line"/>
    </contour>
    <contour>
      <point x="658" y="264" type="line"/>
      <point x="862" y="264" type="line"/>
      <point x="862" y="-52" type="line"/>
      <point x="593" y="-52" type="line"/>
      <point x="361" y="-52"/>
      <point x="290" y="-138"/>
      <point x="290" y="-246" type="curve" smooth="yes"/>
      <point x="290" y="-368"/>
      <point x="412" y="-464"/>
      <point x="648" y="-464" type="curve" smooth="yes"/>
      <point x="831" y="-464"/>
      <point x="891" y="-414"/>
      <point x="891" y="-362" type="curve" smooth="yes"/>
      <point x="891" y="-316"/>
      <point x="854" y="-280"/>
      <point x="773" y="-280" type="curve" smooth="yes"/>
      <point x="685" y="-280"/>
      <point x="625" y="-336"/>
      <point x="625" y="-400" type="curve" smooth="yes"/>
      <point x="625" y="-450"/>
      <point x="642" y="-489"/>
      <point x="674" y="-527" type="curve"/>
      <point x="514" y="-540" type="line"/>
      <point x="482" y="-487"/>
      <point x="467" y="-438"/>
      <point x="467" y="-373" type="curve" smooth="yes"/>
      <point x="467" y="-270"/>
      <point x="560" y="-159"/>
      <point x="758" y="-159" type="curve" smooth="yes"/>
      <point x="957" y="-159"/>
      <point x="1045" y="-258"/>
      <point x="1045" y="-368" type="curve" smooth="yes"/>
      <point x="1045" y="-488"/>
      <point x="924" y="-594"/>
      <point x="659" y="-594" type="curve" smooth="yes"/>
      <point x="292" y="-594"/>
      <point x="106" y="-414"/>
      <point x="106" y="-215" type="curve" smooth="yes"/>
      <point x="106" y="-57"/>
      <point x="227" y="94"/>
      <point x="537" y="94" type="curve" smooth="yes"/>
      <point x="699" y="94" type="line"/>
      <point x="658" y="54" type="line"/>
    </contour>
    <contour>
      <point x="515" y="-590" type="move" name="btm"/>
    </contour>
    <contour>
      <point x="709" y="1283" type="move" name="top"/>
    </contour>
  </outline>
</glyph>
<glyph name="ddhanuktaradeva" format="1">
  <advance width="1194"/>
  <outline>
    <component base="nuktadeva" xOffset="942" yOffset="338"/>
    <component base="ddharadeva"/>
    <contour>
      <point x="566" y="-296" type="move" name="btm"/>
    </contour>
    <contour>
      <point x="725" y="1283" type="move" name="top"/>
    </contour>
  </outline>
</glyph>
<glyph name="dhaprehalfdeva" format="1">
  <advance width="841"/>
  <outline>
    <contour>
      <point x="727" y="720" type="line"/>
      <point x="716" y="719" type="line"/>
      <point x="511" y="713"/>
      <point x="444" y="627"/>
      <point x="444" y="536" type="curve" smooth="yes"/>
      <point x="444" y="447"/>
      <point x="527" y="387"/>
      <point x="625" y="387" type="curve" smooth="yes"/>
      <point x="791" y="387"/>
      <point x="927" y="474"/>
      <point x="1039" y="607" type="curve"/>
      <point x="1140" y="452" type="line"/>
      <point x="1007" y="312"/>
      <point x="851" y="216"/>
      <point x="651" y="216" type="curve" smooth="yes"/>
      <point x="412" y="216"/>
      <point x="254" y="365"/>
      <point x="254" y="561" type="curve" smooth="yes"/>
      <point x="254" y="719"/>
      <point x="368" y="885"/>
      <point x="663" y="885" type="curve" smooth="yes"/>
      <point x="674" y="885" type="line"/>
    </contour>
    <contour>
      <point x="362" y="727" type="line"/>
      <point x="163" y="778"/>
      <point x="39" y="901"/>
      <point x="39" y="1060" type="curve" smooth="yes"/>
      <point x="39" y="1207"/>
      <point x="154" y="1328"/>
      <point x="364" y="1328" type="curve" smooth="yes"/>
      <point x="455" y="1328"/>
      <point x="521" y="1312"/>
      <point x="582" y="1285" type="curve"/>
      <point x="560" y="1147" type="line"/>
      <point x="511" y="1166"/>
      <point x="469" y="1176"/>
      <point x="404" y="1176" type="curve" smooth="yes"/>
      <point x="305" y="1176"/>
      <point x="243" y="1118"/>
      <point x="243" y="1037" type="curve" smooth="yes"/>
      <point x="243" y="944"/>
      <point x="342" y="864"/>
      <point x="521" y="846" type="curve"/>
    </contour>
  </outline>
</glyph>
<glyph name="eshortvowelsignrephanusdeva" format="1">
  <advance width="0"/>
  <outline>
    <contour>
      <point x="-393" y="1244" type="line"/>
      <point x="-409" y="1339"/>
      <point x="-438" y="1436"/>
      <point x="-438" y="1535" type="curve" smooth="yes"/>
      <point x="-438" y="1688"/>
      <point x="-324" y="1814"/>
      <point x="-105" y="1814" type="curve" smooth="yes"/>
      <point x="-41" y="1814"/>
      <point x="9" y="1807"/>
      <point x="56" y="1794" type="curve"/>
      <point x="45" y="1667" type="line"/>
      <point x="11" y="1674"/>
      <point x="-29" y="1679"/>
      <point x="-69" y="1679" type="curve" smooth="yes"/>
      <point x="-185" y="1679"/>
      <point x="-240" y="1604"/>
      <point x="-240" y="1491" type="curve" smooth="yes"/>
      <point x="-240" y="1244" type="line"/>
    </contour>
    <contour>
      <point x="-59" y="1571" type="curve" smooth="yes"/>
      <point x="6" y="1571"/>
      <point x="39" y="1527"/>
      <point x="39" y="1476" type="curve" smooth="yes"/>
      <point x="39" y="1426"/>
      <point x="6" y="1380"/>
      <point x="-59" y="1380" type="curve" smooth="yes"/>
      <point x="-120" y="1380"/>
      <point x="-155" y="1425"/>
      <point x="-155" y="1476" type="curve" smooth="yes"/>
      <point x="-155" y="1527"/>
      <point x="-121" y="1571"/>
    </contour>
    <component base="eshortvowelsigndeva"/>
    <contour>
      <point x="-434" y="1283" type="move" name="_top"/>
    </contour>
  </outline>
</glyph>
<glyph name="ghaprehalfdeva" format="1">
  <advance width="928"/>
  <outline>
    <contour>
      <point x="769" y="699" type="line"/>
      <point x="755" y="699" type="line"/>
      <point x="554" y="699"/>
      <point x="482" y="603"/>
      <point x="482" y="510" type="curve" smooth="yes"/>
      <point x="482" y="419"/>
      <point x="556" y="353"/>
      <point x="668" y="353" type="curve" smooth="yes"/>
      <point x="808" y="353"/>
      <point x="962" y="428"/>
      <point x="1106" y="607" type="curve"/>
      <point x="1204" y="450" type="line"/>
      <point x="1043" y="264"/>
      <point x="903" y="174"/>
      <point x="692" y="174" type="curve" smooth="yes"/>
      <point x="444" y="174"/>
      <point x="291" y="339"/>
      <point x="291" y="530" type="curve" smooth="yes"/>
      <point x="291" y="694"/>
      <point x="407" y="865"/>
      <point x="700" y="865" type="curve" smooth="yes"/>
      <point x="738" y="865" type="line"/>
    </contour>
    <contour>
      <point x="400" y="712" type="line"/>
      <point x="197" y="770"/>
      <point x="101" y="903"/>
      <point x="101" y="1052" type="curve" smooth="yes"/>
      <point x="101" y="1115"/>
      <point x="116" y="1177"/>
      <point x="154" y="1231" type="curve"/>
      <point x="360" y="1187" type="line"/>
      <point x="320" y="1140"/>
      <point x="307" y="1089"/>
      <point x="307" y="1034" type="curve" smooth="yes"/>
      <point x="307" y="947"/>
      <point x="380" y="856"/>
      <point x="560" y="831" type="curve"/>
    </contour>
    <contour>
      <point x="-30" y="1136" type="line"/>
      <point x="-30" y="1283" type="line"/>
      <point x="958" y="1283" type="line"/>
      <point x="958" y="1136" type="line"/>
    </contour>
  </outline>
</glyph>
<glyph name="haladeva" format="1">
  <advance width="1454"/>
  <outline>
    <contour>
      <point x="1146" y="372" type="line"/>
      <point x="1149" y="181" type="line"/>
      <point x="871" y="-34" type="line"/>
      <point x="770" y="78" type="line"/>
    </contour>
    <contour>
      <point x="1006" y="197" type="curve"/>
      <point x="904" y="101" type="line"/>
      <point x="843" y="174"/>
      <point x="800" y="202"/>
      <point x="743" y="202" type="curve" smooth="yes"/>
      <point x="689" y="202"/>
      <point x="651" y="162"/>
      <point x="651" y="111" type="curve" smooth="yes"/>
      <point x="650" y="50"/>
      <point x="683" y="5"/>
      <point x="770" y="-73" type="curve"/>
      <point x="660" y="-152" type="line"/>
      <point x="553" y="-60"/>
      <point x="497" y="31"/>
      <point x="497" y="140" type="curve" smooth="yes"/>
      <point x="497" y="247"/>
      <point x="579" y="347"/>
      <point x="715" y="347" type="curve" smooth="yes"/>
      <point x="830" y="347"/>
      <point x="913" y="299"/>
    </contour>
    <contour>
      <point x="1484" y="1136" type="line"/>
      <point x="-30" y="1136" type="line"/>
      <point x="-30" y="1283" type="line"/>
      <point x="1484" y="1283" type="line"/>
    </contour>
    <contour>
      <point x="1023" y="1162" type="line"/>
      <point x="1230" y="1162" type="line"/>
      <point x="1230" y="785" type="line"/>
      <point x="441" y="785" type="line"/>
      <point x="335" y="785"/>
      <point x="292" y="734"/>
      <point x="292" y="673" type="curve" smooth="yes"/>
      <point x="292" y="608"/>
      <point x="348" y="554"/>
      <point x="455" y="524" type="curve"/>
      <point x="326" y="402" type="line"/>
      <point x="180" y="476"/>
      <point x="92" y="577"/>
      <point x="92" y="706" type="curve" smooth="yes"/>
      <point x="92" y="828"/>
      <point x="186" y="936"/>
      <point x="376" y="936" type="curve" smooth="yes"/>
      <point x="1062" y="936" type="line"/>
      <point x="1023" y="891" type="line"/>
    </contour>
    <contour>
      <point x="728" y="453" type="curve" smooth="yes"/>
      <point x="474" y="453"/>
      <point x="351" y="316"/>
      <point x="351" y="157" type="curve" smooth="yes"/>
      <point x="351" y="14"/>
      <point x="425" y="-119"/>
      <point x="687" y="-298" type="curve"/>
      <point x="557" y="-402" type="line"/>
      <point x="284" y="-216"/>
      <point x="166" y="-19"/>
      <point x="166" y="192" type="curve" smooth="yes"/>
      <point x="166" y="398"/>
      <point x="331" y="623"/>
      <point x="715" y="623" type="curve" smooth="yes"/>
      <point x="1105" y="623"/>
      <point x="1297" y="429"/>
      <point x="1297" y="162" type="curve" smooth="yes"/>
      <point x="1297" y="-170" type="line"/>
      <point x="1114" y="-170" type="line"/>
      <point x="1114" y="166" type="line"/>
      <point x="1114" y="325"/>
      <point x="1006" y="453"/>
    </contour>
    <contour>
      <point x="1111" y="-170" type="move" name="btm"/>
    </contour>
    <contour>
      <point x="1103" y="1283" type="move" name="top"/>
    </contour>
  </outline>
</glyph>
<glyph name="hamadeva" format="1">
  <advance width="1746"/>
  <outline>
    <contour>
      <point x="366" y="173" type="curve" smooth="yes"/>
      <point x="366" y="17"/>
      <point x="459" y="-111"/>
      <point x="715" y="-274" type="curve"/>
      <point x="590" y="-384" type="line"/>
      <point x="319" y="-227"/>
      <point x="175" y="-25"/>
      <point x="175" y="205" type="curve" smooth="yes"/>
      <point x="175" y="418"/>
      <point x="334" y="603"/>
      <point x="601" y="603" type="curve" smooth="yes"/>
      <point x="879" y="603"/>
      <point x="1023" y="436"/>
      <point x="1023" y="246" type="curve" smooth="yes"/>
      <point x="1023" y="152" type="line"/>
      <point x="969" y="219" type="line"/>
      <point x="1384" y="219" type="line"/>
      <point x="1384" y="49" type="line"/>
      <point x="984" y="49" type="line"/>
      <point x="1024" y="86" type="line"/>
      <point x="1024" y="-45" type="line"/>
      <point x="1024" y="-101"/>
      <point x="1000" y="-134"/>
      <point x="948" y="-134" type="curve" smooth="yes"/>
      <point x="904" y="-134"/>
      <point x="839" y="-101"/>
      <point x="779" y="-42" type="curve" smooth="yes"/>
      <point x="719" y="18"/>
      <point x="676" y="89"/>
      <point x="676" y="140" type="curve" smooth="yes"/>
      <point x="676" y="187"/>
      <point x="705" y="219"/>
      <point x="764" y="219" type="curve" smooth="yes"/>
      <point x="864" y="219" type="line"/>
      <point x="829" y="173" type="line"/>
      <point x="829" y="259" type="line"/>
      <point x="829" y="360"/>
      <point x="753" y="432"/>
      <point x="618" y="432" type="curve" smooth="yes"/>
      <point x="461" y="432"/>
      <point x="366" y="317"/>
    </contour>
    <contour>
      <point x="781" y="1162" type="line"/>
      <point x="988" y="1162" type="line"/>
      <point x="988" y="785" type="line"/>
      <point x="440" y="785" type="line"/>
      <point x="335" y="785"/>
      <point x="292" y="734"/>
      <point x="292" y="673" type="curve" smooth="yes"/>
      <point x="292" y="608"/>
      <point x="348" y="554"/>
      <point x="455" y="524" type="curve"/>
      <point x="326" y="402" type="line"/>
      <point x="180" y="475"/>
      <point x="92" y="579"/>
      <point x="92" y="708" type="curve" smooth="yes"/>
      <point x="92" y="830"/>
      <point x="186" y="936"/>
      <point x="376" y="936" type="curve" smooth="yes"/>
      <point x="820" y="936" type="line"/>
      <point x="781" y="891" type="line"/>
    </contour>
    <contour>
      <point x="-30" y="1136" type="line"/>
      <point x="-30" y="1283" type="line"/>
      <point x="1776" y="1283" type="line"/>
      <point x="1776" y="1136" type="line"/>
    </contour>
    <contour>
      <point x="1321" y="1158" type="line"/>
      <point x="1528" y="1158" type="line"/>
      <point x="1528" y="-236" type="line"/>
      <point x="1321" y="-236" type="line"/>
    </contour>
    <contour>
      <point x="1321" y="-236" type="move" name="btm"/>
    </contour>
    <contour>
      <point x="1321" y="1283" type="move" name="top"/>
    </contour>
  </outline>
</glyph>
<glyph name="hannadeva" format="1">
  <advance width="1425"/>
  <outline>
    <contour>
      <point x="806" y="472" type="line"/>
      <point x="968" y="472" type="line"/>
      <point x="968" y="219" type="line"/>
      <point x="968" y="65"/>
      <point x="891" y="-33"/>
      <point x="732" y="-33" type="curve" smooth="yes"/>
      <point x="567" y="-33"/>
      <point x="484" y="75"/>
      <point x="484" y="255" type="curve" smooth="yes"/>
      <point x="484" y="472" type="line"/>
      <point x="646" y="472" type="line"/>
      <point x="646" y="214" type="line"/>
      <point x="646" y="144"/>
      <point x="675" y="111"/>
      <point x="727" y="111" type="curve" smooth="yes"/>
      <point x="779" y="111"/>
      <point x="806" y="149"/>
      <point x="806" y="223" type="curve" smooth="yes"/>
    </contour>
    <contour>
      <point x="1455" y="1136" type="line"/>
      <point x="-30" y="1136" type="line"/>
      <point x="-30" y="1283" type="line"/>
      <point x="1455" y="1283" type="line"/>
    </contour>
    <contour>
      <point x="994" y="1162" type="line"/>
      <point x="1201" y="1162" type="line"/>
      <point x="1201" y="785" type="line"/>
      <point x="441" y="785" type="line"/>
      <point x="335" y="785"/>
      <point x="292" y="734"/>
      <point x="292" y="673" type="curve" smooth="yes"/>
      <point x="292" y="608"/>
      <point x="348" y="554"/>
      <point x="455" y="524" type="curve"/>
      <point x="326" y="402" type="line"/>
      <point x="180" y="476"/>
      <point x="92" y="579"/>
      <point x="92" y="708" type="curve" smooth="yes"/>
      <point x="92" y="830"/>
      <point x="186" y="936"/>
      <point x="376" y="936" type="curve" smooth="yes"/>
      <point x="1033" y="936" type="line"/>
      <point x="994" y="891" type="line"/>
    </contour>
    <contour>
      <point x="722" y="452" type="curve" smooth="yes"/>
      <point x="455" y="452"/>
      <point x="351" y="318"/>
      <point x="351" y="151" type="curve" smooth="yes"/>
      <point x="351" y="9"/>
      <point x="422" y="-116"/>
      <point x="685" y="-295" type="curve"/>
      <point x="554" y="-399" type="line"/>
      <point x="277" y="-213"/>
      <point x="163" y="-26"/>
      <point x="163" y="179" type="curve" smooth="yes"/>
      <point x="163" y="406"/>
      <point x="325" y="623"/>
      <point x="709" y="623" type="curve" smooth="yes"/>
      <point x="1091" y="623"/>
      <point x="1268" y="423"/>
      <point x="1268" y="162" type="curve" smooth="yes"/>
      <point x="1268" y="-137" type="line"/>
      <point x="1085" y="-137" type="line"/>
      <point x="1085" y="166" type="line"/>
      <point x="1085" y="325"/>
      <point x="986" y="452"/>
    </contour>
    <contour>
      <point x="1085" y="-138" type="move" name="btm"/>
    </contour>
    <contour>
      <point x="1116" y="1283" type="move" name="top"/>
    </contour>
  </outline>
</glyph>
<glyph name="haprehalfdeva" format="1">
  <advance width="881"/>
  <outline>
    <contour>
      <point x="528" y="1162" type="line"/>
      <point x="735" y="1162" type="line"/>
      <point x="735" y="785" type="line"/>
      <point x="441" y="785" type="line"/>
      <point x="335" y="785"/>
      <point x="292" y="734"/>
      <point x="292" y="673" type="curve" smooth="yes"/>
      <point x="292" y="608"/>
      <point x="348" y="554"/>
      <point x="455" y="524" type="curve"/>
      <point x="326" y="402" type="line"/>
      <point x="180" y="475"/>
      <point x="92" y="577"/>
      <point x="92" y="707" type="curve" smooth="yes"/>
      <point x="92" y="828"/>
      <point x="186" y="936"/>
      <point x="377" y="936" type="curve" smooth="yes"/>
      <point x="567" y="936" type="line"/>
      <point x="528" y="891" type="line"/>
    </contour>
    <contour>
      <point x="674" y="598" type="curve" smooth="yes"/>
      <point x="1132" y="598" type="line"/>
      <point x="1147" y="437" type="line"/>
      <point x="685" y="437" type="line"/>
      <point x="485" y="437"/>
      <point x="406" y="313"/>
      <point x="406" y="203" type="curve" smooth="yes"/>
      <point x="406" y="40"/>
      <point x="536" y="-80"/>
      <point x="970" y="-129" type="curve"/>
      <point x="916" y="-282" type="line"/>
      <point x="430" y="-235"/>
      <point x="204" y="-45"/>
      <point x="204" y="229" type="curve" smooth="yes"/>
      <point x="204" y="416"/>
      <point x="350" y="598"/>
    </contour>
    <contour>
      <point x="911" y="1136" type="line"/>
      <point x="-30" y="1136" type="line"/>
      <point x="-30" y="1283" type="line"/>
      <point x="911" y="1283" type="line"/>
    </contour>
  </outline>
</glyph>
<glyph name="haradeva" format="1">
  <advance width="1221"/>
  <outline>
    <contour>
      <point x="905" y="447" type="line"/>
      <point x="679" y="82" type="line"/>
      <point x="531" y="151" type="line"/>
      <point x="751" y="515" type="line"/>
    </contour>
    <contour>
      <point x="654" y="608" type="curve" smooth="yes"/>
      <point x="945" y="608"/>
      <point x="1095" y="454"/>
      <point x="1095" y="280" type="curve" smooth="yes"/>
      <point x="1095" y="204"/>
      <point x="1076" y="137"/>
      <point x="1041" y="80" type="curve"/>
      <point x="877" y="117" type="line"/>
      <point x="904" y="165"/>
      <point x="920" y="216"/>
      <point x="920" y="271" type="curve" smooth="yes"/>
      <point x="920" y="369"/>
      <point x="841" y="444"/>
      <point x="672" y="444" type="curve" smooth="yes"/>
      <point x="492" y="444"/>
      <point x="389" y="326"/>
      <point x="389" y="204" type="curve" smooth="yes"/>
      <point x="389" y="41"/>
      <point x="535" y="-78"/>
      <point x="970" y="-129" type="curve"/>
      <point x="916" y="-281" type="line"/>
      <point x="438" y="-237"/>
      <point x="195" y="-48"/>
      <point x="195" y="223" type="curve" smooth="yes"/>
      <point x="195" y="436"/>
      <point x="366" y="608"/>
    </contour>
    <contour>
      <point x="1251" y="1136" type="line"/>
      <point x="-30" y="1136" type="line"/>
      <point x="-30" y="1283" type="line"/>
      <point x="1251" y="1283" type="line"/>
    </contour>
    <contour>
      <point x="790" y="1162" type="line"/>
      <point x="997" y="1162" type="line"/>
      <point x="997" y="785" type="line"/>
      <point x="441" y="785" type="line"/>
      <point x="333" y="785"/>
      <point x="291" y="735"/>
      <point x="291" y="673" type="curve" smooth="yes"/>
      <point x="291" y="610"/>
      <point x="349" y="554"/>
      <point x="455" y="524" type="curve"/>
      <point x="329" y="404" type="line"/>
      <point x="183" y="474"/>
      <point x="89" y="579"/>
      <point x="89" y="706" type="curve" smooth="yes"/>
      <point x="89" y="826"/>
      <point x="180" y="936"/>
      <point x="383" y="936" type="curve" smooth="yes"/>
      <point x="829" y="936" type="line"/>
      <point x="790" y="891" type="line"/>
    </contour>
    <contour>
      <point x="785" y="1283" type="move" name="top"/>
    </contour>
  </outline>
</glyph>
<glyph name="haudeva" format="1">
  <advance width="1198"/>
  <outline>
    <contour>
      <point x="768" y="1162" type="line"/>
      <point x="974" y="1162" type="line"/>
      <point x="974" y="785" type="line"/>
      <point x="441" y="785" type="line"/>
      <point x="333" y="785"/>
      <point x="291" y="735"/>
      <point x="291" y="673" type="curve" smooth="yes"/>
      <point x="291" y="610"/>
      <point x="349" y="554"/>
      <point x="455" y="524" type="curve"/>
      <point x="329" y="404" type="line"/>
      <point x="183" y="474"/>
      <point x="89" y="579"/>
      <point x="89" y="706" type="curve" smooth="yes"/>
      <point x="89" y="826"/>
      <point x="180" y="936"/>
      <point x="383" y="936" type="curve" smooth="yes"/>
      <point x="807" y="936" type="line"/>
      <point x="768" y="891" type="line"/>
    </contour>
    <contour>
      <point x="642" y="594" type="curve" smooth="yes"/>
      <point x="906" y="594"/>
      <point x="1062" y="448"/>
      <point x="1062" y="279" type="curve" smooth="yes"/>
      <point x="1062" y="203"/>
      <point x="1043" y="136"/>
      <point x="1008" y="80" type="curve"/>
      <point x="834" y="119" type="line"/>
      <point x="861" y="164"/>
      <point x="875" y="214"/>
      <point x="875" y="269" type="curve" smooth="yes"/>
      <point x="875" y="350"/>
      <point x="805" y="427"/>
      <point x="659" y="427" type="curve" smooth="yes"/>
      <point x="501" y="427"/>
      <point x="406" y="311"/>
      <point x="406" y="203" type="curve" smooth="yes"/>
      <point x="406" y="49"/>
      <point x="527" y="-55"/>
      <point x="826" y="-108" type="curve"/>
      <point x="760" y="-253" type="line"/>
      <point x="391" y="-192"/>
      <point x="203" y="-19"/>
      <point x="203" y="223" type="curve" smooth="yes"/>
      <point x="203" y="425"/>
      <point x="365" y="594"/>
    </contour>
    <contour>
      <point x="1228" y="1136" type="line"/>
      <point x="-30" y="1136" type="line"/>
      <point x="-30" y="1283" type="line"/>
      <point x="1228" y="1283" type="line"/>
    </contour>
    <component base="uvowelsigndeva" xOffset="1086" yOffset="-128"/>
  </outline>
</glyph>
<glyph name="iivowelsign2deva" format="1">
  <advance width="618"/>
  <outline>
    <contour>
      <point x="186" y="1239" type="line"/>
      <point x="91" y="1494"/>
      <point x="-32" y="1597"/>
      <point x="-152" y="1597" type="curve" smooth="yes"/>
      <point x="-228" y="1597"/>
      <point x="-272" y="1546"/>
      <point x="-272" y="1469" type="curve" smooth="yes"/>
      <point x="-272" y="1398"/>
      <point x="-242" y="1326"/>
      <point x="-190" y="1256" type="curve"/>
      <point x="-396" y="1256" type="line"/>
      <point x="-438" y="1334"/>
      <point x="-464" y="1419"/>
      <point x="-464" y="1502" type="curve" smooth="yes"/>
      <point x="-464" y="1649"/>
      <point x="-362" y="1776"/>
      <point x="-170" y="1776" type="curve" smooth="yes"/>
      <point x="66" y="1776"/>
      <point x="271" y="1599"/>
      <point x="395" y="1239" type="curve"/>
    </contour>
    <component base="aavowelsigndeva"/>
  </outline>
</glyph>
<glyph name="jajadeva" format="1">
  <advance width="2348"/>
  <outline>
    <contour>
      <point x="-30" y="1136" type="line"/>
      <point x="-30" y="1283" type="line"/>
      <point x="1142" y="1283" type="line"/>
      <point x="1142" y="1136" type="line"/>
    </contour>
    <contour>
      <point x="700" y="723" type="line"/>
      <point x="712" y="795" type="line"/>
      <point x="868" y="713"/>
      <point x="954" y="587"/>
      <point x="954" y="436" type="curve" smooth="yes"/>
      <point x="954" y="262"/>
      <point x="828" y="117"/>
      <point x="612" y="117" type="curve" smooth="yes"/>
      <point x="402" y="117"/>
      <point x="214" y="247"/>
      <point x="49" y="525" type="curve"/>
      <point x="154" y="666" type="line"/>
      <point x="321" y="394"/>
      <point x="461" y="302"/>
      <point x="589" y="302" type="curve" smooth="yes"/>
      <point x="699" y="302"/>
      <point x="766" y="362"/>
      <point x="766" y="463" type="curve" smooth="yes"/>
      <point x="766" y="584"/>
      <point x="656" y="697"/>
      <point x="470" y="745" type="curve"/>
      <point x="470" y="896" type="line"/>
      <point x="1307" y="896" type="line"/>
      <point x="1294" y="723" type="line"/>
    </contour>
    <component base="jadeva" xOffset="709"/>
    <contour>
      <point x="1870" y="1283" type="move" name="top"/>
    </contour>
  </outline>
</glyph>
<glyph name="janyadeva" format="1">
  <advance width="1603"/>
  <outline>
    <contour>
      <point x="-30" y="1136" type="line"/>
      <point x="-30" y="1283" type="line"/>
      <point x="1633" y="1283" type="line"/>
      <point x="1633" y="1136" type="line"/>
    </contour>
    <contour>
      <point x="1159" y="1176" type="line"/>
      <point x="1369" y="1176" type="line"/>
      <point x="1369" y="0" type="line"/>
      <point x="1159" y="0" type="line"/>
    </contour>
    <contour>
      <point x="526" y="132" type="line"/>
      <point x="797" y="-159" type="line"/>
      <point x="665" y="-250" type="line"/>
      <point x="347" y="98" type="line"/>
      <point x="442" y="28" type="line"/>
      <point x="211" y="28"/>
      <point x="128" y="110"/>
      <point x="128" y="184" type="curve" smooth="yes"/>
      <point x="128" y="248"/>
      <point x="183" y="305"/>
      <point x="261" y="305" type="curve" smooth="yes"/>
      <point x="338" y="305"/>
      <point x="408" y="267"/>
      <point x="511" y="156" type="curve"/>
    </contour>
    <contour>
      <point x="1241" y="801" type="line"/>
      <point x="429" y="801" type="line"/>
      <point x="334" y="801"/>
      <point x="289" y="751"/>
      <point x="289" y="691" type="curve" smooth="yes"/>
      <point x="289" y="630"/>
      <point x="335" y="580"/>
      <point x="419" y="550" type="curve"/>
      <point x="326" y="555" type="line"/>
      <point x="410" y="597"/>
      <point x="506" y="629"/>
      <point x="622" y="629" type="curve" smooth="yes"/>
      <point x="827" y="629"/>
      <point x="947" y="515"/>
      <point x="947" y="360" type="curve" smooth="yes"/>
      <point x="947" y="187"/>
      <point x="773" y="32"/>
      <point x="475" y="32" type="curve"/>
      <point x="430" y="190" type="line"/>
      <point x="655" y="190"/>
      <point x="759" y="279"/>
      <point x="759" y="361" type="curve" smooth="yes"/>
      <point x="759" y="427"/>
      <point x="709" y="469"/>
      <point x="608" y="469" type="curve" smooth="yes"/>
      <point x="538" y="469"/>
      <point x="451" y="435"/>
      <point x="382" y="396" type="curve"/>
      <point x="370" y="396" type="line"/>
      <point x="182" y="484"/>
      <point x="102" y="590"/>
      <point x="102" y="718" type="curve" smooth="yes"/>
      <point x="102" y="841"/>
      <point x="189" y="950"/>
      <point x="407" y="950" type="curve" smooth="yes"/>
      <point x="1219" y="950" type="line"/>
    </contour>
    <contour>
      <point x="1159" y="1283" type="move" name="top"/>
    </contour>
  </outline>
</glyph>
<glyph name="jhadevaNEP" format="1">
  <advance width="1937"/>
  <outline>
    <contour>
      <point x="1230" y="1136" type="line"/>
      <point x="1230" y="1283" type="line"/>
      <point x="1967" y="1283" type="line"/>
      <point x="1967" y="1136" type="line"/>
    </contour>
    <contour>
      <point x="1208" y="486" type="curve"/>
      <point x="1195" y="732" type="line"/>
      <point x="1255" y="769"/>
      <point x="1339" y="800"/>
      <point x="1449" y="800" type="curve" smooth="yes"/>
      <point x="1679" y="800"/>
      <point x="1825" y="644"/>
      <point x="1825" y="451" type="curve" smooth="yes"/>
      <point x="1825" y="330"/>
      <point x="1780" y="196"/>
      <point x="1705" y="95" type="curve"/>
      <point x="1524" y="157" type="line"/>
      <point x="1596" y="259"/>
      <point x="1636" y="359"/>
      <point x="1636" y="458" type="curve" smooth="yes"/>
      <point x="1636" y="554"/>
      <point x="1573" y="624"/>
      <point x="1468" y="624" type="curve" smooth="yes"/>
      <point x="1372" y="624"/>
      <point x="1283" y="575"/>
    </contour>
    <component base="bhadeva"/>
    <contour>
      <point x="983" y="0" type="move" name="btm"/>
    </contour>
    <contour>
      <point x="983" y="1283" type="move" name="top"/>
    </contour>
  </outline>
</glyph>
<glyph name="jharadevaNEP" format="1">
  <advance width="1937"/>
  <outline>
    <contour>
      <point x="1142" y="385" type="line"/>
      <point x="517" y="-84" type="line"/>
      <point x="406" y="55" type="line"/>
      <point x="1039" y="531" type="line"/>
    </contour>
    <component base="jhadevaNEP"/>
    <contour>
      <point x="983" y="0" type="move" name="btm"/>
    </contour>
    <contour>
      <point x="983" y="1283" type="move" name="top"/>
    </contour>
  </outline>
</glyph>
<glyph name="jharaprehalfdevaNEP" format="1">
  <advance width="1504"/>
  <outline>
    <contour>
      <point x="1132" y="1136" type="line"/>
      <point x="1132" y="1283" type="line"/>
      <point x="1534" y="1283" type="line"/>
      <point x="1534" y="1136" type="line"/>
    </contour>
    <contour>
      <point x="1159" y="451" type="curve"/>
      <point x="1143" y="706" type="line"/>
      <point x="1196" y="749"/>
      <point x="1294" y="790"/>
      <point x="1395" y="790" type="curve" smooth="yes"/>
      <point x="1532" y="790"/>
      <point x="1650" y="753"/>
      <point x="1772" y="651" type="curve"/>
      <point x="1724" y="505" type="line"/>
      <point x="1613" y="587"/>
      <point x="1536" y="618"/>
      <point x="1426" y="618" type="curve" smooth="yes"/>
      <point x="1336" y="618"/>
      <point x="1226" y="563"/>
    </contour>
    <component base="bharadeva"/>
  </outline>
</glyph>
<glyph name="jharaprehalfdevaNEP" format="1">
  <advance width="1494"/>
  <outline>
    <contour>
      <point x="1149" y="468" type="curve"/>
      <point x="1133" y="722" type="line"/>
      <point x="1186" y="764"/>
      <point x="1285" y="802"/>
      <point x="1380" y="802" type="curve" smooth="yes"/>
      <point x="1513" y="802"/>
      <point x="1618" y="765"/>
      <point x="1733" y="668" type="curve"/>
      <point x="1689" y="520" type="line"/>
      <point x="1589" y="603"/>
      <point x="1519" y="632"/>
      <point x="1412" y="632" type="curve" smooth="yes"/>
      <point x="1322" y="632"/>
      <point x="1219" y="576"/>
    </contour>
    <contour>
      <point x="1119" y="1136" type="line"/>
      <point x="1119" y="1283" type="line"/>
      <point x="1524" y="1283" type="line"/>
      <point x="1524" y="1136" type="line"/>
    </contour>
    <component base="bharadeva"/>
  </outline>
</glyph>
<glyph name="kassaprehalfdeva" format="1">
  <advance width="979"/>
  <outline>
    <contour>
      <point x="543" y="151" type="line"/>
      <point x="693" y="206" type="line"/>
      <point x="833" y="-98" type="line"/>
      <point x="675" y="-152" type="line"/>
    </contour>
    <contour>
      <point x="285" y="369" type="curve" smooth="yes"/>
      <point x="285" y="281"/>
      <point x="357" y="215"/>
      <point x="481" y="215" type="curve" smooth="yes"/>
      <point x="531" y="215"/>
      <point x="570" y="226"/>
      <point x="654" y="255" type="curve"/>
      <point x="523" y="179" type="line"/>
      <point x="497" y="222"/>
      <point x="491" y="255"/>
      <point x="491" y="290" type="curve" smooth="yes"/>
      <point x="491" y="335"/>
      <point x="537" y="379"/>
      <point x="616" y="379" type="curve" smooth="yes"/>
      <point x="739" y="379"/>
      <point x="849" y="322"/>
      <point x="849" y="246" type="curve" smooth="yes"/>
      <point x="849" y="161"/>
      <point x="715" y="61"/>
      <point x="502" y="61" type="curve" smooth="yes"/>
      <point x="262" y="61"/>
      <point x="97" y="199"/>
      <point x="97" y="386" type="curve" smooth="yes"/>
      <point x="97" y="525"/>
      <point x="188" y="638"/>
      <point x="383" y="753" type="curve" smooth="yes"/>
      <point x="569" y="864"/>
      <point x="634" y="939"/>
      <point x="634" y="1027" type="curve" smooth="yes"/>
      <point x="634" y="1098"/>
      <point x="575" y="1152"/>
      <point x="497" y="1152" type="curve" smooth="yes"/>
      <point x="410" y="1152"/>
      <point x="359" y="1096"/>
      <point x="359" y="1018" type="curve" smooth="yes"/>
      <point x="359" y="876"/>
      <point x="601" y="682"/>
      <point x="1080" y="682" type="curve" smooth="yes"/>
      <point x="1116" y="682"/>
      <point x="1152" y="686"/>
      <point x="1201" y="694" type="curve"/>
      <point x="1205" y="535" type="line"/>
      <point x="1179" y="528"/>
      <point x="1140" y="522"/>
      <point x="1107" y="522" type="curve" smooth="yes"/>
      <point x="502" y="522"/>
      <point x="176" y="791"/>
      <point x="176" y="1050" type="curve" smooth="yes"/>
      <point x="176" y="1192"/>
      <point x="284" y="1314"/>
      <point x="477" y="1314" type="curve" smooth="yes"/>
      <point x="693" y="1314"/>
      <point x="806" y="1183"/>
      <point x="806" y="1028" type="curve" smooth="yes"/>
      <point x="806" y="878"/>
      <point x="709" y="767"/>
      <point x="520" y="646" type="curve" smooth="yes"/>
      <point x="340" y="530"/>
      <point x="285" y="457"/>
    </contour>
  </outline>
</glyph>
<glyph name="kassaraprehalfdeva" format="1">
  <advance width="1033"/>
  <outline>
    <contour>
      <point x="436" y="149" type="line"/>
      <point x="586" y="205" type="line"/>
      <point x="725" y="-98" type="line"/>
      <point x="567" y="-153" type="line"/>
    </contour>
    <contour>
      <point x="229" y="1051" type="curve" smooth="yes"/>
      <point x="229" y="1197"/>
      <point x="336" y="1314"/>
      <point x="533" y="1314" type="curve" smooth="yes"/>
      <point x="749" y="1314"/>
      <point x="862" y="1175"/>
      <point x="862" y="1025" type="curve" smooth="yes"/>
      <point x="862" y="875"/>
      <point x="751" y="746"/>
      <point x="529" y="636" type="curve" smooth="yes"/>
      <point x="295" y="521"/>
      <point x="238" y="449"/>
      <point x="238" y="361" type="curve" smooth="yes"/>
      <point x="238" y="274"/>
      <point x="296" y="215"/>
      <point x="395" y="215" type="curve" smooth="yes"/>
      <point x="445" y="215"/>
      <point x="456" y="223"/>
      <point x="526" y="253" type="curve"/>
      <point x="415" y="177" type="line"/>
      <point x="392" y="221"/>
      <point x="384" y="249"/>
      <point x="384" y="293" type="curve" smooth="yes"/>
      <point x="384" y="335"/>
      <point x="429" y="379"/>
      <point x="510" y="379" type="curve" smooth="yes"/>
      <point x="640" y="379"/>
      <point x="739" y="316"/>
      <point x="739" y="244" type="curve" smooth="yes"/>
      <point x="739" y="167"/>
      <point x="629" y="61"/>
      <point x="408" y="61" type="curve" smooth="yes"/>
      <point x="204" y="61"/>
      <point x="48" y="188"/>
      <point x="48" y="369" type="curve" smooth="yes"/>
      <point x="48" y="521"/>
      <point x="135" y="631"/>
      <point x="397" y="754" type="curve" smooth="yes"/>
      <point x="617" y="858"/>
      <point x="688" y="940"/>
      <point x="688" y="1027" type="curve" smooth="yes"/>
      <point x="688" y="1097"/>
      <point x="631" y="1152"/>
      <point x="552" y="1152" type="curve" smooth="yes"/>
      <point x="465" y="1152"/>
      <point x="414" y="1100"/>
      <point x="414" y="1019" type="curve" smooth="yes"/>
      <point x="414" y="883"/>
      <point x="632" y="684"/>
      <point x="1216" y="682" type="curve"/>
      <point x="1230" y="522" type="line"/>
      <point x="524" y="526"/>
      <point x="229" y="787"/>
    </contour>
    <contour>
      <point x="1230" y="522" type="line"/>
      <point x="913" y="100" type="line"/>
      <point x="765" y="203" type="line"/>
      <point x="1092" y="623" type="line"/>
    </contour>
  </outline>
</glyph>
<glyph name="kharadeva" format="1">
  <advance width="1802"/>
  <outline>
    <contour>
      <point x="1399" y="638" type="curve"/>
      <point x="1399" y="436" type="line"/>
      <point x="1334" y="391"/>
      <point x="1255" y="369"/>
      <point x="1157" y="369" type="curve" smooth="yes"/>
      <point x="964" y="369"/>
      <point x="808" y="510"/>
      <point x="808" y="698" type="curve" smooth="yes"/>
      <point x="808" y="853"/>
      <point x="920" y="965"/>
      <point x="1116" y="965" type="curve" smooth="yes"/>
      <point x="1237" y="965"/>
      <point x="1333" y="941"/>
      <point x="1411" y="902" type="curve"/>
      <point x="1411" y="750" type="line"/>
      <point x="1337" y="792"/>
      <point x="1248" y="817"/>
      <point x="1153" y="817" type="curve" smooth="yes"/>
      <point x="1032" y="817"/>
      <point x="975" y="748"/>
      <point x="975" y="674" type="curve" smooth="yes"/>
      <point x="975" y="585"/>
      <point x="1044" y="522"/>
      <point x="1142" y="522" type="curve" smooth="yes"/>
      <point x="1245" y="522"/>
      <point x="1331" y="561"/>
    </contour>
    <contour>
      <point x="233" y="672" type="line"/>
      <point x="401" y="729"/>
      <point x="448" y="815"/>
      <point x="448" y="971" type="curve" smooth="yes"/>
      <point x="448" y="1192" type="line"/>
      <point x="655" y="1192" type="line"/>
      <point x="655" y="956" type="line"/>
      <point x="655" y="766"/>
      <point x="603" y="600"/>
      <point x="349" y="493" type="curve"/>
    </contour>
    <contour>
      <point x="-30" y="1136" type="line"/>
      <point x="-30" y="1283" type="line"/>
      <point x="1832" y="1283" type="line"/>
      <point x="1832" y="1136" type="line"/>
    </contour>
    <contour>
      <point x="304" y="618" type="line"/>
      <point x="348" y="542"/>
      <point x="387" y="491"/>
      <point x="451" y="427" type="curve" smooth="yes"/>
      <point x="603" y="276"/>
      <point x="824" y="192"/>
      <point x="1098" y="192" type="curve"/>
      <point x="991" y="46" type="line"/>
      <point x="734" y="52"/>
      <point x="483" y="156"/>
      <point x="311" y="328" type="curve" smooth="yes"/>
      <point x="215" y="424"/>
      <point x="134" y="541"/>
      <point x="85" y="640" type="curve" smooth="yes"/>
      <point x="67" y="677"/>
      <point x="55" y="711"/>
      <point x="55" y="736" type="curve" smooth="yes"/>
      <point x="55" y="788"/>
      <point x="92" y="827"/>
      <point x="141" y="827" type="curve" smooth="yes"/>
      <point x="190" y="827"/>
      <point x="221" y="805"/>
      <point x="262" y="747" type="curve" smooth="yes"/>
      <point x="322" y="649" type="line"/>
    </contour>
    <contour>
      <point x="1369" y="1169" type="line"/>
      <point x="1576" y="1169" type="line"/>
      <point x="1576" y="0" type="line"/>
      <point x="1369" y="0" type="line"/>
    </contour>
    <contour>
      <point x="1483" y="329" type="line"/>
      <point x="640" y="-177" type="line"/>
      <point x="536" y="-36" type="line"/>
      <point x="1380" y="473" type="line"/>
    </contour>
    <contour>
      <point x="1349" y="1283" type="move" name="top"/>
    </contour>
  </outline>
</glyph>
<glyph name="lazadeva" format="1">
  <advance width="2725"/>
  <outline>
    <contour>
      <point x="898" y="624" type="curve"/>
      <point x="767" y="520" type="line"/>
      <point x="685" y="632"/>
      <point x="600" y="689"/>
      <point x="496" y="689" type="curve" smooth="yes"/>
      <point x="366" y="689"/>
      <point x="294" y="602"/>
      <point x="294" y="491" type="curve" smooth="yes"/>
      <point x="294" y="377"/>
      <point x="366" y="259"/>
      <point x="527" y="105" type="curve"/>
      <point x="382" y="13" type="line"/>
      <point x="216" y="172"/>
      <point x="102" y="353"/>
      <point x="102" y="531" type="curve" smooth="yes"/>
      <point x="102" y="717"/>
      <point x="233" y="868"/>
      <point x="458" y="868" type="curve" smooth="yes"/>
      <point x="642" y="868"/>
      <point x="789" y="773"/>
    </contour>
    <contour>
      <point x="-30" y="1136" type="line"/>
      <point x="-30" y="1283" type="line"/>
      <point x="1136" y="1283" type="line"/>
      <point x="1136" y="1136" type="line"/>
    </contour>
    <contour>
      <point x="746" y="309" type="curve"/>
      <point x="581" y="390" type="line"/>
      <point x="699" y="662"/>
      <point x="853" y="806"/>
      <point x="1024" y="806" type="curve" smooth="yes"/>
      <point x="1134" y="806"/>
      <point x="1223" y="755"/>
      <point x="1291" y="653" type="curve"/>
      <point x="1187" y="510" type="line"/>
      <point x="1139" y="585"/>
      <point x="1093" y="616"/>
      <point x="1040" y="616" type="curve" smooth="yes"/>
      <point x="949" y="616"/>
      <point x="848" y="538"/>
    </contour>
    <component base="zadeva" xOffset="1132"/>
  </outline>
</glyph>
<glyph name="llanuktaradeva" format="1">
  <advance width="1626"/>
  <outline>
    <component base="llaradeva"/>
    <component base="nuktadeva" xOffset="1115" yOffset="183"/>
    <contour>
      <point x="1114.0" y="1283.0" type="move" name="top"/>
    </contour>
  </outline>
</glyph>
<glyph name="namadeva" format="1">
  <advance width="1891"/>
  <outline>
    <contour>
      <point x="850" y="668" type="line"/>
      <point x="850" y="495" type="line"/>
      <point x="328" y="495" type="line"/>
      <point x="387" y="546" type="line"/>
      <point x="387" y="290" type="line"/>
      <point x="387" y="231"/>
      <point x="356" y="199"/>
      <point x="313" y="199" type="curve" smooth="yes"/>
      <point x="285" y="199"/>
      <point x="258" y="213"/>
      <point x="226" y="244" type="curve" smooth="yes"/>
      <point x="174" y="297"/>
      <point x="103" y="448"/>
      <point x="103" y="559" type="curve" smooth="yes"/>
      <point x="103" y="628"/>
      <point x="140" y="668"/>
      <point x="223" y="668" type="curve" smooth="yes"/>
    </contour>
    <contour>
      <point x="-30" y="1136" type="line"/>
      <point x="-30" y="1283" type="line"/>
      <point x="603" y="1283" type="line"/>
      <point x="603" y="1136" type="line"/>
    </contour>
    <component base="madeva" xOffset="598"/>
  </outline>
</glyph>
<glyph name="naprehalfdeva" format="1">
  <advance width="670"/>
  <outline>
    <contour>
      <point x="889" y="718" type="line"/>
      <point x="889" y="545" type="line"/>
      <point x="325" y="545" type="line"/>
      <point x="384" y="596" type="line"/>
      <point x="384" y="340" type="line"/>
      <point x="384" y="281"/>
      <point x="353" y="250"/>
      <point x="311" y="250" type="curve" smooth="yes"/>
      <point x="283" y="250"/>
      <point x="255" y="263"/>
      <point x="224" y="295" type="curve" smooth="yes"/>
      <point x="171" y="347"/>
      <point x="100" y="499"/>
      <point x="100" y="609" type="curve" smooth="yes"/>
      <point x="100" y="678"/>
      <point x="138" y="718"/>
      <point x="220" y="718" type="curve" smooth="yes"/>
    </contour>
    <contour>
      <point x="-30" y="1136" type="line"/>
      <point x="-30" y="1283" type="line"/>
      <point x="700" y="1283" type="line"/>
      <point x="700" y="1136" type="line"/>
    </contour>
  </outline>
</glyph>
<glyph name="ngamadeva" format="1">
  <advance width="1215"/>
  <outline>
    <contour>
      <point x="753" y="270" type="line"/>
      <point x="938" y="270" type="line"/>
      <point x="938" y="-506" type="line"/>
      <point x="753" y="-506" type="line"/>
    </contour>
    <contour>
      <point x="127" y="-122" type="curve" smooth="yes"/>
      <point x="127" y="-82"/>
      <point x="154" y="-56"/>
      <point x="208" y="-56" type="curve" smooth="yes"/>
      <point x="303" y="-56" type="line"/>
      <point x="275" y="-85" type="line"/>
      <point x="275" y="270" type="line"/>
      <point x="459" y="270" type="line"/>
      <point x="459" y="-88" type="line"/>
      <point x="427" y="-55" type="line"/>
      <point x="805" y="-55" type="line"/>
      <point x="805" y="-210" type="line"/>
      <point x="420" y="-210" type="line"/>
      <point x="459" y="-176" type="line"/>
      <point x="459" y="-297" type="line"/>
      <point x="459" y="-352"/>
      <point x="438" y="-385"/>
      <point x="391" y="-385" type="curve" smooth="yes"/>
      <point x="340" y="-385"/>
      <point x="282" y="-344"/>
      <point x="227" y="-289" type="curve" smooth="yes"/>
      <point x="166" y="-229"/>
      <point x="127" y="-167"/>
    </contour>
    <contour>
      <point x="740" y="1167" type="line"/>
      <point x="947" y="1167" type="line"/>
      <point x="947" y="820" type="line"/>
      <point x="501" y="820" type="line"/>
      <point x="389" y="820"/>
      <point x="347" y="780"/>
      <point x="347" y="724" type="curve" smooth="yes"/>
      <point x="347" y="673"/>
      <point x="389" y="635"/>
      <point x="473" y="605" type="curve"/>
      <point x="386" y="613" type="line"/>
      <point x="476" y="653"/>
      <point x="579" y="679"/>
      <point x="695" y="679" type="curve" smooth="yes"/>
      <point x="914" y="679"/>
      <point x="1053" y="576"/>
      <point x="1053" y="414" type="curve" smooth="yes"/>
      <point x="1053" y="256"/>
      <point x="903" y="139"/>
      <point x="641" y="139" type="curve" smooth="yes"/>
      <point x="480" y="139"/>
      <point x="313" y="176"/>
      <point x="115" y="282" type="curve"/>
      <point x="156" y="444" type="line"/>
      <point x="332" y="336"/>
      <point x="492" y="295"/>
      <point x="620" y="295" type="curve" smooth="yes"/>
      <point x="777" y="295"/>
      <point x="863" y="344"/>
      <point x="863" y="417" type="curve" smooth="yes"/>
      <point x="863" y="484"/>
      <point x="800" y="527"/>
      <point x="683" y="527" type="curve" smooth="yes"/>
      <point x="590" y="527"/>
      <point x="506" y="500"/>
      <point x="438" y="466" type="curve"/>
      <point x="429" y="466" type="line"/>
      <point x="239" y="540"/>
      <point x="164" y="636"/>
      <point x="164" y="755" type="curve" smooth="yes"/>
      <point x="164" y="865"/>
      <point x="246" y="967"/>
      <point x="465" y="967" type="curve" smooth="yes"/>
      <point x="793" y="967" type="line"/>
      <point x="740" y="914" type="line"/>
    </contour>
    <contour>
      <point x="1142" y="845" type="curve" smooth="yes"/>
      <point x="1230" y="845"/>
      <point x="1264" y="792"/>
      <point x="1264" y="731" type="curve" smooth="yes"/>
      <point x="1264" y="670"/>
      <point x="1226" y="616"/>
      <point x="1142" y="616" type="curve" smooth="yes"/>
      <point x="1054" y="616"/>
      <point x="1020" y="671"/>
      <point x="1020" y="731" type="curve" smooth="yes"/>
      <point x="1020" y="792"/>
      <point x="1056" y="845"/>
    </contour>
    <contour>
      <point x="1329" y="1136" type="line"/>
      <point x="-30" y="1136" type="line"/>
      <point x="-30" y="1283" type="line"/>
      <point x="1329" y="1283" type="line"/>
    </contour>
    <contour>
      <point x="493.0" y="-575.0" type="move" name="btm"/>
    </contour>
    <contour>
      <point x="734.0" y="1283.0" type="move" name="top"/>
    </contour>
  </outline>
</glyph>
<glyph name="nyaradeva" format="1">
  <advance width="1716"/>
  <outline>
    <contour>
      <point x="1438" y="328" type="line"/>
      <point x="784" y="-125" type="line"/>
      <point x="679" y="9" type="line"/>
      <point x="1336" y="471" type="line"/>
    </contour>
    <component base="nyadeva"/>
    <contour>
      <point x="1294" y="1283" type="move" name="top"/>
    </contour>
  </outline>
</glyph>
<glyph name="phaprehalfdeva" format="1">
  <advance width="1277"/>
  <outline>
    <contour>
      <point x="926" y="442" type="curve"/>
      <point x="910" y="697" type="line"/>
      <point x="963" y="737"/>
      <point x="1058" y="781"/>
      <point x="1180" y="781" type="curve" smooth="yes"/>
      <point x="1310" y="781"/>
      <point x="1438" y="744"/>
      <point x="1560" y="643" type="curve"/>
      <point x="1513" y="496" type="line"/>
      <point x="1401" y="578"/>
      <point x="1321" y="610"/>
      <point x="1212" y="610" type="curve" smooth="yes"/>
      <point x="1102" y="610"/>
      <point x="994" y="554"/>
    </contour>
    <contour>
      <point x="353" y="1208" type="line"/>
      <point x="353" y="754" type="line"/>
      <point x="353" y="622"/>
      <point x="421" y="559"/>
      <point x="538" y="559" type="curve" smooth="yes"/>
      <point x="625" y="559"/>
      <point x="709" y="589"/>
      <point x="786" y="649" type="curve"/>
      <point x="786" y="429" type="line"/>
      <point x="720" y="402"/>
      <point x="648" y="387"/>
      <point x="568" y="387" type="curve" smooth="yes"/>
      <point x="311" y="387"/>
      <point x="147" y="528"/>
      <point x="147" y="800" type="curve" smooth="yes"/>
      <point x="147" y="1208" type="line"/>
    </contour>
    <contour>
      <point x="-30" y="1136" type="line"/>
      <point x="-30" y="1283" type="line"/>
      <point x="1307" y="1283" type="line"/>
      <point x="1307" y="1136" type="line"/>
    </contour>
    <contour>
      <point x="758" y="1169" type="line"/>
      <point x="965" y="1169" type="line"/>
      <point x="965" y="0" type="line"/>
      <point x="758" y="0" type="line"/>
    </contour>
  </outline>
</glyph>
<glyph name="rephdeva" format="1">
  <advance width="0"/>
  <outline>
    <contour>
      <point x="-430" y="1244" type="line"/>
      <point x="-486" y="1329"/>
      <point x="-528" y="1431"/>
      <point x="-528" y="1529" type="curve" smooth="yes"/>
      <point x="-528" y="1666"/>
      <point x="-423" y="1791"/>
      <point x="-217" y="1791" type="curve" smooth="yes"/>
      <point x="-153" y="1791"/>
      <point x="-109" y="1785"/>
      <point x="-61" y="1774" type="curve"/>
      <point x="-71" y="1636" type="line"/>
      <point x="-109" y="1645"/>
      <point x="-140" y="1648"/>
      <point x="-185" y="1648" type="curve" smooth="yes"/>
      <point x="-285" y="1648"/>
      <point x="-340" y="1587"/>
      <point x="-340" y="1496" type="curve" smooth="yes"/>
      <point x="-340" y="1408"/>
      <point x="-302" y="1336"/>
      <point x="-237" y="1244" type="curve"/>
    </contour>
    <contour>
      <point x="-434" y="1283" type="move" name="_top"/>
    </contour>
  </outline>
</glyph>
<glyph name="rrvocaliclowdeva" format="1">
  <advance width="0"/>
  <outline>
    <contour>
      <point x="-89" y="-581" type="line"/>
      <point x="-143" y="-602"/>
      <point x="-208" y="-618"/>
      <point x="-280" y="-618" type="curve" smooth="yes"/>
      <point x="-457" y="-618"/>
      <point x="-548" y="-537"/>
      <point x="-548" y="-439" type="curve" smooth="yes"/>
      <point x="-548" y="-344"/>
      <point x="-466" y="-257"/>
      <point x="-262" y="-255" type="curve"/>
      <point x="-240" y="-347" type="line"/>
      <point x="-351" y="-352"/>
      <point x="-392" y="-392"/>
      <point x="-392" y="-437" type="curve" smooth="yes"/>
      <point x="-392" y="-479"/>
      <point x="-355" y="-509"/>
      <point x="-271" y="-509" type="curve" smooth="yes"/>
      <point x="-223" y="-509"/>
      <point x="-171" y="-496"/>
      <point x="-114" y="-473" type="curve"/>
    </contour>
    <contour>
      <point x="-153" y="-339" type="line"/>
      <point x="-217" y="-357"/>
      <point x="-295" y="-369"/>
      <point x="-358" y="-369" type="curve" smooth="yes"/>
      <point x="-551" y="-369"/>
      <point x="-655" y="-275"/>
      <point x="-655" y="-164" type="curve" smooth="yes"/>
      <point x="-655" y="-65"/>
      <point x="-570" y="29"/>
      <point x="-351" y="29" type="curve" smooth="yes"/>
      <point x="-306" y="29"/>
      <point x="-254" y="26"/>
      <point x="-225" y="24" type="curve"/>
      <point x="-225" y="-87" type="line"/>
      <point x="-253" y="-87"/>
      <point x="-300" y="-87"/>
      <point x="-331" y="-87" type="curve" smooth="yes"/>
      <point x="-439" y="-87"/>
      <point x="-485" y="-126"/>
      <point x="-485" y="-174" type="curve" smooth="yes"/>
      <point x="-485" y="-217"/>
      <point x="-444" y="-250"/>
      <point x="-349" y="-250" type="curve" smooth="yes"/>
      <point x="-293" y="-250"/>
      <point x="-244" y="-243"/>
      <point x="-176" y="-223" type="curve"/>
    </contour>
    <contour>
      <point x="-388" y="0" type="move" name="_btm"/>
    </contour>
  </outline>
</glyph>
<glyph name="saraprehalfdeva" format="1">
  <advance width="940"/>
  <outline>
    <contour>
      <point x="1203" y="492" type="line"/>
      <point x="846" y="125" type="line"/>
      <point x="722" y="243" type="line"/>
      <point x="1056" y="594" type="line"/>
    </contour>
    <contour>
      <point x="727" y="72" type="line"/>
      <point x="576" y="-29" type="line"/>
      <point x="93" y="656" type="line"/>
      <point x="63" y="700"/>
      <point x="44" y="733"/>
      <point x="44" y="770" type="curve" smooth="yes"/>
      <point x="44" y="817"/>
      <point x="78" y="857"/>
      <point x="134" y="857" type="curve" smooth="yes"/>
      <point x="173" y="857"/>
      <point x="206" y="836"/>
      <point x="230" y="802" type="curve" smooth="yes"/>
      <point x="362" y="611" type="line"/>
      <point x="360" y="590" type="line"/>
    </contour>
    <contour>
      <point x="241" y="647" type="line"/>
      <point x="401" y="690"/>
      <point x="471" y="781"/>
      <point x="471" y="942" type="curve" smooth="yes"/>
      <point x="471" y="1179" type="line"/>
      <point x="678" y="1179" type="line"/>
      <point x="678" y="909" type="line"/>
      <point x="678" y="726"/>
      <point x="588" y="554"/>
      <point x="355" y="480" type="curve"/>
    </contour>
    <contour>
      <point x="-30" y="1136" type="line"/>
      <point x="-30" y="1283" type="line"/>
      <point x="970" y="1283" type="line"/>
      <point x="970" y="1136" type="line"/>
    </contour>
    <contour>
      <point x="498" y="556" type="curve"/>
      <point x="569" y="705" type="line"/>
      <point x="684" y="649"/>
      <point x="816" y="627"/>
      <point x="936" y="627" type="curve" smooth="yes"/>
      <point x="1007" y="627"/>
      <point x="1083" y="640"/>
      <point x="1163" y="664" type="curve"/>
      <point x="1204" y="491" type="line"/>
      <point x="1130" y="469"/>
      <point x="1048" y="454"/>
      <point x="950" y="454" type="curve" smooth="yes"/>
      <point x="806" y="454"/>
      <point x="651" y="485"/>
    </contour>
  </outline>
</glyph>
<glyph name="shadevaMAR" format="1">
  <advance width="1546"/>
  <outline>
    <contour>
      <point x="416" y="1169" type="line"/>
      <point x="623" y="1169" type="line"/>
      <point x="623" y="926" type="line"/>
      <point x="416" y="926" type="line"/>
    </contour>
    <contour>
      <point x="522" y="360" type="line"/>
      <point x="840" y="56" type="line"/>
      <point x="711" y="-60" type="line"/>
      <point x="369" y="272" type="line"/>
    </contour>
    <contour>
      <point x="289" y="197" type="curve" smooth="yes"/>
      <point x="197" y="197"/>
      <point x="160" y="255"/>
      <point x="160" y="331" type="curve" smooth="yes"/>
      <point x="160" y="423"/>
      <point x="221" y="513"/>
      <point x="306" y="513" type="curve" smooth="yes"/>
      <point x="367" y="513"/>
      <point x="418" y="476"/>
      <point x="494" y="390" type="curve"/>
      <point x="386" y="395" type="line"/>
      <point x="572" y="437"/>
      <point x="671" y="541"/>
      <point x="671" y="652" type="curve" smooth="yes"/>
      <point x="671" y="752"/>
      <point x="587" y="818"/>
      <point x="468" y="818" type="curve" smooth="yes"/>
      <point x="352" y="818"/>
      <point x="249" y="777"/>
      <point x="163" y="722" type="curve"/>
      <point x="102" y="888" type="line"/>
      <point x="205" y="941"/>
      <point x="315" y="980"/>
      <point x="474" y="982" type="curve" smooth="yes"/>
      <point x="722" y="984"/>
      <point x="869" y="843"/>
      <point x="869" y="647" type="curve" smooth="yes"/>
      <point x="869" y="388"/>
      <point x="540" y="197"/>
    </contour>
    <contour>
      <point x="1112" y="1169" type="line"/>
      <point x="1319" y="1169" type="line"/>
      <point x="1319" y="0" type="line"/>
      <point x="1112" y="0" type="line"/>
    </contour>
    <contour>
      <point x="1576" y="1136" type="line"/>
      <point x="-24" y="1136" type="line"/>
      <point x="-24" y="1283" type="line"/>
      <point x="1576" y="1283" type="line"/>
    </contour>
    <contour>
      <point x="1112" y="1283" type="move" name="top"/>
    </contour>
  </outline>
</glyph>
<glyph name="shaprehalfdeva" format="1">
  <advance width="938"/>
  <outline>
    <contour>
      <point x="475" y="480" type="line"/>
      <point x="826" y="94" type="line"/>
      <point x="697" y="-19" type="line"/>
      <point x="320" y="391" type="line"/>
    </contour>
    <contour>
      <point x="236" y="324" type="curve" smooth="yes"/>
      <point x="144" y="324"/>
      <point x="107" y="379"/>
      <point x="107" y="457" type="curve" smooth="yes"/>
      <point x="107" y="547"/>
      <point x="166" y="641"/>
      <point x="253" y="641" type="curve" smooth="yes"/>
      <point x="314" y="641"/>
      <point x="367" y="600"/>
      <point x="438" y="519" type="curve"/>
      <point x="335" y="522" type="line"/>
      <point x="541" y="578"/>
      <point x="676" y="729"/>
      <point x="676" y="906" type="curve" smooth="yes"/>
      <point x="676" y="1029"/>
      <point x="580" y="1146"/>
      <point x="456" y="1146" type="curve" smooth="yes"/>
      <point x="370" y="1146"/>
      <point x="325" y="1093"/>
      <point x="325" y="1029" type="curve" smooth="yes"/>
      <point x="325" y="931"/>
      <point x="432" y="844"/>
      <point x="729" y="837" type="curve"/>
      <point x="677" y="692" type="line"/>
      <point x="284" y="715"/>
      <point x="142" y="875"/>
      <point x="142" y="1048" type="curve" smooth="yes"/>
      <point x="142" y="1184"/>
      <point x="242" y="1308"/>
      <point x="436" y="1308" type="curve" smooth="yes"/>
      <point x="676" y="1308"/>
      <point x="851" y="1139"/>
      <point x="851" y="885" type="curve" smooth="yes"/>
      <point x="851" y="548"/>
      <point x="477" y="324"/>
    </contour>
  </outline>
</glyph>
<glyph name="sharaprehalfdeva" format="1">
  <advance width="997"/>
  <outline>
    <contour>
      <point x="1127" y="571" type="line"/>
      <point x="657" y="593"/>
      <point x="419" y="677"/>
      <point x="288" y="808" type="curve" smooth="yes"/>
      <point x="221" y="875"/>
      <point x="185" y="955"/>
      <point x="185" y="1041" type="curve" smooth="yes"/>
      <point x="185" y="1185"/>
      <point x="299" y="1313"/>
      <point x="489" y="1313" type="curve" smooth="yes"/>
      <point x="692" y="1313"/>
      <point x="819" y="1176"/>
      <point x="819" y="1019" type="curve" smooth="yes"/>
      <point x="819" y="864"/>
      <point x="714" y="737"/>
      <point x="476" y="596" type="curve" smooth="yes"/>
      <point x="178" y="419" type="line"/>
      <point x="78" y="576" type="line"/>
      <point x="385" y="751" type="line"/>
      <point x="579" y="863"/>
      <point x="640" y="934"/>
      <point x="640" y="1023" type="curve" smooth="yes"/>
      <point x="640" y="1093"/>
      <point x="588" y="1151"/>
      <point x="499" y="1151" type="curve" smooth="yes"/>
      <point x="415" y="1151"/>
      <point x="365" y="1091"/>
      <point x="365" y="1021" type="curve" smooth="yes"/>
      <point x="365" y="982"/>
      <point x="380" y="945"/>
      <point x="415" y="910" type="curve" smooth="yes"/>
      <point x="500" y="825"/>
      <point x="712" y="758"/>
      <point x="1170" y="724" type="curve"/>
      <point x="1223" y="538" type="line"/>
      <point x="500" y="48" type="line"/>
      <point x="394" y="200" type="line"/>
      <point x="1068" y="652" type="line"/>
    </contour>
  </outline>
</glyph>
<glyph name="shavadeva" format="1">
  <advance width="1503"/>
  <outline>
    <contour>
      <point x="172" y="430" type="line"/>
      <point x="78" y="583" type="line"/>
      <point x="362" y="742" type="line"/>
      <point x="576" y="861"/>
      <point x="641" y="936"/>
      <point x="641" y="1024" type="curve" smooth="yes"/>
      <point x="641" y="1098"/>
      <point x="584" y="1152"/>
      <point x="507" y="1152" type="curve" smooth="yes"/>
      <point x="416" y="1152"/>
      <point x="367" y="1097"/>
      <point x="367" y="1023" type="curve" smooth="yes"/>
      <point x="367" y="885"/>
      <point x="580" y="762"/>
      <point x="1182" y="723" type="curve"/>
      <point x="1136" y="571" type="line"/>
      <point x="416" y="609"/>
      <point x="182" y="819"/>
      <point x="182" y="1050" type="curve" smooth="yes"/>
      <point x="182" y="1189"/>
      <point x="290" y="1314"/>
      <point x="490" y="1314" type="curve" smooth="yes"/>
      <point x="698" y="1314"/>
      <point x="816" y="1182"/>
      <point x="816" y="1019" type="curve" smooth="yes"/>
      <point x="816" y="858"/>
      <point x="701" y="728"/>
      <point x="458" y="592" type="curve" smooth="yes"/>
    </contour>
    <contour>
      <point x="1071" y="1169" type="line"/>
      <point x="1278" y="1169" type="line"/>
      <point x="1278" y="-193" type="line"/>
      <point x="1071" y="-193" type="line"/>
    </contour>
    <contour>
      <point x="1533" y="1136" type="line"/>
      <point x="922" y="1136" type="line"/>
      <point x="922" y="1283" type="line"/>
      <point x="1533" y="1283" type="line"/>
    </contour>
    <contour>
      <point x="1095" y="188" type="curve"/>
      <point x="1095" y="-17" type="line"/>
      <point x="1031" y="-63"/>
      <point x="945" y="-90"/>
      <point x="853" y="-90" type="curve" smooth="yes"/>
      <point x="625" y="-90"/>
      <point x="483" y="51"/>
      <point x="483" y="223" type="curve" smooth="yes"/>
      <point x="483" y="369"/>
      <point x="599" y="490"/>
      <point x="802" y="490" type="curve" smooth="yes"/>
      <point x="933" y="490"/>
      <point x="1047" y="458"/>
      <point x="1134" y="415" type="curve"/>
      <point x="1132" y="260" type="line"/>
      <point x="1037" y="316"/>
      <point x="943" y="343"/>
      <point x="847" y="343" type="curve" smooth="yes"/>
      <point x="716" y="343"/>
      <point x="658" y="282"/>
      <point x="658" y="198" type="curve" smooth="yes"/>
      <point x="658" y="111"/>
      <point x="735" y="58"/>
      <point x="825" y="58" type="curve" smooth="yes"/>
      <point x="927" y="58"/>
      <point x="1012" y="100"/>
    </contour>
    <contour>
      <point x="1071" y="-195" type="move" name="btm"/>
    </contour>
    <contour>
      <point x="1071" y="1283" type="move" name="top"/>
    </contour>
  </outline>
</glyph>
<glyph name="ssaprehalfdeva" format="1">
  <advance width="648"/>
  <outline>
    <contour>
      <point x="850" y="602" type="line"/>
      <point x="742" y="516" type="line"/>
      <point x="246" y="1119" type="line"/>
      <point x="354" y="1202" type="line"/>
    </contour>
    <contour>
      <point x="678" y="1136" type="line"/>
      <point x="-30" y="1136" type="line"/>
      <point x="-30" y="1283" type="line"/>
      <point x="678" y="1283" type="line"/>
    </contour>
    <contour>
      <point x="342" y="1208" type="line"/>
      <point x="342" y="723" type="line"/>
      <point x="342" y="589"/>
      <point x="415" y="528"/>
      <point x="538" y="528" type="curve" smooth="yes"/>
      <point x="656" y="528"/>
      <point x="769" y="567"/>
      <point x="868" y="637" type="curve"/>
      <point x="955" y="481" type="line"/>
      <point x="841" y="404"/>
      <point x="708" y="356"/>
      <point x="556" y="356" type="curve" smooth="yes"/>
      <point x="310" y="356"/>
      <point x="142" y="496"/>
      <point x="142" y="764" type="curve" smooth="yes"/>
      <point x="142" y="1208" type="line"/>
    </contour>
  </outline>
</glyph>
<glyph name="ssattadeva" format="1">
  <advance width="1237"/>
  <outline>
    <contour>
      <point x="891" y="636" type="line"/>
      <point x="787" y="558" type="line"/>
      <point x="316" y="1149" type="line"/>
      <point x="420" y="1229" type="line"/>
    </contour>
    <contour>
      <point x="1267" y="1136" type="line"/>
      <point x="-30" y="1136" type="line"/>
      <point x="-30" y="1283" type="line"/>
      <point x="1267" y="1283" type="line"/>
    </contour>
    <contour>
      <point x="837" y="835" type="curve" smooth="yes"/>
      <point x="837" y="1169" type="line"/>
      <point x="1041" y="1169" type="line"/>
      <point x="1041" y="823" type="line"/>
      <point x="1041" y="608"/>
      <point x="901" y="466"/>
      <point x="617" y="466" type="curve" smooth="yes"/>
      <point x="352" y="466"/>
      <point x="166" y="605"/>
      <point x="166" y="861" type="curve" smooth="yes"/>
      <point x="166" y="1208" type="line"/>
      <point x="370" y="1208" type="line"/>
      <point x="370" y="813" type="line"/>
      <point x="370" y="689"/>
      <point x="475" y="636"/>
      <point x="586" y="636" type="curve" smooth="yes"/>
      <point x="757" y="636"/>
      <point x="837" y="693"/>
    </contour>
    <contour>
      <point x="626" y="467" type="line"/>
      <point x="466" y="467"/>
      <point x="365" y="383"/>
      <point x="365" y="260" type="curve" smooth="yes"/>
      <point x="365" y="151"/>
      <point x="463" y="66"/>
      <point x="625" y="66" type="curve" smooth="yes"/>
      <point x="749" y="66"/>
      <point x="835" y="87"/>
      <point x="962" y="145" type="curve"/>
      <point x="1010" y="-22" type="line"/>
      <point x="876" y="-80"/>
      <point x="781" y="-102"/>
      <point x="635" y="-102" type="curve" smooth="yes"/>
      <point x="327" y="-102"/>
      <point x="161" y="59"/>
      <point x="161" y="280" type="curve" smooth="yes"/>
      <point x="161" y="474"/>
      <point x="321" y="625"/>
      <point x="584" y="625" type="curve"/>
    </contour>
    <contour>
      <point x="528.0" y="-102.0" type="move" name="btm"/>
    </contour>
    <contour>
      <point x="837.0" y="1283.0" type="move" name="top"/>
    </contour>
  </outline>
</glyph>
<glyph name="ssatthadeva" format="1">
  <advance width="1237"/>
  <outline>
    <contour>
      <point x="1267" y="1136" type="line"/>
      <point x="-30" y="1136" type="line"/>
      <point x="-30" y="1283" type="line"/>
      <point x="1267" y="1283" type="line"/>
    </contour>
    <contour>
      <point x="837" y="835" type="curve" smooth="yes"/>
      <point x="837" y="1169" type="line"/>
      <point x="1041" y="1169" type="line"/>
      <point x="1041" y="823" type="line"/>
      <point x="1041" y="608"/>
      <point x="901" y="466"/>
      <point x="617" y="466" type="curve" smooth="yes"/>
      <point x="352" y="466"/>
      <point x="166" y="605"/>
      <point x="166" y="861" type="curve" smooth="yes"/>
      <point x="166" y="1208" type="line"/>
      <point x="370" y="1208" type="line"/>
      <point x="370" y="813" type="line"/>
      <point x="370" y="689"/>
      <point x="475" y="636"/>
      <point x="586" y="636" type="curve" smooth="yes"/>
      <point x="758" y="636"/>
      <point x="837" y="693"/>
    </contour>
    <contour>
      <point x="905" y="264" type="curve" smooth="yes"/>
      <point x="905" y="345"/>
      <point x="855" y="423"/>
      <point x="773" y="466" type="curve"/>
      <point x="630" y="466" type="line"/>
      <point x="417" y="466"/>
      <point x="340" y="367"/>
      <point x="340" y="250" type="curve" smooth="yes"/>
      <point x="340" y="144"/>
      <point x="438" y="52"/>
      <point x="615" y="52" type="curve" smooth="yes"/>
      <point x="812" y="52"/>
      <point x="905" y="146"/>
    </contour>
    <contour>
      <point x="811" y="624" type="line"/>
      <point x="1004" y="544"/>
      <point x="1093" y="401"/>
      <point x="1093" y="245" type="curve" smooth="yes"/>
      <point x="1093" y="59"/>
      <point x="941" y="-106"/>
      <point x="638" y="-106" type="curve" smooth="yes"/>
      <point x="305" y="-107"/>
      <point x="143" y="72"/>
      <point x="143" y="281" type="curve" smooth="yes"/>
      <point x="143" y="472"/>
      <point x="291" y="624"/>
      <point x="558" y="624" type="curve" smooth="yes"/>
    </contour>
    <contour>
      <point x="891" y="636" type="line"/>
      <point x="787" y="558" type="line"/>
      <point x="316" y="1149" type="line"/>
      <point x="420" y="1229" type="line"/>
    </contour>
    <contour>
      <point x="528.0" y="-102.0" type="move" name="btm"/>
    </contour>
    <contour>
      <point x="837.0" y="1283.0" type="move" name="top"/>
    </contour>
  </outline>
</glyph>
<glyph name="tanadeva" format="1">
  <advance width="1919"/>
  <outline>
    <contour>
      <point x="958" y="807" type="line"/>
      <point x="953" y="635" type="line"/>
      <point x="584" y="635" type="line"/>
      <point x="384" y="635"/>
      <point x="317" y="560"/>
      <point x="317" y="444" type="curve" smooth="yes"/>
      <point x="317" y="360"/>
      <point x="355" y="251"/>
      <point x="497" y="40" type="curve"/>
      <point x="324" y="-17" type="line"/>
      <point x="170" y="207"/>
      <point x="118" y="372"/>
      <point x="118" y="490" type="curve" smooth="yes"/>
      <point x="118" y="679"/>
      <point x="241" y="807"/>
      <point x="531" y="807" type="curve" smooth="yes"/>
    </contour>
    <contour>
      <point x="-30" y="1136" type="line"/>
      <point x="-30" y="1283" type="line"/>
      <point x="738" y="1283" type="line"/>
      <point x="738" y="1136" type="line"/>
    </contour>
    <component base="nadeva" xOffset="673"/>
  </outline>
</glyph>
<glyph name="tataprehalfdeva" format="1">
  <advance width="792"/>
  <outline>
    <contour>
      <point x="822" y="1136" type="line"/>
      <point x="-30" y="1136" type="line"/>
      <point x="-30" y="1283" type="line"/>
      <point x="822" y="1283" type="line"/>
    </contour>
    <contour>
      <point x="907" y="677" type="line"/>
      <point x="24" y="677" type="line"/>
      <point x="24" y="851" type="line"/>
      <point x="907" y="851" type="line"/>
    </contour>
    <contour>
      <point x="1003" y="851" type="line"/>
      <point x="998" y="677" type="line"/>
      <point x="699" y="677" type="line"/>
      <point x="503" y="677"/>
      <point x="433" y="582"/>
      <point x="433" y="458" type="curve" smooth="yes"/>
      <point x="433" y="365"/>
      <point x="469" y="235"/>
      <point x="600" y="41" type="curve"/>
      <point x="427" y="-17" type="line"/>
      <point x="291" y="188"/>
      <point x="235" y="361"/>
      <point x="235" y="511" type="curve" smooth="yes"/>
      <point x="235" y="700"/>
      <point x="366" y="851"/>
      <point x="644" y="851" type="curve" smooth="yes"/>
    </contour>
  </outline>
</glyph>
<glyph name="tathadeva" format="1">
  <advance width="1984"/>
  <outline>
    <contour>
      <point x="-30" y="1136" type="line"/>
      <point x="-30" y="1283" type="line"/>
      <point x="693" y="1283" type="line"/>
      <point x="693" y="1136" type="line"/>
    </contour>
    <contour>
      <point x="927" y="718" type="curve"/>
      <point x="849" y="551" type="line"/>
      <point x="752" y="607"/>
      <point x="659" y="630"/>
      <point x="542" y="630" type="curve" smooth="yes"/>
      <point x="396" y="630"/>
      <point x="314" y="556"/>
      <point x="314" y="444" type="curve" smooth="yes"/>
      <point x="314" y="341"/>
      <point x="368" y="228"/>
      <point x="498" y="40" type="curve"/>
      <point x="325" y="-17" type="line"/>
      <point x="186" y="185"/>
      <point x="116" y="344"/>
      <point x="116" y="492" type="curve" smooth="yes"/>
      <point x="117" y="678"/>
      <point x="257" y="813"/>
      <point x="501" y="813" type="curve" smooth="yes"/>
      <point x="658" y="813"/>
      <point x="799" y="777"/>
    </contour>
    <component base="thadeva" xOffset="609"/>
  </outline>
</glyph>
<glyph name="tthatthadeva" format="1">
  <advance width="1277"/>
  <outline>
    <contour>
      <point x="973" y="607" type="curve" smooth="yes"/>
      <point x="973" y="694"/>
      <point x="937" y="758"/>
      <point x="871" y="808" type="curve"/>
      <point x="621" y="808" type="line"/>
      <point x="400" y="808"/>
      <point x="315" y="718"/>
      <point x="315" y="600" type="curve" smooth="yes"/>
      <point x="315" y="489"/>
      <point x="422" y="390"/>
      <point x="639" y="390" type="curve" smooth="yes"/>
      <point x="873" y="390"/>
      <point x="973" y="497"/>
    </contour>
    <contour>
      <point x="1307" y="1136" type="line"/>
      <point x="-30" y="1136" type="line"/>
      <point x="-30" y="1283" type="line"/>
      <point x="1307" y="1283" type="line"/>
    </contour>
    <contour>
      <point x="836" y="1167" type="line"/>
      <point x="1043" y="1167" type="line"/>
      <point x="1043" y="862" type="line"/>
      <point x="1005" y="928" type="line"/>
      <point x="1105" y="832"/>
      <point x="1167" y="720"/>
      <point x="1167" y="585" type="curve" smooth="yes"/>
      <point x="1167" y="408"/>
      <point x="1016" y="228"/>
      <point x="666" y="227" type="curve" smooth="yes"/>
      <point x="306" y="227"/>
      <point x="114" y="410"/>
      <point x="114" y="629" type="curve" smooth="yes"/>
      <point x="114" y="820"/>
      <point x="272" y="967"/>
      <point x="555" y="967" type="curve" smooth="yes"/>
      <point x="885" y="967" type="line"/>
      <point x="836" y="924" type="line"/>
    </contour>
    <contour>
      <point x="933" y="-242" type="curve" smooth="yes"/>
      <point x="933" y="-163"/>
      <point x="884" y="-89"/>
      <point x="803" y="-59" type="curve"/>
      <point x="615" y="-59" type="line"/>
      <point x="405" y="-59"/>
      <point x="331" y="-147"/>
      <point x="331" y="-246" type="curve" smooth="yes"/>
      <point x="331" y="-351"/>
      <point x="430" y="-442"/>
      <point x="626" y="-442" type="curve" smooth="yes"/>
      <point x="836" y="-442"/>
      <point x="933" y="-357"/>
    </contour>
    <contour>
      <point x="682" y="283" type="line"/>
      <point x="889" y="283" type="line"/>
      <point x="889" y="35" type="line"/>
      <point x="854" y="93" type="line"/>
      <point x="1016" y="23"/>
      <point x="1114" y="-106"/>
      <point x="1114" y="-261" type="curve" smooth="yes"/>
      <point x="1114" y="-443"/>
      <point x="967" y="-598"/>
      <point x="652" y="-598" type="curve" smooth="yes"/>
      <point x="321" y="-598"/>
      <point x="137" y="-418"/>
      <point x="137" y="-219" type="curve" smooth="yes"/>
      <point x="137" y="-45"/>
      <point x="280" y="102"/>
      <point x="559" y="102" type="curve" smooth="yes"/>
      <point x="730" y="102" type="line"/>
      <point x="682" y="58" type="line"/>
    </contour>
    <contour>
      <point x="515.0" y="-576.0" type="move" name="btm"/>
    </contour>
    <contour>
      <point x="786.0" y="1283.0" type="move" name="top"/>
    </contour>
  </outline>
</glyph>
<glyph name="uuvowelsignlowdeva" format="1">
  <advance width="0"/>
  <outline>
    <contour>
      <point x="-112" y="-477" type="line"/>
      <point x="-197" y="-510"/>
      <point x="-254" y="-519"/>
      <point x="-343" y="-519" type="curve" smooth="yes"/>
      <point x="-535" y="-519"/>
      <point x="-685" y="-410"/>
      <point x="-685" y="-234" type="curve" smooth="yes"/>
      <point x="-685" y="-99"/>
      <point x="-558" y="23"/>
      <point x="-357" y="23" type="curve" smooth="yes"/>
      <point x="-141" y="23"/>
      <point x="48" y="-87"/>
      <point x="272" y="-340" type="curve"/>
      <point x="171" y="-451" type="line"/>
      <point x="-49" y="-206"/>
      <point x="-203" y="-138"/>
      <point x="-335" y="-138" type="curve" smooth="yes"/>
      <point x="-446" y="-139"/>
      <point x="-503" y="-195"/>
      <point x="-503" y="-263" type="curve" smooth="yes"/>
      <point x="-503" y="-327"/>
      <point x="-445" y="-379"/>
      <point x="-346" y="-379" type="curve" smooth="yes"/>
      <point x="-286" y="-379"/>
      <point x="-239" y="-371"/>
      <point x="-165" y="-341" type="curve"/>
    </contour>
    <contour>
      <point x="-388.0" y="0.0" type="move" name="_btm"/>
    </contour>
  </outline>
</glyph>
<glyph name="vaprehalfdeva" format="1">
  <advance width="688"/>
  <outline>
    <contour>
      <point x="718" y="1136" type="line"/>
      <point x="-30" y="1136" type="line"/>
      <point x="-30" y="1283" type="line"/>
      <point x="718" y="1283" type="line"/>
    </contour>
    <contour>
      <point x="771" y="596" type="curve" smooth="yes"/>
      <point x="771" y="691"/>
      <point x="666" y="787"/>
      <point x="522" y="787" type="curve" smooth="yes"/>
      <point x="371" y="787"/>
      <point x="290" y="710"/>
      <point x="290" y="597" type="curve" smooth="yes"/>
      <point x="290" y="483"/>
      <point x="378" y="389"/>
      <point x="511" y="389" type="curve" smooth="yes"/>
      <point x="660" y="389"/>
      <point x="771" y="489"/>
    </contour>
    <contour>
      <point x="950" y="586" type="curve" smooth="yes"/>
      <point x="950" y="398"/>
      <point x="778" y="223"/>
      <point x="530" y="223" type="curve" smooth="yes"/>
      <point x="264" y="223"/>
      <point x="98" y="415"/>
      <point x="98" y="623" type="curve" smooth="yes"/>
      <point x="98" y="808"/>
      <point x="240" y="947"/>
      <point x="480" y="947" type="curve" smooth="yes"/>
      <point x="787" y="947"/>
      <point x="950" y="760"/>
    </contour>
  </outline>
</glyph>
<glyph name="vattuudeva" format="1">
  <advance width="0"/>
  <outline>
    <component base="uvowelsignlowdeva" xScale="0.968739380415" xOffset="12" yOffset="-387"/>
    <component base="vattudeva" yOffset="-11"/>
    <contour>
      <point x="-433" y="0" type="move" name="_btm"/>
    </contour>
  </outline>
</glyph>
